<svg xmlns="http://www.w3.org/2000/svg" height="12" width="12" viewBox="0 0 12 12"><title>file download</title><g stroke-linecap="round" stroke-width="1.5" fill="none" stroke="#252525" stroke-linejoin="round" class="nc-icon-wrapper"><path d="m4.75,9.25l-2,2-2-2" data-color="color-2"></path><path d="m2.75,11.25v-4.75" data-color="color-2"></path><path d="m6.75,4.25h3.5c0-.321-.127-.627-.353-.853l-2.295-2.295c-.226-.226-.532-.353-.851-.353v3.5Z" fill="#252525" stroke-width="1.5" data-color="color-2"></path><polyline points="6.75 .75 6.75 4.25 10.25 4.25" data-color="color-2"></polyline><path d="m6.285,11.25h1.965c1.105,0,2-.895,2-2v-5.001c0-.32-.127-.626-.353-.852l-2.294-2.294c-.226-.226-.532-.353-.852-.353h-3.001c-1.105,0-2,.895-2,2v1.461"></path></g></svg>