<svg width="26" height="14" viewBox="0 0 26 14" fill="none" xmlns="http://www.w3.org/2000/svg">
<path d="M11.9079 13.2108H6.99048C5.27052 13.2108 3.80582 12.6062 2.59638 11.3968C1.38694 10.1875 0.782227 8.72331 0.782227 7.00423C0.782227 5.28515 1.38694 3.8196 2.59638 2.60758C3.80582 1.39556 5.27052 0.789551 6.99048 0.789551H11.9079V3.06965H6.99354C5.89782 3.06965 4.96789 3.45096 4.20374 4.21359C3.43961 4.97621 3.05755 5.9043 3.05755 6.99786C3.05755 8.09144 3.43961 9.02112 4.20374 9.78689C4.96789 10.5526 5.89782 10.9355 6.99354 10.9355H11.9079V13.2108ZM8.15556 8.05163V5.95352H17.8397V8.05163H8.15556ZM14.0874 13.2108V10.9355H19.0017C20.0974 10.9355 21.0273 10.5542 21.7915 9.79157C22.5556 9.02894 22.9377 8.10085 22.9377 7.00729C22.9377 5.91372 22.5556 4.98404 21.7915 4.21827C21.0273 3.45252 20.0974 3.06965 19.0017 3.06965H14.0874V0.789551H19.0047C20.7237 0.789551 22.1889 1.39537 23.4005 2.60701C24.612 3.81865 25.2178 5.28401 25.2178 7.00309C25.2178 8.72219 24.612 10.1866 23.4005 11.3963C22.1889 12.606 20.7237 13.2108 19.0047 13.2108H14.0874Z" fill="#F4F4F4"/>
</svg>
