<?xml version="1.0" encoding="utf-8"?>
<!-- Generator: Adobe Illustrator 28.1.0, SVG Export Plug-In . SVG Version: 6.00 Build 0)  -->
<svg version="1.1" id="Layer_1" xmlns="http://www.w3.org/2000/svg" xmlns:xlink="http://www.w3.org/1999/xlink" x="0px" y="0px"
	 viewBox="0 0 659 61" style="enable-background:new 0 0 659 61;" xml:space="preserve">
<style type="text/css">
	.st0{fill:#373B3C;}
	.st1{fill:#FF9900;}
</style>
<path class="st0" d="M7.9,53.8h32.3c3,0,5.5-1,7.6-3.1C49.9,48.6,51,46,51,43V17.9c0-3-1.1-5.5-3.2-7.6c-2.1-2.1-4.6-3.1-7.6-3.1
	H7.9V53.8z M0.8,61V0h39.5c4.9,0,9.2,1.7,12.7,5.2c3.5,3.5,5.2,7.7,5.2,12.7V43c0,5-1.8,9.2-5.2,12.7c-3.5,3.5-7.8,5.2-12.7,5.2H0.8
	z M156.1,25.1h34.1c2.5,0,4.6-0.9,6.4-2.7c1.8-1.8,2.6-3.9,2.6-6.3v-9h-32.3c-3,0-5.5,1-7.6,3.1c-2.1,2.1-3.1,4.6-3.1,7.6V25.1z
	 M156.1,61h-7.2V17.9c0-4.9,1.8-9.2,5.2-12.7S161.9,0,166.9,0h39.5v16.1c0,4.5-1.6,8.3-4.7,11.4c-3.2,3.2-7,4.7-11.4,4.7h-34.1V61z
	 M230.2,25.1h34.1c2.5,0,4.6-0.9,6.4-2.7c1.8-1.8,2.6-3.9,2.6-6.3v-9H241c-3,0-5.5,1-7.6,3.1c-2.1,2.1-3.1,4.6-3.1,7.6V25.1z
	 M280.4,0v16.1c0,5.4-2.2,9.8-6.6,13c4.4,3.6,6.6,8.2,6.6,13.9v18h-7.2V43c0-3-1.1-5.5-3.2-7.6c-2.1-2.1-4.6-3.1-7.6-3.1h-32.3V61
	H223V17.9c0-4.9,1.8-9.2,5.2-12.7S236,0,241,0H280.4z M315.1,7.2c-3,0-5.5,1-7.6,3.1c-2.1,2.1-3.1,4.6-3.1,7.6V43c0,3,1,5.5,3.1,7.6
	c2.1,2.1,4.7,3.1,7.6,3.1h21.5c3,0,5.5-1,7.6-3.1c2.1-2.1,3.2-4.7,3.2-7.6V17.9c0-3-1.1-5.5-3.2-7.6c-2.1-2.1-4.6-3.1-7.6-3.1H315.1
	z M315.1,61c-5,0-9.2-1.8-12.7-5.2s-5.2-7.7-5.2-12.7V17.9c0-4.9,1.8-9.2,5.2-12.7S310.1,0,315.1,0h21.5c4.9,0,9.2,1.7,12.7,5.2
	c3.5,3.5,5.2,7.7,5.2,12.7V43c0,5-1.8,9.2-5.2,12.7c-3.5,3.5-7.8,5.2-12.7,5.2H315.1z M428.6,7.2h-39.5c-3,0-5.5,1-7.6,3.1
	c-2.1,2.1-3.1,4.6-3.1,7.6V43c0,3,1,5.5,3.1,7.6c2.1,2.1,4.7,3.1,7.6,3.1h32.3V43c0-3-1.1-5.5-3.2-7.6c-2.1-2.1-4.6-3.1-7.6-3.1h-18
	v-7.2h18c4.9,0,9.2,1.8,12.7,5.2c3.5,3.5,5.2,7.7,5.2,12.7v18h-39.5c-5,0-9.2-1.8-12.7-5.2s-5.2-7.7-5.2-12.7V17.9
	c0-4.9,1.8-9.2,5.2-12.7S384.2,0,389.1,0h39.5V7.2z M452.5,25.1h34.1c2.5,0,4.6-0.9,6.4-2.7c1.8-1.8,2.6-3.9,2.6-6.3v-9h-32.3
	c-3,0-5.5,1-7.6,3.1c-2.1,2.1-3.1,4.6-3.1,7.6V25.1z M502.7,0v16.1c0,5.4-2.2,9.8-6.6,13c4.4,3.6,6.6,8.2,6.6,13.9v18h-7.2V43
	c0-3-1.1-5.5-3.2-7.6c-2.1-2.1-4.6-3.1-7.6-3.1h-32.3V61h-7.2V17.9c0-4.9,1.8-9.2,5.2-12.7S458.3,0,463.2,0H502.7z M526.5,25.1h43.1
	v-7.2c0-3-1.1-5.5-3.2-7.6c-2.1-2.1-4.6-3.1-7.6-3.1h-21.5c-3,0-5.5,1-7.6,3.1c-2.1,2.1-3.1,4.6-3.1,7.6V25.1z M537.3,0h21.5
	c4.9,0,9.2,1.7,12.7,5.2c3.5,3.5,5.2,7.7,5.2,12.7V61h-7.2V32.3h-43.1V61h-7.2V17.9c0-4.9,1.8-9.2,5.2-12.7S532.4,0,537.3,0z
	 M649.9,0h8.2v61h-7.2V10.2l-25.1,31.4l-25.1-31.4V61h-7.2V0h8.2l24.1,30.1L649.9,0z"/>
<path class="st1" d="M74.8,61v-7.2h57.4V61H74.8z M74.8,32.3v-7.2h57.4v7.2H74.8z M74.8,7.2V0h57.4v7.2H74.8z"/>
</svg>
