<svg width="659" height="61" viewBox="0 0 659 61" fill="none" xmlns="http://www.w3.org/2000/svg">
<path d="M7.92188 53.8281H40.2188C43.1875 53.8281 45.7188 52.7812 47.8125 50.6875C49.9375 48.5625 51 46.0156 51 43.0469V17.9219C51 14.9531 49.9375 12.4219 47.8125 10.3281C45.7188 8.23438 43.1875 7.1875 40.2188 7.1875H7.92188V53.8281ZM0.75 61V0.015625H40.2188C45.1562 0.015625 49.3906 1.76562 52.9219 5.26562C56.4219 8.76562 58.1719 12.9844 58.1719 17.9219V43.0469C58.1719 48.0156 56.4219 52.25 52.9219 55.75C49.3906 59.25 45.1562 61 40.2188 61H0.75ZM156.099 25.1406H190.178C192.646 25.1406 194.771 24.25 196.553 22.4688C198.303 20.7188 199.178 18.6094 199.178 16.1406V7.1875H166.881C163.912 7.1875 161.365 8.23438 159.24 10.3281C157.146 12.4219 156.099 14.9531 156.099 17.9219V25.1406ZM156.099 61H148.928V17.9219C148.928 12.9844 150.678 8.76562 154.178 5.26562C157.678 1.76562 161.912 0.015625 166.881 0.015625H206.349V16.1406C206.349 20.6094 204.771 24.4219 201.615 27.5781C198.459 30.7344 194.646 32.3125 190.178 32.3125H156.099V61ZM230.188 25.1406H264.266C266.735 25.1406 268.86 24.25 270.641 22.4688C272.391 20.7188 273.266 18.6094 273.266 16.1406V7.1875H240.969C238.001 7.1875 235.454 8.23438 233.329 10.3281C231.235 12.4219 230.188 14.9531 230.188 17.9219V25.1406ZM280.438 0.015625V16.1406C280.438 21.5781 278.235 25.9219 273.829 29.1719C278.235 32.7656 280.438 37.3906 280.438 43.0469V61H273.266V43.0469C273.266 40.0781 272.204 37.5469 270.079 35.4531C267.985 33.3594 265.454 32.3125 262.485 32.3125H230.188V61H223.016V17.9219C223.016 12.9844 224.766 8.76562 228.266 5.26562C231.766 1.76562 236.001 0.015625 240.969 0.015625H280.438ZM315.058 7.1875C312.089 7.1875 309.543 8.23438 307.418 10.3281C305.324 12.4219 304.277 14.9531 304.277 17.9219V43.0469C304.277 46.0156 305.324 48.5625 307.418 50.6875C309.543 52.7812 312.089 53.8281 315.058 53.8281H336.574C339.543 53.8281 342.074 52.7812 344.168 50.6875C346.293 48.5625 347.355 46.0156 347.355 43.0469V17.9219C347.355 14.9531 346.293 12.4219 344.168 10.3281C342.074 8.23438 339.543 7.1875 336.574 7.1875H315.058ZM315.058 61C310.089 61 305.855 59.25 302.355 55.75C298.855 52.25 297.105 48.0156 297.105 43.0469V17.9219C297.105 12.9844 298.855 8.76562 302.355 5.26562C305.855 1.76562 310.089 0.015625 315.058 0.015625H336.574C341.511 0.015625 345.746 1.76562 349.277 5.26562C352.777 8.76562 354.527 12.9844 354.527 17.9219V43.0469C354.527 48.0156 352.777 52.25 349.277 55.75C345.746 59.25 341.511 61 336.574 61H315.058ZM428.616 7.1875H389.147C386.178 7.1875 383.631 8.23438 381.506 10.3281C379.413 12.4219 378.366 14.9531 378.366 17.9219V43.0469C378.366 46.0156 379.413 48.5625 381.506 50.6875C383.631 52.7812 386.178 53.8281 389.147 53.8281H421.444V43.0469C421.444 40.0781 420.381 37.5469 418.256 35.4531C416.163 33.3594 413.631 32.3125 410.663 32.3125H392.709V25.1406H410.663C415.6 25.1406 419.834 26.8906 423.366 30.3906C426.866 33.8906 428.616 38.1094 428.616 43.0469V61H389.147C384.178 61 379.944 59.25 376.444 55.75C372.944 52.25 371.194 48.0156 371.194 43.0469V17.9219C371.194 12.9844 372.944 8.76562 376.444 5.26562C379.944 1.76562 384.178 0.015625 389.147 0.015625H428.616V7.1875ZM452.454 25.1406H486.533C489.001 25.1406 491.126 24.25 492.908 22.4688C494.658 20.7188 495.533 18.6094 495.533 16.1406V7.1875H463.236C460.267 7.1875 457.72 8.23438 455.595 10.3281C453.501 12.4219 452.454 14.9531 452.454 17.9219V25.1406ZM502.704 0.015625V16.1406C502.704 21.5781 500.501 25.9219 496.095 29.1719C500.501 32.7656 502.704 37.3906 502.704 43.0469V61H495.533V43.0469C495.533 40.0781 494.47 37.5469 492.345 35.4531C490.251 33.3594 487.72 32.3125 484.751 32.3125H452.454V61H445.283V17.9219C445.283 12.9844 447.033 8.76562 450.533 5.26562C454.033 1.76562 458.267 0.015625 463.236 0.015625H502.704ZM526.543 25.1406H569.621V17.9219C569.621 14.9531 568.559 12.4219 566.434 10.3281C564.34 8.23438 561.809 7.1875 558.84 7.1875H537.324C534.356 7.1875 531.809 8.23438 529.684 10.3281C527.59 12.4219 526.543 14.9531 526.543 17.9219V25.1406ZM537.324 0.015625H558.84C563.778 0.015625 568.012 1.76562 571.543 5.26562C575.043 8.76562 576.793 12.9844 576.793 17.9219V61H569.621V32.3125H526.543V61H519.371V17.9219C519.371 12.9844 521.121 8.76562 524.621 5.26562C528.121 1.76562 532.356 0.015625 537.324 0.015625ZM649.851 0.015625H658.054V61H650.882V10.2344L625.757 41.6406L600.632 10.2344V61H593.46V0.015625H601.663L625.757 30.1562L649.851 0.015625Z" fill="white"/>
<path d="M74.8388 61V53.8281H132.261V61H74.8388ZM74.8388 32.3125V25.1406H132.261V32.3125H74.8388ZM74.8388 7.1875V0.015625H132.261V7.1875H74.8388Z" fill="#FF9900"/>
</svg>
