<svg xmlns="http://www.w3.org/2000/svg">
<defs>
<font id="TTFirsNeueTrialVarRoman" horiz-adv-x="610" >
  <font-face 
    font-family="TT Firs Neue Trial Var Roman"
    font-weight="400"
    font-stretch="normal"
    units-per-em="1000"
    panose-1="2 0 5 3 3 0 0 2 0 4"
    ascent="800"
    descent="-200"
    x-height="500"
    cap-height="700"
    bbox="-440 -300 1438 1030"
    underline-thickness="50"
    underline-position="-150"
    unicode-range="U+000D-FB02"
  />
<missing-glyph horiz-adv-x="900" 
d="M100 0v284h45v-139h33v139h50v31h-128v126l19 -61h23l34 106l33 -106h23l54 170h-32l-34 -110l-35 110h-19l-35 -110l-31 103v157h700v-150h-110v-170h110v-91q-6 13 -19.5 20t-30.5 7q-27 0 -43.5 -14.5t-16.5 -34.5q0 -22 14.5 -32.5t39.5 -17.5q17 -5 25.5 -9.5
t8.5 -13.5q0 -21 -28 -21q-14 0 -21 7t-7 18h-33q0 -24 17 -39.5t44 -15.5q17 0 30.5 6.5t19.5 13.5v-163h-700zM328 143q37 0 59.5 24.5t22.5 61.5t-23 62t-59 25t-59 -25t-23 -62t22.5 -61.5t59.5 -24.5zM328 174q-22 0 -36.5 16t-14.5 39q0 25 14 40.5t37 15.5
q24 0 37.5 -15.5t13.5 -40.5q0 -23 -14.5 -39t-36.5 -16zM549 209v106h-32v-106q0 -28 19.5 -47t48.5 -19t48 19t19 47v106h-32v-106q0 -15 -9.5 -25t-25.5 -10q-17 0 -26.5 10.5t-9.5 24.5zM311 380h33v62h24l35 -62h37l-40 67q36 17 36 50q0 22 -16 37.5t-41 15.5h-68
v-170zM344 473v46h35q10 0 17 -6.5t7 -16.5q0 -12 -7.5 -17.5t-16.5 -5.5h-35zM469 380h33v170h-33v-170zM776 262h24v-38q-15 14 -46 22q-16 5 -23 9t-7 12q0 9 7.5 14.5t18.5 5.5q10 0 18 -7t8 -18zM580 380h32v139h50v31h-132v-31h50v-139zM722 411v41h78v-41h-78z
M722 483v36h78v-36h-78z" />
    <glyph glyph-name="ff" unicode="ff" horiz-adv-x="620" 
d="M90 0v425h-65v75h65v200h240v-75h-160v-125h225v200h240v-75h-160v-125h130v-75h-130v-425h-80v425h-225v-425h-80z" />
    <glyph glyph-name="fi" unicode="fi" horiz-adv-x="545" 
d="M90 0v425h-65v75h65v200h335v-75h-255v-125h305v-500h-80v425h-225v-425h-80z" />
    <glyph glyph-name="fl" unicode="fl" horiz-adv-x="600" 
d="M90 0v425h-65v75h65v200h385v-625h115v-75h-195v625h-225v-125h130v-75h-130v-425h-80z" />
    <glyph glyph-name="f_j" unicode="fj" horiz-adv-x="545" 
d="M245 -190v75h150v540h-225v-425h-80v425h-65v75h65v200h335v-75h-255v-125h305v-690h-230z" />
    <glyph glyph-name="f_t" unicode="ft" horiz-adv-x="670" 
d="M90 0v425h-65v75h65v200h385v-200h160v-75h-160v-350h165v-75h-245v425h-225v-425h-80zM170 500h225v125h-225v-125z" />
    <glyph glyph-name="uniE065" unicode="&#xe023;&#xe023;" horiz-adv-x="620" 
d="M90 0v425h-65v75h65v40q0 78 39 119t111 41h90v-75h-85q-38 0 -56.5 -20.5t-18.5 -64.5v-40h225v40q0 78 39 119t111 41h90v-75h-85q-38 0 -56.5 -20.5t-18.5 -64.5v-40h130v-75h-130v-425h-80v425h-225v-425h-80z" />
    <glyph glyph-name="fi.alt" unicode="&#xe023;i" horiz-adv-x="545" 
d="M90 0v425h-65v75h65v40q0 78 39 119t111 41h185v-75h-180q-38 0 -56.5 -20.5t-18.5 -64.5v-40h305v-500h-80v425h-225v-425h-80z" />
    <glyph glyph-name="fl.alt" unicode="&#xe023;&#xe026;" horiz-adv-x="550" 
d="M90 0v425h-65v75h65v40q0 48 24 86.5t68 61t103 22.5q63 0 107 -22t66 -60.5t22 -87.5v-540h-80v540q0 43 -30 69t-85 26t-85 -26t-30 -69v-40h130v-75h-130v-425h-80z" />
    <glyph glyph-name="f_j.alt" unicode="&#xe023;&#xe025;" horiz-adv-x="545" 
d="M250 -190v75h75q35 0 52.5 20.5t17.5 64.5v455h-225v-425h-80v425h-65v75h65v40q0 78 39 119t111 41h185v-75h-180q-38 0 -56.5 -20.5t-18.5 -64.5v-40h305v-530q0 -52 -17.5 -88t-51 -54t-81.5 -18h-75z" />
    <glyph glyph-name="f_t.alt" unicode="&#xe023;&#xe027;" horiz-adv-x="675" 
d="M90 0v425h-65v75h65v40q0 48 24 86.5t68 61t103 22.5q63 0 107 -22t66 -60.5t22 -87.5v-40h160v-75h-160v-270q0 -41 18.5 -60.5t56.5 -19.5h90v-75h-90q-75 0 -115 40t-40 115v270h-230v-425h-80zM170 500h230v40q0 43 -30 69t-85 26t-85 -26t-30 -69v-40z" />
    <glyph glyph-name=".notdef" horiz-adv-x="900" 
d="M100 0v284h45v-139h33v139h50v31h-128v126l19 -61h23l34 106l33 -106h23l54 170h-32l-34 -110l-35 110h-19l-35 -110l-31 103v157h700v-150h-110v-170h110v-91q-6 13 -19.5 20t-30.5 7q-27 0 -43.5 -14.5t-16.5 -34.5q0 -22 14.5 -32.5t39.5 -17.5q17 -5 25.5 -9.5
t8.5 -13.5q0 -21 -28 -21q-14 0 -21 7t-7 18h-33q0 -24 17 -39.5t44 -15.5q17 0 30.5 6.5t19.5 13.5v-163h-700zM328 143q37 0 59.5 24.5t22.5 61.5t-23 62t-59 25t-59 -25t-23 -62t22.5 -61.5t59.5 -24.5zM328 174q-22 0 -36.5 16t-14.5 39q0 25 14 40.5t37 15.5
q24 0 37.5 -15.5t13.5 -40.5q0 -23 -14.5 -39t-36.5 -16zM549 209v106h-32v-106q0 -28 19.5 -47t48.5 -19t48 19t19 47v106h-32v-106q0 -15 -9.5 -25t-25.5 -10q-17 0 -26.5 10.5t-9.5 24.5zM311 380h33v62h24l35 -62h37l-40 67q36 17 36 50q0 22 -16 37.5t-41 15.5h-68
v-170zM344 473v46h35q10 0 17 -6.5t7 -16.5q0 -12 -7.5 -17.5t-16.5 -5.5h-35zM469 380h33v170h-33v-170zM776 262h24v-38q-15 14 -46 22q-16 5 -23 9t-7 12q0 9 7.5 14.5t18.5 5.5q10 0 18 -7t8 -18zM580 380h32v139h50v31h-132v-31h50v-139zM722 411v41h78v-41h-78z
M722 483v36h78v-36h-78z" />
    <glyph glyph-name=".null" horiz-adv-x="0" 
 />
    <glyph glyph-name="nonmarkingreturn" unicode="&#xd;" horiz-adv-x="0" 
 />
    <glyph glyph-name="space" unicode=" " horiz-adv-x="280" 
 />
    <glyph glyph-name="uni00A0" unicode="&#xa0;" horiz-adv-x="280" 
 />
    <glyph glyph-name="uni00AD" unicode="&#xad;" horiz-adv-x="480" 
d="M60 235v80h360v-80h-360z" />
    <glyph glyph-name="exclam" unicode="!" horiz-adv-x="280" 
d="M140 -15q-26 0 -43 17t-17 43t17 43t43 17t43 -17t17 -43t-17 -43t-43 -17zM110 205l-15 140v355h90v-355l-15 -140h-60z" />
    <glyph glyph-name="quotedbl" unicode="&#x22;" horiz-adv-x="385" 
d="M250 455l-15 110v135h80v-135l-15 -110h-50zM85 455l-15 110v135h80v-135l-15 -110h-50z" />
    <glyph glyph-name="numbersign" unicode="#" horiz-adv-x="665" 
d="M75 0l57 195h-107v70h127l50 170h-117v70h138l57 195h85l-57 -195h140l57 195h85l-57 -195h107v-70h-128l-50 -170h118v-70h-138l-57 -195h-85l57 195h-140l-57 -195h-85zM237 265h140l50 170h-140z" />
    <glyph glyph-name="dollar" unicode="$" horiz-adv-x="640" 
d="M280 -17q-103 13 -163 75t-77 142h90q16 -56 66.5 -95.5t133.5 -39.5q58 0 97.5 16t58.5 43t19 61q0 36 -24.5 59.5t-61 37.5t-100.5 32q-81 23 -130 43t-84 59.5t-35 103.5q0 48 25.5 90.5t73 71t111.5 35.5v93h90v-93q94 -12 149 -67t71 -125h-90q-14 46 -59 78
t-121 32q-50 0 -86.5 -16t-55 -42t-18.5 -57q0 -35 24 -58t60.5 -37t99.5 -31q81 -23 131 -44t85 -61t35 -104q0 -51 -26.5 -95t-77.5 -72.5t-121 -35.5v-92h-90v93z" />
    <glyph glyph-name="percent" unicode="%" horiz-adv-x="765" 
d="M130 0l420 700h85l-420 -700h-85zM560 -10q-44 0 -82 22.5t-60.5 60.5t-22.5 82t22.5 82t60.5 60.5t82 22.5t82 -22.5t60.5 -60.5t22.5 -82t-22.5 -82t-60.5 -60.5t-82 -22.5zM560 60q38 0 64 27t26 68t-26 68t-64 27t-64 -27t-26 -68t26 -68t64 -27zM205 380
q-44 0 -82 22.5t-60.5 60.5t-22.5 82t22.5 82t60.5 60.5t82 22.5t82 -22.5t60.5 -60.5t22.5 -82t-22.5 -82t-60.5 -60.5t-82 -22.5zM205 450q38 0 64 27t26 68t-26 68t-64 27t-64 -27t-26 -68t26 -68t64 -27z" />
    <glyph glyph-name="ampersand" unicode="&#x26;" horiz-adv-x="710" 
d="M280 70q47 0 83.5 20t56.5 56.5t20 83.5t-20 83.5t-56.5 56.5t-83.5 20t-83.5 -20t-56.5 -56.5t-20 -83.5t20 -83.5t56.5 -56.5t83.5 -20zM280 -20q-71 0 -129.5 33t-92 90.5t-33.5 126.5t33.5 126.5t92 90.5t129.5 33q16 0 25.5 -1.5t12.5 -3.5v1l-6 9l-87 130v85h405
v-85h-300v-1l405 -614h-105l-100 159l-4 6h-0.5h-0.5q-13 -52 -45.5 -94t-83.5 -66.5t-116 -24.5z" />
    <glyph glyph-name="quotesingle" unicode="'" horiz-adv-x="220" 
d="M85 455l-15 110v135h80v-135l-15 -110h-50z" />
    <glyph glyph-name="parenleft" unicode="(" horiz-adv-x="370" 
d="M310 -175q-100 75 -170 196.5t-70 268.5t70 268.5t170 196.5l40 -60q-82 -68 -138.5 -174t-56.5 -231t56.5 -231t138.5 -174z" />
    <glyph glyph-name="parenright" unicode=")" horiz-adv-x="370" 
d="M20 -115q82 68 138.5 174t56.5 231t-56.5 231t-138.5 174l40 60q100 -75 170 -196.5t70 -268.5t-70 -268.5t-170 -196.5z" />
    <glyph glyph-name="asterisk" unicode="*" horiz-adv-x="370" 
d="M120 390l-55 30l65 100h-95v65h115v115h70v-115h115v-65h-95l65 -100l-55 -30l-65 95z" />
    <glyph glyph-name="plus" unicode="+" horiz-adv-x="510" 
d="M215 105v165h-160v75h160v165h80v-165h160v-75h-160v-165h-80z" />
    <glyph glyph-name="comma" unicode="," horiz-adv-x="210" 
d="M50 -85q30 4 45 19.5t15 45.5v7.5v7.5q-10 -5 -20 -5q-19 0 -32 14.5t-13 37.5q0 28 17 45.5t43 17.5q28 0 44 -21.5t16 -68.5q0 -66 -30.5 -101t-84.5 -39v40z" />
    <glyph glyph-name="hyphen" unicode="-" horiz-adv-x="480" 
d="M60 235v80h360v-80h-360z" />
    <glyph glyph-name="period" unicode="." horiz-adv-x="210" 
d="M105 -15q-26 0 -43 17t-17 43t17 43t43 17t43 -17t17 -43t-17 -43t-43 -17z" />
    <glyph glyph-name="slash" unicode="/" horiz-adv-x="360" 
d="M0 0l270 700h90l-270 -700h-90z" />
    <glyph glyph-name="zero" unicode="0" horiz-adv-x="740" 
d="M370 -20q-85 0 -157.5 46t-115 130.5t-42.5 193.5t42.5 193.5t115 130.5t157.5 46t157.5 -46t115 -130.5t42.5 -193.5t-42.5 -193.5t-115 -130.5t-157.5 -46zM370 65q63 0 114.5 33t81 97.5t29.5 154.5t-29.5 154.5t-81 97.5t-114.5 33t-114.5 -33t-81 -97.5
t-29.5 -154.5t29.5 -154.5t81 -97.5t114.5 -33z" />
    <glyph glyph-name="one" unicode="1" horiz-adv-x="320" 
d="M150 0v590l-125 -95v100l135 105h80v-700h-90z" />
    <glyph glyph-name="two" unicode="2" horiz-adv-x="570" 
d="M30 0v85l230 170q63 46 100 82t56 74t19 84q0 40 -19 72t-53 50t-78 18q-66 0 -105 -40.5t-50 -99.5h-95q8 60 37 110.5t82.5 82.5t130.5 32q69 0 123.5 -30t85.5 -81.5t31 -113.5q0 -58 -22 -107t-61.5 -90.5t-97.5 -85.5q-6 -4 -12 -8.5t-12 -8.5l-145 -103l-10 -6v-2
l9 1h351v-85h-495z" />
    <glyph glyph-name="three" unicode="3" horiz-adv-x="595" 
d="M295 -20q-79 0 -135.5 29.5t-89.5 77t-45 103.5h95q14 -52 57.5 -88.5t117.5 -36.5q54 0 92 18t58 50t20 72t-19.5 72t-57 50t-88.5 18h-145v80l234 189l1 1h-330v85h455v-85l-220 -177l-9 -7l-1 -1h15q73 0 131.5 -31t91 -82.5t32.5 -111.5t-33 -111.5t-92.5 -82.5
t-134.5 -31z" />
    <glyph glyph-name="four" unicode="4" horiz-adv-x="585" 
d="M385 0v150h-365v85l245 465h100l-245 -465h265v180h5h85v-180h105v-85h-105v-150h-90z" />
    <glyph glyph-name="five" unicode="5" horiz-adv-x="615" 
d="M315 -20q-79 0 -135 29.5t-87.5 77t-42.5 103.5h90q14 -52 57.5 -88.5t117.5 -36.5q52 0 90.5 20t59 55t20.5 80t-20.5 80t-59 55t-90.5 20q-54 0 -94 -22t-61 -53h-80l30 400h415v-85h-340l-15 -204v-1q23 21 63 35.5t92 14.5q71 0 128 -31.5t89.5 -86.5t32.5 -122
t-33 -122t-92 -86.5t-135 -31.5z" />
    <glyph glyph-name="six" unicode="6" 
d="M305 -20q-76 0 -136.5 33t-94.5 89t-34 123q0 46 13 86.5t34.5 75t55.5 78.5q3 4 6 7.5t6 7.5l170 220h105l-185 -234l-4 -5l-1 -1q6 3 23 6.5t47 3.5q73 0 132.5 -33t93.5 -89t34 -123t-34 -123t-94.5 -89t-136.5 -33zM305 65q51 0 91 21t62 57.5t22 81.5t-22 81.5
t-62 57.5t-91 21t-91 -21t-62 -57.5t-22 -81.5t22 -81.5t62 -57.5t91 -21z" />
    <glyph glyph-name="seven" unicode="7" horiz-adv-x="495" 
d="M90 0l290 614v1h-370v85h465v-85l-290 -615h-95z" />
    <glyph glyph-name="eight" unicode="8" horiz-adv-x="640" 
d="M320 -20q-84 0 -146.5 29t-95.5 77t-33 104q0 66 31.5 105.5t57.5 52t56 22.5v0v5q-30 11 -56 31.5t-42.5 52t-16.5 71.5q0 51 29.5 94.5t85 69.5t130.5 26t130.5 -26t85 -69.5t29.5 -94.5q0 -40 -16.5 -71.5t-42.5 -52t-56 -31.5v-5v0q40 -10 92.5 -48.5t52.5 -131.5
q0 -56 -33 -104t-95.5 -77t-146.5 -29zM320 65q60 0 102 17.5t62.5 47t20.5 65.5t-20.5 65.5t-62.5 47t-102 17.5t-102 -17.5t-62.5 -47t-20.5 -65.5t20.5 -65.5t62.5 -47t102 -17.5zM320 410q48 0 83 15.5t53.5 41t18.5 53.5q0 33 -17 59t-52 41t-86 15t-86 -15t-52 -41
t-17 -59q0 -28 18.5 -53.5t53.5 -41t83 -15.5z" />
    <glyph glyph-name="nine" unicode="9" 
d="M180 0l185 234l3 4l1 1q-5 -2 -22 -5.5t-47 -3.5q-73 0 -132.5 33t-93.5 89t-34 123t34 123t94.5 89t136.5 33t136.5 -33t94.5 -89t34 -123q0 -46 -13 -86.5t-34.5 -75t-55.5 -78.5q-3 -4 -6 -7.5t-6 -7.5l-170 -220h-105zM305 315q51 0 91 21t62 57.5t22 81.5t-22 81.5
t-62 57.5t-91 21t-91 -21t-62 -57.5t-22 -81.5t22 -81.5t62 -57.5t91 -21z" />
    <glyph glyph-name="colon" unicode=":" horiz-adv-x="210" 
d="M105 395q-26 0 -43 17t-17 43t17 43t43 17t43 -17t17 -43t-17 -43t-43 -17zM105 -15q-26 0 -43 17t-17 43t17 43t43 17t43 -17t17 -43t-17 -43t-43 -17z" />
    <glyph glyph-name="semicolon" unicode=";" horiz-adv-x="210" 
d="M105 395q-26 0 -43 17t-17 43t17 43t43 17t43 -17t17 -43t-17 -43t-43 -17zM50 -85q30 4 45 19.5t15 45.5v7.5v7.5q-10 -5 -20 -5q-19 0 -32 14.5t-13 37.5q0 28 17 45.5t43 17.5q28 0 44 -21.5t16 -68.5q0 -66 -30.5 -101t-84.5 -39v40z" />
    <glyph glyph-name="less" unicode="&#x3c;" horiz-adv-x="510" 
d="M445 5l-390 200v90l390 200v-80l-310 -160v-10l310 -160v-80z" />
    <glyph glyph-name="equal" unicode="=" horiz-adv-x="510" 
d="M70 135v75h370v-75h-370zM70 320v75h370v-75h-370z" />
    <glyph glyph-name="greater" unicode="&#x3e;" horiz-adv-x="510" 
d="M65 5v80l310 160v10l-310 160v80l390 -200v-90z" />
    <glyph glyph-name="question" unicode="?" horiz-adv-x="530" 
d="M245 -15q-26 0 -43 17t-17 43t17 43t43 17t43 -17t17 -43t-17 -43t-43 -17zM200 200q0 54 17 90.5t40.5 58t63.5 48.5q30 20 48 35t29.5 36.5t11.5 51.5t-18 56.5t-51 42.5t-76 16q-66 0 -108 -36.5t-57 -88.5h-90q13 56 45 103.5t85 77t125 29.5q68 0 121.5 -27.5
t83.5 -73.5t30 -99q0 -46 -15.5 -78t-37.5 -52t-59 -46q-33 -22 -52.5 -39.5t-32.5 -43t-13 -61.5h-90z" />
    <glyph glyph-name="at" unicode="@" horiz-adv-x="815" 
d="M425 -60q-106 0 -193 50t-137 137t-50 193t50 193t137 137t193 50q103 0 184 -45t126 -115.5t45 -144.5q0 -72 -29.5 -125t-85.5 -81.5t-135 -28.5h-35v50h-1l-0.5 -0.5l-0.5 -0.5q-10 -20 -33.5 -39.5t-69.5 -19.5q-38 0 -71 22t-53.5 61t-20.5 87t20.5 87t53.5 61
t71 22q33 0 55.5 -12t33 -25t15.5 -23v0h1v50h80v-245q36 0 64 18.5t44.5 54.5t16.5 87q0 59 -32 112t-94.5 85.5t-148.5 32.5q-89 0 -158.5 -38.5t-108 -108t-38.5 -158.5t38.5 -158.5t108 -108t158.5 -38.5q54 0 104 14.5t86 35.5v-75q-36 -21 -86 -35.5t-104 -14.5z
M410 225q25 0 44.5 11.5t30 33t10.5 50.5t-10.5 50.5t-30 33t-44.5 11.5t-44.5 -11.5t-30 -33t-10.5 -50.5t10.5 -50.5t30 -33t44.5 -11.5z" />
    <glyph glyph-name="A" unicode="A" horiz-adv-x="675" 
d="M20 0l180 700h275l180 -700h-90l-55 205h-345l-55 -205h-90zM185 290h305l-85 325h-135z" />
    <glyph glyph-name="B" unicode="B" horiz-adv-x="700" 
d="M80 0v700h335q61 0 107.5 -24t72 -65t25.5 -91q0 -59 -29 -97t-71 -53v-5q54 -11 92 -52.5t38 -112.5q0 -58 -28 -103.5t-82 -71t-130 -25.5h-330zM410 85q49 0 82.5 15t50.5 41t17 59q0 36 -17 63t-50.5 42t-82.5 15h-240v-235h240zM410 405q55 0 87.5 29.5t32.5 75.5
t-32.5 75.5t-87.5 29.5h-240v-210h240z" />
    <glyph glyph-name="C" unicode="C" horiz-adv-x="800" 
d="M410 -20q-104 0 -187 47.5t-130.5 132t-47.5 190.5t47.5 190.5t130.5 132t187 47.5q95 0 166.5 -36t115 -93.5t63.5 -125.5h-90q-27 71 -92 120.5t-163 49.5q-79 0 -142 -36t-98 -100.5t-35 -148.5t35 -148.5t98 -100.5t142 -36q101 0 167 54t93 131h90
q-22 -71 -67.5 -132.5t-117 -99.5t-165.5 -38z" />
    <glyph glyph-name="D" unicode="D" horiz-adv-x="720" 
d="M80 0v700h230q104 0 187.5 -46t130.5 -126t47 -178t-47 -178t-130.5 -126t-187.5 -46h-230zM310 85q81 0 143.5 34t97 94t34.5 137t-34.5 137t-97 94t-143.5 34h-140v-530h140z" />
    <glyph glyph-name="E" unicode="E" 
d="M80 0v700h490v-85h-400v-220h325v-85h-325v-225h400v-85h-490z" />
    <glyph glyph-name="F" unicode="F" horiz-adv-x="580" 
d="M80 0v700h475v-85h-385v-240h305v-85h-305v-290h-90z" />
    <glyph glyph-name="G" unicode="G" horiz-adv-x="860" 
d="M410 -20q-104 0 -187 47.5t-130.5 132t-47.5 190.5t47.5 190.5t130.5 132t187 47.5q94 0 164.5 -35.5t115 -92t65.5 -122.5h-90q-29 69 -94 117t-161 48q-79 0 -142 -36t-98 -100.5t-35 -148.5t35 -148.5t98 -100.5t142 -36q70 0 126.5 29t92.5 78.5t46 107.5h-135v85
h310v-85h-85q-20 -89 -68 -156.5t-121 -105.5t-166 -38z" />
    <glyph glyph-name="H" unicode="H" horiz-adv-x="715" 
d="M80 0v700h90v-305h375v305h90v-700h-90v310h-375v-310h-90z" />
    <glyph glyph-name="I" unicode="I" horiz-adv-x="250" 
d="M80 0v700h90v-700h-90z" />
    <glyph glyph-name="J" unicode="J" horiz-adv-x="550" 
d="M235 -25q-96 0 -155 52.5t-80 127.5l90 20q13 -48 49.5 -81.5t95.5 -33.5q68 0 106.5 41t38.5 119v480h90v-480q0 -77 -28.5 -132t-81.5 -84t-125 -29z" />
    <glyph glyph-name="K" unicode="K" horiz-adv-x="650" 
d="M80 0v700h90v-305h135l220 305h105l-245 -340l255 -360h-110l-220 310h-140v-310h-90z" />
    <glyph glyph-name="L" unicode="L" horiz-adv-x="540" 
d="M80 0v700h90v-615h365v-85h-455z" />
    <glyph glyph-name="M" unicode="M" horiz-adv-x="915" 
d="M80 0v700h145l210 -450h45l210 450h145v-700h-90v600l1 10h-2l-204 -440h-165l-204 440h-2l1 -10v-600h-90z" />
    <glyph glyph-name="N" unicode="N" horiz-adv-x="725" 
d="M80 0v700h130l344 -590h2l-1 10v580h90v-700h-130l-344 590h-2l1 -10v-579z" />
    <glyph glyph-name="O" unicode="O" horiz-adv-x="820" 
d="M410 -20q-104 0 -187 47.5t-130.5 132t-47.5 190.5t47.5 190.5t130.5 132t187 47.5t187 -47.5t130.5 -132t47.5 -190.5t-47.5 -190.5t-130.5 -132t-187 -47.5zM410 65q79 0 142 36t98 100.5t35 148.5t-35 148.5t-98 100.5t-142 36t-142 -36t-98 -100.5t-35 -148.5
t35 -148.5t98 -100.5t142 -36z" />
    <glyph glyph-name="P" unicode="P" horiz-adv-x="670" 
d="M80 0v700h295q78 0 137 -30t91 -82.5t32 -117.5t-32 -117.5t-91 -82.5t-137 -30h-205v-240h-90zM375 325q81 0 125.5 40t44.5 105t-44.5 105t-125.5 40h-205v-290h205z" />
    <glyph glyph-name="Q" unicode="Q" horiz-adv-x="820" 
d="M365 -17q-92 11 -165 60.5t-114 129t-41 177.5q0 106 47.5 190.5t130.5 132t187 47.5t187 -47.5t130.5 -132t47.5 -190.5q0 -98 -41 -177.5t-114 -129t-165 -60.5v-183h-90v183zM410 65q79 0 142 36t98 100.5t35 148.5t-35 148.5t-98 100.5t-142 36t-142 -36t-98 -100.5
t-35 -148.5t35 -148.5t98 -100.5t142 -36z" />
    <glyph glyph-name="R" unicode="R" horiz-adv-x="685" 
d="M80 0v700h300q78 0 136 -28.5t88.5 -78.5t30.5 -113q0 -78 -49 -134.5t-136 -75.5l180 -270h-105l-170 260h-185v-260h-90zM380 345q80 0 122.5 36.5t42.5 98.5t-42.5 98.5t-122.5 36.5h-210v-270h210z" />
    <glyph glyph-name="S" unicode="S" horiz-adv-x="640" 
d="M330 -20q-85 0 -146 31t-96 81t-48 108h90q16 -56 66.5 -95.5t133.5 -39.5q58 0 97.5 16t58.5 43t19 61q0 36 -24.5 59.5t-61 37.5t-100.5 32q-81 23 -130 43t-84 59.5t-35 103.5q0 53 30.5 99t87.5 73.5t132 27.5q79 0 136 -27.5t89.5 -71.5t44.5 -96h-90q-14 46 -59 78
t-121 32q-50 0 -86.5 -16t-55 -42t-18.5 -57q0 -35 24 -58t60.5 -37t99.5 -31q81 -23 131 -44t85 -61t35 -104q0 -56 -31.5 -102.5t-91.5 -74.5t-142 -28z" />
    <glyph glyph-name="T" unicode="T" horiz-adv-x="590" 
d="M250 0v615h-240v85h570v-85h-240v-615h-90z" />
    <glyph glyph-name="U" unicode="U" horiz-adv-x="700" 
d="M350 -20q-82 0 -144.5 35t-96.5 99.5t-34 150.5v435h90v-435q0 -93 50.5 -146.5t134.5 -53.5t134.5 53.5t50.5 146.5v435h90v-435q0 -86 -34 -150.5t-96.5 -99.5t-144.5 -35z" />
    <glyph glyph-name="V" unicode="V" horiz-adv-x="670" 
d="M205 0l-185 700h95l160 -615h120l160 615h95l-185 -700h-260z" />
    <glyph glyph-name="W" unicode="W" horiz-adv-x="965" 
d="M185 0l-155 700h95l130 -615h25l130 615h145l130 -615h25l130 615h95l-155 -700h-160l-125 615h-25l-125 -615h-160z" />
    <glyph glyph-name="X" unicode="X" horiz-adv-x="630" 
d="M20 0l185 345l-175 355h95l155 -310h70l155 310h95l-175 -355l185 -345h-95l-165 305h-70l-165 -305h-95z" />
    <glyph glyph-name="Y" unicode="Y" horiz-adv-x="640" 
d="M275 0v255l-270 445h105l205 -340h10l205 340h105l-270 -445v-255h-90z" />
    <glyph glyph-name="Z" unicode="Z" horiz-adv-x="605" 
d="M30 0v85l425 525v5h-410v85h525v-85l-425 -525v-5h430v-85h-545z" />
    <glyph glyph-name="a" unicode="a" 
d="M280 -10q-65 0 -120 34t-87.5 93.5t-32.5 132.5t32.5 132.5t87.5 93.5t120 34q58 0 97.5 -20t60.5 -43.5t21 -27.5h1v81h80v-500h-80v80h-1q0 -4 -21 -27t-60.5 -43t-97.5 -20zM290 65q47 0 86 23.5t61.5 65.5t22.5 96t-22.5 96t-61.5 65.5t-86 23.5t-86 -23.5
t-61.5 -65.5t-22.5 -96t22.5 -96t61.5 -65.5t86 -23.5z" />
    <glyph glyph-name="b" unicode="b" 
d="M330 -10q-58 0 -97.5 20t-60.5 43t-21 27h-1v-80h-80v700h80v-280h1q0 4 21 27t60.5 43t97.5 20q65 0 120 -34t87.5 -93.5t32.5 -132.5t-32.5 -132.5t-87.5 -93.5t-120 -34zM320 65q47 0 86 23.5t61.5 65.5t22.5 96t-22.5 96t-61.5 65.5t-86 23.5t-86 -23.5t-61.5 -65.5
t-22.5 -96t22.5 -96t61.5 -65.5t86 -23.5z" />
    <glyph glyph-name="c" unicode="c" horiz-adv-x="565" 
d="M290 -10q-69 0 -126.5 34t-90.5 93t-33 133t33 133t90.5 93t126.5 34q67 0 116.5 -25t80 -64.5t43.5 -85.5h-80q-17 42 -58 71t-102 29q-47 0 -86 -23.5t-61.5 -65.5t-22.5 -96t23 -96t62 -65.5t85 -23.5q64 0 106 32t59 78h80q-13 -49 -44 -91t-81.5 -68t-119.5 -26z
" />
    <glyph glyph-name="d" unicode="d" 
d="M280 -10q-65 0 -120 34t-87.5 93.5t-32.5 132.5t32.5 132.5t87.5 93.5t120 34q58 0 97.5 -20t60.5 -43t21 -27h1v280h80v-700h-80v80h-1q0 -4 -21 -27t-60.5 -43t-97.5 -20zM290 65q47 0 86 23.5t61.5 65.5t22.5 96t-22.5 96t-61.5 65.5t-86 23.5t-86 -23.5t-61.5 -65.5
t-22.5 -96t22.5 -96t61.5 -65.5t86 -23.5z" />
    <glyph glyph-name="e" unicode="e" horiz-adv-x="590" 
d="M295 -10q-72 0 -130 33.5t-91.5 93t-33.5 133.5t33.5 133.5t91.5 93t130 33.5q71 0 129.5 -33.5t92 -92t33.5 -129.5v-30h-430q5 -46 29.5 -82.5t62.5 -57t83 -20.5q59 0 101.5 26t63.5 64h80q-27 -69 -89.5 -117t-155.5 -48zM465 295q-5 38 -27.5 70t-59.5 51t-83 19
t-83 -19t-60 -51t-30 -70h343z" />
    <glyph glyph-name="f" unicode="f" horiz-adv-x="315" 
d="M90 0v425h-65v75h65v200h240v-75h-160v-125h130v-75h-130v-425h-80z" />
    <glyph glyph-name="g" unicode="g" 
d="M110 -190v75h350v195h-1q0 -4 -21 -27t-60.5 -43t-97.5 -20q-65 0 -120 34t-87.5 93.5t-32.5 132.5t32.5 132.5t87.5 93.5t120 34q58 0 97.5 -20t60.5 -43t21 -27h1v80h80v-690h-430zM290 65q47 0 86 23.5t61.5 65.5t22.5 96t-22.5 96t-61.5 65.5t-86 23.5t-86 -23.5
t-61.5 -65.5t-22.5 -96t22.5 -96t61.5 -65.5t86 -23.5z" />
    <glyph glyph-name="h" unicode="h" horiz-adv-x="580" 
d="M70 0v700h80v-275h1q23 36 66.5 60.5t102.5 24.5q91 0 145.5 -57.5t54.5 -157.5v-295h-80v290q0 73 -36 109t-99 36q-45 0 -80 -20.5t-55 -58t-20 -86.5v-270h-80z" />
    <glyph glyph-name="i" unicode="i" horiz-adv-x="220" 
d="M70 0v500h80v-500h-80zM110 595q-22 0 -38.5 16.5t-16.5 38.5q0 23 16.5 39t38.5 16q23 0 39 -16t16 -39q0 -22 -16 -38.5t-39 -16.5z" />
    <glyph glyph-name="j" unicode="j" horiz-adv-x="220" 
d="M-75 -190v75h145v615h80v-690h-225zM110 595q-22 0 -38.5 16.5t-16.5 38.5q0 23 16.5 39t38.5 16q23 0 39 -16t16 -39q0 -22 -16 -38.5t-39 -16.5z" />
    <glyph glyph-name="k" unicode="k" horiz-adv-x="525" 
d="M70 0v700h80v-400h100l160 200h95l-185 -235l200 -265h-100l-170 225h-100v-225h-80z" />
    <glyph glyph-name="l" unicode="l" horiz-adv-x="275" 
d="M70 0v700h80v-625h115v-75h-195z" />
    <glyph glyph-name="m" unicode="m" horiz-adv-x="915" 
d="M70 0v500h80v-75h1q21 36 63 60.5t101 24.5t100 -29t60 -71h5q24 42 71.5 71t113.5 29q53 0 95 -26t66 -74.5t24 -114.5v-295h-80v290q0 69 -33 107t-87 38q-39 0 -74 -21t-55.5 -56.5t-20.5 -77.5v-280h-80v290q0 69 -33 107t-87 38q-39 0 -74 -21t-55.5 -56.5
t-20.5 -77.5v-280h-80z" />
    <glyph glyph-name="n" unicode="n" horiz-adv-x="585" 
d="M70 0v500h80v-75h1q23 36 66.5 60.5t102.5 24.5q91 0 145.5 -57.5t54.5 -157.5v-295h-80v290q0 73 -36 109t-99 36q-45 0 -80 -20.5t-55 -58t-20 -86.5v-270h-80z" />
    <glyph glyph-name="o" unicode="o" horiz-adv-x="600" 
d="M300 -10q-74 0 -133.5 33.5t-93 93t-33.5 133.5t33.5 133.5t93 93t133.5 33.5t133.5 -33.5t93 -93t33.5 -133.5t-33.5 -133.5t-93 -93t-133.5 -33.5zM300 65q52 0 93 23.5t64 65.5t23 96t-23 96t-64 65.5t-93 23.5t-93 -23.5t-64 -65.5t-23 -96t23 -96t64 -65.5t93 -23.5
z" />
    <glyph glyph-name="p" unicode="p" 
d="M70 -190v690h80v-80h1q0 4 21 27t60.5 43t97.5 20q65 0 120 -34t87.5 -93.5t32.5 -132.5t-32.5 -132.5t-87.5 -93.5t-120 -34q-58 0 -97.5 20t-60.5 43t-21 27h-1v-270h-80zM320 65q47 0 86 23.5t61.5 65.5t22.5 96t-22.5 96t-61.5 65.5t-86 23.5t-86 -23.5t-61.5 -65.5
t-22.5 -96t22.5 -96t61.5 -65.5t86 -23.5z" />
    <glyph glyph-name="q" unicode="q" 
d="M460 -190v270h-1q0 -4 -21 -27t-60.5 -43t-97.5 -20q-65 0 -120 34t-87.5 93.5t-32.5 132.5t32.5 132.5t87.5 93.5t120 34q58 0 97.5 -20t60.5 -43t21 -27h1v80h80v-690h-80zM290 65q47 0 86 23.5t61.5 65.5t22.5 96t-22.5 96t-61.5 65.5t-86 23.5t-86 -23.5t-61.5 -65.5
t-22.5 -96t22.5 -96t61.5 -65.5t86 -23.5z" />
    <glyph glyph-name="r" unicode="r" horiz-adv-x="380" 
d="M70 0v500h80v-80h1q19 36 58.5 60.5t95.5 24.5h60v-80h-60q-44 0 -79.5 -20t-55.5 -55.5t-20 -79.5v-270h-80z" />
    <glyph glyph-name="s" unicode="s" horiz-adv-x="510" 
d="M265 -10q-65 0 -113 23.5t-76.5 60.5t-40.5 81h85q15 -38 52 -64t93 -26q64 0 94.5 21t30.5 54q0 21 -16.5 34.5t-42 22t-70.5 18.5q-63 14 -103 29t-69 45t-29 81q0 38 22 70t65 51t103 19q91 0 145 -43.5t70 -106.5h-85q-13 31 -45.5 53t-84.5 22q-35 0 -60 -9.5
t-37.5 -24.5t-12.5 -31q0 -21 16.5 -34.5t42 -22t70.5 -18.5q63 -14 103 -29t69 -45t29 -81q0 -41 -23.5 -75t-70 -54.5t-111.5 -20.5z" />
    <glyph glyph-name="t" unicode="t" horiz-adv-x="365" 
d="M90 0v425h-65v75h65v110h80v-110h160v-75h-160v-350h165v-75h-245z" />
    <glyph glyph-name="u" unicode="u" horiz-adv-x="590" 
d="M270 -10q-91 0 -145.5 57.5t-54.5 157.5v295h80v-290q0 -72 36.5 -108.5t98.5 -36.5q45 0 80 20.5t55 58t20 86.5v270h80v-500h-80v75h-1q-23 -36 -66.5 -60.5t-102.5 -24.5z" />
    <glyph glyph-name="v" unicode="v" horiz-adv-x="525" 
d="M160 0l-140 500h85l115 -425h85l115 425h85l-140 -500h-205z" />
    <glyph glyph-name="w" unicode="w" horiz-adv-x="775" 
d="M140 0l-110 500h85l90 -425h25l85 425h145l85 -425h25l90 425h85l-110 -500h-155l-85 425h-15l-85 -425h-155z" />
    <glyph glyph-name="x" unicode="x" horiz-adv-x="495" 
d="M10 0l150 255l-145 245h90l120 -205h45l120 205h90l-145 -245l150 -255h-90l-125 220h-45l-125 -220h-90z" />
    <glyph glyph-name="y" unicode="y" horiz-adv-x="505" 
d="M210 -190l60 190h-115l-135 500h85l110 -425h75l130 425h85l-210 -690h-85z" />
    <glyph glyph-name="z" unicode="z" horiz-adv-x="465" 
d="M25 0v75l300 349v1h-290v75h395v-75l-300 -349v-1h310v-75h-415z" />
    <glyph glyph-name="bracketleft" unicode="[" horiz-adv-x="330" 
d="M80 -145v870h230v-80h-140v-710h140v-80h-230z" />
    <glyph glyph-name="backslash" unicode="\" horiz-adv-x="360" 
d="M270 0l-270 700h90l270 -700h-90z" />
    <glyph glyph-name="bracketright" unicode="]" horiz-adv-x="330" 
d="M20 -145v80h140v710h-140v80h230v-870h-230z" />
    <glyph glyph-name="asciicircum" unicode="^" horiz-adv-x="460" 
d="M35 380l145 320h100l145 -320h-80l-105 240h-20l-105 -240h-80z" />
    <glyph glyph-name="underscore" unicode="_" horiz-adv-x="320" 
d="M-20 -180v75h360v-75h-360z" />
    <glyph glyph-name="braceleft" unicode="{" horiz-adv-x="350" 
d="M265 -145q-71 0 -108 35.5t-37 99.5v215q0 23 -13.5 36.5t-36.5 13.5h-30v75h30q23 0 36.5 14t13.5 36v210q0 64 37 99.5t108 35.5h65v-80h-65q-30 0 -45 -14t-15 -41v-210q0 -25 -9 -43t-24 -28t-32 -14v-5q27 -6 46 -27t19 -58v-215q0 -27 15 -41t45 -14h65v-80h-65z
" />
    <glyph glyph-name="bar" unicode="|" horiz-adv-x="325" 
d="M120 -100v850h85v-850h-85z" />
    <glyph glyph-name="braceright" unicode="}" horiz-adv-x="350" 
d="M20 -145v80h65q30 0 45 14t15 41v215q0 32 13 50.5t27.5 26t23.5 8.5h0.5h0.5v5h-1q-18 3 -41 21.5t-23 63.5v210q0 27 -15 41t-45 14h-65v80h65q71 0 108 -35.5t37 -99.5v-210q0 -22 14 -36t36 -14h30v-75h-30q-22 0 -36 -13.5t-14 -36.5v-215q0 -64 -37 -99.5
t-108 -35.5h-65z" />
    <glyph glyph-name="asciitilde" unicode="~" horiz-adv-x="510" 
d="M45 265q0 59 30.5 89.5t84.5 30.5q34 0 59 -10t54 -28q24 -14 37.5 -20.5t29.5 -6.5q23 0 34 11.5t11 33.5v20h80v-20q0 -59 -30.5 -89.5t-84.5 -30.5q-34 0 -59 10t-54 28q-24 14 -37.5 20.5t-29.5 6.5q-22 0 -33.5 -11t-11.5 -34v-20h-80v20z" />
    <glyph glyph-name="exclamdown" unicode="&#xa1;" horiz-adv-x="280" 
d="M95 -190v345l15 140h60l15 -140v-345h-90zM140 395q-26 0 -43 17t-17 43t17 43t43 17t43 -17t17 -43t-17 -43t-43 -17z" />
    <glyph glyph-name="brokenbar" unicode="&#xa6;" horiz-adv-x="325" 
d="M120 -100v365h85v-365h-85zM120 385v365h85v-365h-85z" />
    <glyph glyph-name="section" unicode="&#xa7;" horiz-adv-x="545" 
d="M275 -20q-98 0 -157 42t-78 103h85q13 -29 51 -49.5t99 -20.5q69 0 102 19.5t33 45.5q0 23 -19.5 38.5t-49 25.5t-80.5 23q-68 18 -109.5 33.5t-71.5 44.5t-30 75q0 39 26 67t64 42v1q-31 18 -53 47t-22 63q0 39 23 70.5t70 50.5t117 19q93 0 149.5 -42t75.5 -103h-85
q-13 29 -48.5 49.5t-91.5 20.5q-66 0 -98 -19.5t-32 -45.5q0 -23 19 -39t48.5 -26t79.5 -24q68 -19 108.5 -35.5t70 -45.5t29.5 -75q0 -48 -32 -74t-58 -36v-1q7 -2 26 -14.5t36.5 -35.5t17.5 -54q0 -36 -24.5 -68t-73 -52t-117.5 -20zM345 260q30 4 52.5 26.5t22.5 48.5
q0 21 -19 35.5t-47 23.5t-76 21q-41 10 -73 20q-30 -4 -52.5 -26.5t-22.5 -48.5q0 -21 19 -35.5t47 -23.5t76 -21q18 -5 36.5 -10t36.5 -10z" />
    <glyph glyph-name="copyright" unicode="&#xa9;" horiz-adv-x="840" 
d="M420 -20q-106 0 -191.5 48.5t-134.5 133t-49 188.5t49 188.5t134.5 133t191.5 48.5t191.5 -48.5t134.5 -133t49 -188.5t-49 -188.5t-134.5 -133t-191.5 -48.5zM420 50q84 0 151.5 38.5t105.5 107t38 154.5t-38 154.5t-105.5 107t-151.5 38.5t-151.5 -38.5t-105.5 -107
t-38 -154.5t38 -154.5t105.5 -107t151.5 -38.5zM425 165q-49 0 -90.5 24.5t-65.5 66.5t-24 94t24 94t65.5 66.5t90.5 24.5q66 0 110.5 -39.5t64.5 -95.5h-85q-12 25 -35 42.5t-55 17.5q-42 0 -71 -31t-29 -79t29 -79t71 -31q34 0 57 17.5t33 42.5h85q-20 -56 -64.5 -95.5
t-110.5 -39.5z" />
    <glyph glyph-name="registered" unicode="&#xae;" horiz-adv-x="600" 
d="M300 200q-74 0 -134.5 34.5t-95.5 94t-35 131.5t35 131.5t95.5 94t134.5 34.5t134.5 -34.5t95.5 -94t35 -131.5t-35 -131.5t-95.5 -94t-134.5 -34.5zM300 260q57 0 102.5 26t71.5 71.5t26 102.5t-26 102.5t-71.5 71.5t-102.5 26t-102.5 -26t-71.5 -71.5t-26 -102.5
t26 -102.5t71.5 -71.5t102.5 -26zM200 345v245h115q51 0 78 -24t27 -66q0 -27 -14.5 -46t-35.5 -29l55 -80h-70l-50 70h-40v-70h-65zM315 470q19 0 30 7.5t11 22.5t-11 22.5t-30 7.5h-50v-60h50z" />
    <glyph glyph-name="trademark" unicode="&#x2122;" horiz-adv-x="770" 
d="M115 380v250h-110v70h295v-70h-110v-250h-75zM335 380v320h111l74 -170h15l74 170h111v-320h-75v225l1 10h-2l-69 -160h-95l-69 160h-2l1 -10v-225h-75z" />
    <glyph glyph-name="logicalnot" unicode="&#xac;" horiz-adv-x="510" 
d="M360 165v110h-300v75h385v-185h-85z" />
    <glyph glyph-name="degree" unicode="&#xb0;" horiz-adv-x="330" 
d="M165 450q-36 0 -66 17.5t-47 46.5t-17 61t17 61t47 46.5t66 17.5t66 -17.5t47 -46.5t17 -61t-17 -61t-47 -46.5t-66 -17.5zM165 515q26 0 43 17t17 43t-17 43t-43 17t-43 -17t-17 -43t17 -43t43 -17z" />
    <glyph glyph-name="plusminus" unicode="&#xb1;" horiz-adv-x="510" 
d="M55 15v75h160v155h-160v75h160v165h80v-165h160v-75h-160v-155h160v-75h-400z" />
    <glyph glyph-name="uni00B5" unicode="&#xb5;" horiz-adv-x="590" 
d="M70 -198v698h80v-290q0 -47 17 -79.5t47.5 -49t70.5 -16.5q45 0 80 20.5t55 58t20 86.5v270h80v-500h-80v75h-1q-23 -36 -65.5 -60.5t-98.5 -24.5q-37 0 -69.5 14.5t-54.5 35.5h-2l1 -10v-228h-80z" />
    <glyph glyph-name="paragraph" unicode="&#xb6;" horiz-adv-x="415" 
d="M215 330q-49 0 -91.5 25.5t-68 68t-25.5 91.5q0 50 26 92.5t72 67.5t102 25h160v-80h-85v-810h-90v520z" />
    <glyph glyph-name="ordfeminine" unicode="&#xaa;" horiz-adv-x="370" 
d="M150 370q-51 0 -80.5 28.5t-29.5 71.5t31 69t89 26h95v20q0 30 -15 45t-45 15q-29 0 -47 -11.5t-23 -28.5h-75q15 44 52 74.5t93 30.5q63 0 99 -34t36 -91v-210h-75v45h-1l-0.5 -0.5l-0.5 -0.5q-12 -17 -36 -33t-67 -16zM170 430q37 0 61 23t24 57h-85q-29 0 -42 -10
t-13 -30q0 -17 13.5 -28.5t41.5 -11.5z" />
    <glyph glyph-name="ordmasculine" unicode="&#xba;" horiz-adv-x="400" 
d="M200 370q-47 0 -86 22.5t-61.5 61.5t-22.5 86t22.5 86t61.5 61.5t86 22.5t86 -22.5t61.5 -61.5t22.5 -86t-22.5 -86t-61.5 -61.5t-86 -22.5zM200 440q42 0 68.5 27.5t26.5 72.5t-26.5 72.5t-68.5 27.5t-68.5 -27.5t-26.5 -72.5t26.5 -72.5t68.5 -27.5z" />
    <glyph glyph-name="uni00B9" unicode="&#xb9;" horiz-adv-x="350" 
d="M55 460v65h100v195l-90 -50v80l95 50h70v-275h95v-65h-270z" />
    <glyph glyph-name="uni00B2" unicode="&#xb2;" horiz-adv-x="355" 
d="M35 460v65l80 50q7 4 13 8l12 8q38 25 59.5 43t31 32.5t9.5 28.5q0 23 -15.5 36.5t-44.5 13.5t-48 -16t-26 -39h-71q9 50 45 85t100 35q41 0 72 -15t47 -41t16 -58q0 -45 -34 -82t-111 -78l-13 -7l-7 -3v-2l10 1h160v-65h-285z" />
    <glyph glyph-name="uni00B3" unicode="&#xb3;" horiz-adv-x="350" 
d="M175 450q-61 0 -97.5 32t-47.5 78h76q7 -19 24.5 -32t44.5 -13q33 0 49 13.5t16 36.5q0 20 -17 32.5t-53 12.5h-70v60l90 64v2l-10 -1h-130v65h245v-60l-85 -62l-10 -6v-2h5q48 0 79 -30t31 -75q0 -50 -37 -82.5t-103 -32.5z" />
    <glyph glyph-name="guillemotleft" unicode="&#xab;" horiz-adv-x="550" 
d="M240 5l-210 245l210 245l55 -55l-165 -190l165 -190zM455 5l-210 245l210 245l55 -55l-165 -190l165 -190z" />
    <glyph glyph-name="guillemotright" unicode="&#xbb;" horiz-adv-x="550" 
d="M95 5l-55 55l165 190l-165 190l55 55l210 -245zM310 5l-55 55l165 190l-165 190l55 55l210 -245z" />
    <glyph glyph-name="onequarter" unicode="&#xbc;" horiz-adv-x="753" 
d="M160 0l430 700h80l-430 -700h-80zM55 360v65h100v195l-90 -50v80l95 50h70v-275h95v-65h-270zM613 0v70h-170v65l130 205h80l-130 -205h90v65h75v-65h50v-65h-50v-70h-75z" />
    <glyph glyph-name="onehalf" unicode="&#xbd;" horiz-adv-x="801" 
d="M160 0l430 700h80l-430 -700h-80zM55 360v65h100v195l-90 -50v80l95 50h70v-275h95v-65h-270zM481 0v65l80 50q7 4 13 8l12 8q38 25 59.5 43t31 32.5t9.5 28.5q0 23 -15.5 36.5t-44.5 13.5t-48 -16t-26 -39h-71q9 50 45 85t100 35q41 0 72 -15t47 -41t16 -58
q0 -45 -34 -82t-111 -78l-13 -7l-7 -3v-2l10 1h160v-65h-285z" />
    <glyph glyph-name="threequarters" unicode="&#xbe;" horiz-adv-x="738" 
d="M145 0l430 700h80l-430 -700h-80zM175 350q-61 0 -97.5 32t-47.5 78h76q7 -19 24.5 -32t44.5 -13q33 0 49 13.5t16 36.5q0 20 -17 32.5t-53 12.5h-70v60l90 64v2l-10 -1h-130v65h245v-60l-85 -62l-10 -6v-2h5q48 0 79 -30t31 -75q0 -50 -37 -82.5t-103 -32.5zM598 0v70
h-170v65l130 205h80l-130 -205h90v65h75v-65h50v-65h-50v-70h-75z" />
    <glyph glyph-name="questiondown" unicode="&#xbf;" horiz-adv-x="520" 
d="M255 -210q-68 0 -121.5 27.5t-83.5 73.5t-30 99q0 46 15.5 77.5t37.5 51t59 42.5q34 21 53 37t32 41t13 61h90q0 -54 -17 -89.5t-41 -56t-63 -45.5q-31 -20 -48.5 -34t-29 -34.5t-11.5 -50.5t18 -56.5t51 -42.5t76 -16q66 0 108 36.5t57 88.5h90q-13 -56 -45 -103.5
t-85 -77t-125 -29.5zM275 395q-26 0 -43 17t-17 43t17 43t43 17t43 -17t17 -43t-17 -43t-43 -17z" />
    <glyph glyph-name="multiply" unicode="&#xd7;" horiz-adv-x="510" 
d="M130 120l-55 55l125 125l-125 125l55 55l125 -125l125 125l55 -55l-125 -125l125 -125l-55 -55l-125 125z" />
    <glyph glyph-name="divide" unicode="&#xf7;" horiz-adv-x="510" 
d="M255 40q-26 0 -43 17t-17 43t17 43t43 17t43 -17t17 -43t-17 -43t-43 -17zM60 230v80h390v-80h-390zM255 380q-26 0 -43 17t-17 43t17 43t43 17t43 -17t17 -43t-17 -43t-43 -17z" />
    <glyph glyph-name="minus" unicode="&#x2212;" horiz-adv-x="510" 
d="M60 235v80h390v-80h-390z" />
    <glyph glyph-name="approxequal" unicode="&#x2248;" horiz-adv-x="510" 
d="M340 120q-32 0 -55 10.5t-51 29.5q-20 14 -30.5 19.5t-23.5 5.5q-19 0 -32 -13t-13 -32v-15h-80v15q0 56 29.5 85.5t85.5 29.5q32 0 55 -10.5t51 -29.5q20 -14 30.5 -19.5t23.5 -5.5q19 0 32 13t13 32v15h80v-15q0 -56 -29.5 -85.5t-85.5 -29.5zM340 285q-32 0 -55 10.5
t-51 29.5q-20 14 -30.5 19.5t-23.5 5.5q-19 0 -32 -13t-13 -32v-15h-80v15q0 56 29.5 85.5t85.5 29.5q32 0 55 -10.5t51 -29.5q20 -14 30.5 -19.5t23.5 -5.5q19 0 32 13t13 32v15h80v-15q0 -56 -29.5 -85.5t-85.5 -29.5z" />
    <glyph glyph-name="notequal" unicode="&#x2260;" horiz-adv-x="510" 
d="M75 0l70 135h-75v75h114l57 110h-171v75h210l70 135h75l-70 -135h85v-75h-124l-57 -110h181v-75h-220l-70 -135h-75z" />
    <glyph glyph-name="lessequal" unicode="&#x2264;" horiz-adv-x="510" 
d="M445 -15l-390 165v75l390 -165v-75zM445 115l-390 165v90l390 165v-80l-305 -125v-10l305 -125v-80z" />
    <glyph glyph-name="greaterequal" unicode="&#x2265;" horiz-adv-x="510" 
d="M65 -15v75l390 165v-75zM65 115v80l305 125v10l-305 125v80l390 -165v-90z" />
    <glyph glyph-name="Agrave" unicode="&#xc0;" horiz-adv-x="675" 
d="M20 0l180 700h275l180 -700h-90l-55 205h-345l-55 -205h-90zM185 290h305l-85 325h-135zM300 790l-115 144v1h100l85 -145h-70z" />
    <glyph glyph-name="Aacute" unicode="&#xc1;" horiz-adv-x="675" 
d="M20 0l180 700h275l180 -700h-90l-55 205h-345l-55 -205h-90zM185 290h305l-85 325h-135zM300 790l85 145h100v-1l-115 -144h-70z" />
    <glyph glyph-name="Acircumflex" unicode="&#xc2;" horiz-adv-x="675" 
d="M20 0l180 700h275l180 -700h-90l-55 205h-345l-55 -205h-90zM185 290h305l-85 325h-135zM180 790v1l110 144h90l110 -144v-1h-85l-65 90h-10l-65 -90h-85z" />
    <glyph glyph-name="Atilde" unicode="&#xc3;" horiz-adv-x="675" 
d="M20 0l180 700h275l180 -700h-90l-55 205h-345l-55 -205h-90zM185 290h305l-85 325h-135zM400 800q-27 0 -45.5 9.5t-38.5 26.5q-14 12 -24 18t-22 6q-15 0 -22.5 -7.5t-7.5 -22.5v-25h-65v28q0 39 27 65.5t68 26.5q27 0 45.5 -9.5t38.5 -26.5q14 -12 24 -18t22 -6
q15 0 22.5 7.5t7.5 22.5v25h65v-28q0 -39 -27 -65.5t-68 -26.5z" />
    <glyph glyph-name="Adieresis" unicode="&#xc4;" horiz-adv-x="675" 
d="M20 0l180 700h275l180 -700h-90l-55 205h-345l-55 -205h-90zM185 290h305l-85 325h-135zM250 805q-22 0 -38.5 16.5t-16.5 38.5q0 23 16.5 39t38.5 16q23 0 39 -16t16 -39q0 -22 -16 -38.5t-39 -16.5zM430 805q-22 0 -38.5 16.5t-16.5 38.5q0 23 16.5 39t38.5 16
q23 0 39 -16t16 -39q0 -22 -16 -38.5t-39 -16.5z" />
    <glyph glyph-name="Aring" unicode="&#xc5;" horiz-adv-x="675" 
d="M20 0l180 700h275l180 -700h-90l-55 205h-345l-55 -205h-90zM185 290h305l-85 325h-135zM335 755q-30 0 -54 13.5t-37.5 37.5t-13.5 54t13.5 54t37.5 37.5t54 13.5t54 -13.5t37.5 -37.5t13.5 -54t-13.5 -54t-37.5 -37.5t-54 -13.5zM335 805q25 0 40 16t15 39t-15 39
t-40 16t-40 -16t-15 -39t15 -39t40 -16z" />
    <glyph glyph-name="Amacron" unicode="&#x100;" horiz-adv-x="675" 
d="M20 0l180 700h275l180 -700h-90l-55 205h-345l-55 -205h-90zM185 290h305l-85 325h-135zM205 830v70h270v-70h-270z" />
    <glyph glyph-name="Abreve" unicode="&#x102;" horiz-adv-x="675" 
d="M20 0l180 700h275l180 -700h-90l-55 205h-345l-55 -205h-90zM185 290h305l-85 325h-135zM335 800q-66 0 -105.5 35.5t-39.5 89.5h70q0 -31 19 -48t56 -17t56 17t19 48h70q0 -54 -39.5 -89.5t-105.5 -35.5z" />
    <glyph glyph-name="Aogonek" unicode="&#x104;" horiz-adv-x="675" 
d="M580 -230q-48 0 -76.5 26.5t-28.5 68.5q0 28 16.5 54t42.5 46.5t56 34.5h-25l-55 205h-345l-55 -205h-90l180 700h275l180 -700q-50 -25 -85 -59t-35 -71q0 -19 14 -32t36 -13q33 0 70 20v-55q-13 -8 -33 -14t-42 -6zM185 290h305l-85 325h-135z" />
    <glyph glyph-name="AE" unicode="&#xc6;" horiz-adv-x="980" 
d="M20 0l180 700h740v-85h-385v-220h310v-85h-310v-225h385v-85h-475v205h-300l-55 -205h-90zM185 290h280v325h-195z" />
    <glyph glyph-name="uni01FA" unicode="&#x1fa;" horiz-adv-x="675" 
d="M335 755q-30 0 -54 13.5t-37.5 37.5t-13.5 54q0 41 26 70t66 34l38 66h80v-1l-59 -74q27 -12 43 -37.5t16 -57.5q0 -30 -13.5 -54t-37.5 -37.5t-54 -13.5zM335 805q25 0 40 16t15 39t-15 39t-40 16t-40 -16t-15 -39t15 -39t40 -16zM20 0l180 700h275l180 -700h-90
l-55 205h-345l-55 -205h-90zM185 290h305l-85 325h-135z" />
    <glyph glyph-name="uni01FC" unicode="&#x1fc;" horiz-adv-x="980" 
d="M20 0l180 700h740v-85h-385v-220h310v-85h-310v-225h385v-85h-475v205h-300l-55 -205h-90zM185 290h280v325h-195zM481 790l85 145h100v-1l-115 -144h-70z" />
    <glyph glyph-name="uni1E9E" unicode="&#x1e9e;" horiz-adv-x="710" 
d="M75 460q0 73 31.5 127t93.5 83.5t150 29.5h260v-85l-160 -180v-5q56 -5 103.5 -28.5t77 -69t29.5 -112.5q0 -66 -30.5 -115.5t-90.5 -77t-147 -27.5h-67v85h67q57 0 97 18t60.5 48.5t20.5 68.5t-19 67.5t-58.5 46t-97.5 16.5h-55v85l160 180h-150q-100 0 -142.5 -38
t-42.5 -122v-455h-90v460z" />
    <glyph glyph-name="Cacute" unicode="&#x106;" horiz-adv-x="800" 
d="M410 -20q-104 0 -187 47.5t-130.5 132t-47.5 190.5t47.5 190.5t130.5 132t187 47.5q95 0 166.5 -36t115 -93.5t63.5 -125.5h-90q-27 71 -92 120.5t-163 49.5q-79 0 -142 -36t-98 -100.5t-35 -148.5t35 -148.5t98 -100.5t142 -36q101 0 167 54t93 131h90
q-22 -71 -67.5 -132.5t-117 -99.5t-165.5 -38zM365 790l85 145h100v-1l-115 -144h-70z" />
    <glyph glyph-name="Ccircumflex" unicode="&#x108;" horiz-adv-x="800" 
d="M410 -20q-104 0 -187 47.5t-130.5 132t-47.5 190.5t47.5 190.5t130.5 132t187 47.5q95 0 166.5 -36t115 -93.5t63.5 -125.5h-90q-27 71 -92 120.5t-163 49.5q-79 0 -142 -36t-98 -100.5t-35 -148.5t35 -148.5t98 -100.5t142 -36q101 0 167 54t93 131h90
q-22 -71 -67.5 -132.5t-117 -99.5t-165.5 -38zM250 790v1l110 144h90l110 -144v-1h-85l-65 90h-10l-65 -90h-85z" />
    <glyph glyph-name="Cdotaccent" unicode="&#x10a;" horiz-adv-x="800" 
d="M410 -20q-104 0 -187 47.5t-130.5 132t-47.5 190.5t47.5 190.5t130.5 132t187 47.5q95 0 166.5 -36t115 -93.5t63.5 -125.5h-90q-27 71 -92 120.5t-163 49.5q-79 0 -142 -36t-98 -100.5t-35 -148.5t35 -148.5t98 -100.5t142 -36q101 0 167 54t93 131h90
q-22 -71 -67.5 -132.5t-117 -99.5t-165.5 -38zM420 805q-22 0 -38.5 16.5t-16.5 38.5q0 23 16.5 39t38.5 16q23 0 39 -16t16 -39q0 -22 -16 -38.5t-39 -16.5z" />
    <glyph glyph-name="Ccaron" unicode="&#x10c;" horiz-adv-x="800" 
d="M410 -20q-104 0 -187 47.5t-130.5 132t-47.5 190.5t47.5 190.5t130.5 132t187 47.5q95 0 166.5 -36t115 -93.5t63.5 -125.5h-90q-27 71 -92 120.5t-163 49.5q-79 0 -142 -36t-98 -100.5t-35 -148.5t35 -148.5t98 -100.5t142 -36q101 0 167 54t93 131h90
q-22 -71 -67.5 -132.5t-117 -99.5t-165.5 -38zM360 790l-110 144v1h85l65 -90h10l65 90h85v-1l-110 -144h-90z" />
    <glyph glyph-name="Ccedilla" unicode="&#xc7;" horiz-adv-x="800" 
d="M385 -240q-17 0 -31.5 3t-25.5 7.5t-18 9.5v55q12 -8 31 -14t44 -6t37.5 11.5t12.5 28.5q0 20 -13 30t-42 10h-40l37 86q-96 7 -171.5 56.5t-118 131t-42.5 181.5q0 106 47.5 190.5t130.5 132t187 47.5q95 0 166.5 -36t115 -93.5t63.5 -125.5h-90q-27 71 -92 120.5
t-163 49.5q-79 0 -142 -36t-98 -100.5t-35 -148.5t35 -148.5t98 -100.5t142 -36q101 0 167 54t93 131h90q-21 -68 -64 -127t-110 -98.5t-155 -43.5l-16 -36q33 -6 56.5 -28.5t23.5 -61.5t-31 -67t-79 -28z" />
    <glyph glyph-name="Dcaron" unicode="&#x10e;" horiz-adv-x="720" 
d="M80 0v700h230q104 0 187.5 -46t130.5 -126t47 -178t-47 -178t-130.5 -126t-187.5 -46h-230zM310 85q81 0 143.5 34t97 94t34.5 137t-34.5 137t-97 94t-143.5 34h-140v-530h140zM280 790l-110 144v1h85l65 -90h10l65 90h85v-1l-110 -144h-90z" />
    <glyph glyph-name="Dcroat" unicode="&#x110;" horiz-adv-x="730" 
d="M90 0v305h-70v90h70v305h230q104 0 187.5 -46t130.5 -126t47 -178t-47 -178t-130.5 -126t-187.5 -46h-230zM320 85q81 0 143.5 34t97 94t34.5 137t-34.5 137t-97 94t-143.5 34h-140v-220h180v-90h-180v-220h140z" />
    <glyph glyph-name="Egrave" unicode="&#xc8;" 
d="M80 0v700h490v-85h-400v-220h325v-85h-325v-225h400v-85h-490zM305 790l-115 144v1h100l85 -145h-70z" />
    <glyph glyph-name="Eacute" unicode="&#xc9;" 
d="M80 0v700h490v-85h-400v-220h325v-85h-325v-225h400v-85h-490zM285 790l85 145h100v-1l-115 -144h-70z" />
    <glyph glyph-name="Ecircumflex" unicode="&#xca;" 
d="M80 0v700h490v-85h-400v-220h325v-85h-325v-225h400v-85h-490zM175 790v1l110 144h90l110 -144v-1h-85l-65 90h-10l-65 -90h-85z" />
    <glyph glyph-name="Edieresis" unicode="&#xcb;" 
d="M80 0v700h490v-85h-400v-220h325v-85h-325v-225h400v-85h-490zM240 805q-22 0 -38.5 16.5t-16.5 38.5q0 23 16.5 39t38.5 16q23 0 39 -16t16 -39q0 -22 -16 -38.5t-39 -16.5zM420 805q-22 0 -38.5 16.5t-16.5 38.5q0 23 16.5 39t38.5 16q23 0 39 -16t16 -39
q0 -22 -16 -38.5t-39 -16.5z" />
    <glyph glyph-name="Emacron" unicode="&#x112;" 
d="M80 0v700h490v-85h-400v-220h325v-85h-325v-225h400v-85h-490zM190 830v70h270v-70h-270z" />
    <glyph glyph-name="Ebreve" unicode="&#x114;" 
d="M80 0v700h490v-85h-400v-220h325v-85h-325v-225h400v-85h-490zM330 800q-66 0 -105.5 35.5t-39.5 89.5h70q0 -31 19 -48t56 -17t56 17t19 48h70q0 -54 -39.5 -89.5t-105.5 -35.5z" />
    <glyph glyph-name="Edotaccent" unicode="&#x116;" 
d="M80 0v700h490v-85h-400v-220h325v-85h-325v-225h400v-85h-490zM330 805q-22 0 -38.5 16.5t-16.5 38.5q0 23 16.5 39t38.5 16q23 0 39 -16t16 -39q0 -22 -16 -38.5t-39 -16.5z" />
    <glyph glyph-name="Eogonek" unicode="&#x118;" 
d="M495 -230q-48 0 -76.5 26.5t-28.5 68.5q0 28 16.5 54t42.5 46.5t56 34.5h-425v700h490v-85h-400v-220h325v-85h-325v-225h400v-85q-50 -25 -85 -59t-35 -71q0 -19 14 -32t36 -13q33 0 70 20v-55q-13 -8 -33 -14t-42 -6z" />
    <glyph glyph-name="Ecaron" unicode="&#x11a;" 
d="M80 0v700h490v-85h-400v-220h325v-85h-325v-225h400v-85h-490zM280 790l-110 144v1h85l65 -90h10l65 90h85v-1l-110 -144h-90z" />
    <glyph glyph-name="Eth" unicode="&#xd0;" horiz-adv-x="730" 
d="M90 0v305h-70v90h70v305h230q104 0 187.5 -46t130.5 -126t47 -178t-47 -178t-130.5 -126t-187.5 -46h-230zM320 85q81 0 143.5 34t97 94t34.5 137t-34.5 137t-97 94t-143.5 34h-140v-220h180v-90h-180v-220h140z" />
    <glyph glyph-name="Gcircumflex" unicode="&#x11c;" horiz-adv-x="860" 
d="M410 -20q-104 0 -187 47.5t-130.5 132t-47.5 190.5t47.5 190.5t130.5 132t187 47.5q94 0 164.5 -35.5t115 -92t65.5 -122.5h-90q-29 69 -94 117t-161 48q-79 0 -142 -36t-98 -100.5t-35 -148.5t35 -148.5t98 -100.5t142 -36q70 0 126.5 29t92.5 78.5t46 107.5h-135v85
h310v-85h-85q-20 -89 -68 -156.5t-121 -105.5t-166 -38zM265 790v1l110 144h90l110 -144v-1h-85l-65 90h-10l-65 -90h-85z" />
    <glyph glyph-name="Gbreve" unicode="&#x11e;" horiz-adv-x="860" 
d="M410 -20q-104 0 -187 47.5t-130.5 132t-47.5 190.5t47.5 190.5t130.5 132t187 47.5q94 0 164.5 -35.5t115 -92t65.5 -122.5h-90q-29 69 -94 117t-161 48q-79 0 -142 -36t-98 -100.5t-35 -148.5t35 -148.5t98 -100.5t142 -36q70 0 126.5 29t92.5 78.5t46 107.5h-135v85
h310v-85h-85q-20 -89 -68 -156.5t-121 -105.5t-166 -38zM420 800q-66 0 -105.5 35.5t-39.5 89.5h70q0 -31 19 -48t56 -17t56 17t19 48h70q0 -54 -39.5 -89.5t-105.5 -35.5z" />
    <glyph glyph-name="Gdotaccent" unicode="&#x120;" horiz-adv-x="860" 
d="M410 -20q-104 0 -187 47.5t-130.5 132t-47.5 190.5t47.5 190.5t130.5 132t187 47.5q94 0 164.5 -35.5t115 -92t65.5 -122.5h-90q-29 69 -94 117t-161 48q-79 0 -142 -36t-98 -100.5t-35 -148.5t35 -148.5t98 -100.5t142 -36q70 0 126.5 29t92.5 78.5t46 107.5h-135v85
h310v-85h-85q-20 -89 -68 -156.5t-121 -105.5t-166 -38zM420 805q-22 0 -38.5 16.5t-16.5 38.5q0 23 16.5 39t38.5 16q23 0 39 -16t16 -39q0 -22 -16 -38.5t-39 -16.5z" />
    <glyph glyph-name="uni0122" unicode="&#x122;" horiz-adv-x="860" 
d="M410 -20q-104 0 -187 47.5t-130.5 132t-47.5 190.5t47.5 190.5t130.5 132t187 47.5q94 0 164.5 -35.5t115 -92t65.5 -122.5h-90q-29 69 -94 117t-161 48q-79 0 -142 -36t-98 -100.5t-35 -148.5t35 -148.5t98 -100.5t142 -36q70 0 126.5 29t92.5 78.5t46 107.5h-135v85
h310v-85h-85q-20 -89 -68 -156.5t-121 -105.5t-166 -38zM355 -260q29 4 44.5 17.5t15.5 32.5q0 5 -1.5 9t-3.5 6q-6 -5 -15 -5q-19 0 -32 14t-13 36q0 20 15 35t40 15q27 0 43.5 -20t16.5 -60q0 -37 -13 -63t-37.5 -40t-59.5 -17v40z" />
    <glyph glyph-name="uni01F4" unicode="&#x1f4;" horiz-adv-x="860" 
d="M410 -20q-104 0 -187 47.5t-130.5 132t-47.5 190.5t47.5 190.5t130.5 132t187 47.5q94 0 164.5 -35.5t115 -92t65.5 -122.5h-90q-29 69 -94 117t-161 48q-79 0 -142 -36t-98 -100.5t-35 -148.5t35 -148.5t98 -100.5t142 -36q70 0 126.5 29t92.5 78.5t46 107.5h-135v85
h310v-85h-85q-20 -89 -68 -156.5t-121 -105.5t-166 -38zM385 790l85 145h100v-1l-115 -144h-70z" />
    <glyph glyph-name="Hcircumflex" unicode="&#x124;" horiz-adv-x="715" 
d="M80 0v700h90v-305h375v305h90v-700h-90v310h-375v-310h-90zM200 790v1l110 144h90l110 -144v-1h-85l-65 90h-10l-65 -90h-85z" />
    <glyph glyph-name="Hbar" unicode="&#x126;" horiz-adv-x="735" 
d="M90 0v530h-75v70h75v100h90v-100h375v100h90v-100h75v-70h-75v-530h-90v310h-375v-310h-90zM180 395h375v135h-375v-135z" />
    <glyph glyph-name="Igrave" unicode="&#xcc;" horiz-adv-x="250" 
d="M80 0v700h90v-700h-90zM90 790l-115 144v1h100l85 -145h-70z" />
    <glyph glyph-name="Iacute" unicode="&#xcd;" horiz-adv-x="250" 
d="M80 0v700h90v-700h-90zM90 790l85 145h100v-1l-115 -144h-70z" />
    <glyph glyph-name="Icircumflex" unicode="&#xce;" horiz-adv-x="250" 
d="M80 0v700h90v-700h-90zM-30 790v1l110 144h90l110 -144v-1h-85l-65 90h-10l-65 -90h-85z" />
    <glyph glyph-name="Idieresis" unicode="&#xcf;" horiz-adv-x="250" 
d="M80 0v700h90v-700h-90zM35 805q-22 0 -38.5 16.5t-16.5 38.5q0 23 16.5 39t38.5 16q23 0 39 -16t16 -39q0 -22 -16 -38.5t-39 -16.5zM215 805q-22 0 -38.5 16.5t-16.5 38.5q0 23 16.5 39t38.5 16q23 0 39 -16t16 -39q0 -22 -16 -38.5t-39 -16.5z" />
    <glyph glyph-name="Imacron" unicode="&#x12a;" horiz-adv-x="250" 
d="M80 0v700h90v-700h-90zM-10 830v70h270v-70h-270z" />
    <glyph glyph-name="Ibreve" unicode="&#x12c;" horiz-adv-x="250" 
d="M80 0v700h90v-700h-90zM125 800q-66 0 -105.5 35.5t-39.5 89.5h70q0 -31 19 -48t56 -17t56 17t19 48h70q0 -54 -39.5 -89.5t-105.5 -35.5z" />
    <glyph glyph-name="Iogonek" unicode="&#x12e;" horiz-adv-x="250" 
d="M95 -230q-48 0 -76.5 26.5t-28.5 68.5q0 28 16.5 54t42.5 46.5t56 34.5h-25v700h90v-700q-50 -25 -85 -59t-35 -71q0 -19 14 -32t36 -13q33 0 70 20v-55q-13 -8 -33 -14t-42 -6z" />
    <glyph glyph-name="Idotaccent" unicode="&#x130;" horiz-adv-x="250" 
d="M80 0v700h90v-700h-90zM125 805q-22 0 -38.5 16.5t-16.5 38.5q0 23 16.5 39t38.5 16q23 0 39 -16t16 -39q0 -22 -16 -38.5t-39 -16.5z" />
    <glyph glyph-name="uni0132" unicode="&#x132;" horiz-adv-x="800" 
d="M80 0v700h90v-700h-90zM485 -25q-96 0 -155 52.5t-80 127.5l90 20q13 -48 49.5 -81.5t95.5 -33.5q68 0 106.5 41t38.5 119v480h90v-480q0 -77 -28.5 -132t-81.5 -84t-125 -29z" />
    <glyph glyph-name="Iacute_J.loclNLD" unicode="&#xe0b9;" horiz-adv-x="800" 
d="M90 790l85 145h100v-1l-115 -144h-70zM640 790l85 145h100v-1l-115 -144h-70zM80 0v700h90v-700h-90zM485 -25q-96 0 -155 52.5t-80 127.5l90 20q13 -48 49.5 -81.5t95.5 -33.5q68 0 106.5 41t38.5 119v480h90v-480q0 -77 -28.5 -132t-81.5 -84t-125 -29z" />
    <glyph glyph-name="Jcircumflex" unicode="&#x134;" horiz-adv-x="550" 
d="M235 -25q-96 0 -155 52.5t-80 127.5l90 20q13 -48 49.5 -81.5t95.5 -33.5q68 0 106.5 41t38.5 119v480h90v-480q0 -77 -28.5 -132t-81.5 -84t-125 -29zM270 790v1l110 144h90l110 -144v-1h-85l-65 90h-10l-65 -90h-85z" />
    <glyph glyph-name="uni0136" unicode="&#x136;" horiz-adv-x="650" 
d="M80 0v700h90v-305h135l220 305h105l-245 -340l255 -360h-110l-220 310h-140v-310h-90zM285 -260q29 4 44.5 17.5t15.5 32.5q0 5 -1.5 9t-3.5 6q-6 -5 -15 -5q-19 0 -32 14t-13 36q0 20 15 35t40 15q27 0 43.5 -20t16.5 -60q0 -37 -13 -63t-37.5 -40t-59.5 -17v40z" />
    <glyph glyph-name="Lacute" unicode="&#x139;" horiz-adv-x="540" 
d="M80 0v700h90v-615h365v-85h-455zM90 790l85 145h100v-1l-115 -144h-70z" />
    <glyph glyph-name="uni013B" unicode="&#x13b;" horiz-adv-x="540" 
d="M80 0v700h90v-615h365v-85h-455zM265 -260q29 4 44.5 17.5t15.5 32.5q0 5 -1.5 9t-3.5 6q-6 -5 -15 -5q-19 0 -32 14t-13 36q0 20 15 35t40 15q27 0 43.5 -20t16.5 -60q0 -37 -13 -63t-37.5 -40t-59.5 -17v40z" />
    <glyph glyph-name="Lcaron" unicode="&#x13d;" horiz-adv-x="540" 
d="M80 0v700h90v-615h365v-85h-455zM260 550q29 4 44.5 17.5t15.5 32.5q0 5 -1.5 9t-3.5 6q-5 -5 -15 -5q-19 0 -32 14t-13 36q0 20 15 35t40 15q27 0 43.5 -20t16.5 -60q0 -37 -13 -63t-37.5 -40t-59.5 -17v40z" />
    <glyph glyph-name="Ldot" unicode="&#x13f;" horiz-adv-x="540" 
d="M80 0v700h90v-615h365v-85h-455zM390 320q-22 0 -38.5 16.5t-16.5 38.5q0 23 16.5 39t38.5 16q23 0 39 -16t16 -39q0 -22 -16 -38.5t-39 -16.5z" />
    <glyph glyph-name="Lslash" unicode="&#x141;" horiz-adv-x="545" 
d="M85 0v270l-70 -35v90l70 35v340h90v-300l150 70v-90l-150 -70v-225h365v-85h-455z" />
    <glyph glyph-name="Ntilde" unicode="&#xd1;" horiz-adv-x="725" 
d="M80 0v700h130l344 -590h2l-1 10v580h90v-700h-130l-344 590h-2l1 -10v-579zM435 800q-27 0 -45.5 9.5t-38.5 26.5q-14 12 -24 18t-22 6q-15 0 -22.5 -7.5t-7.5 -22.5v-25h-65v28q0 39 27 65.5t68 26.5q27 0 45.5 -9.5t38.5 -26.5q14 -12 24 -18t22 -6q15 0 22.5 7.5
t7.5 22.5v25h65v-28q0 -39 -27 -65.5t-68 -26.5z" />
    <glyph glyph-name="Nacute" unicode="&#x143;" horiz-adv-x="725" 
d="M80 0v700h130l344 -590h2l-1 10v580h90v-700h-130l-344 590h-2l1 -10v-579zM320 790l85 145h100v-1l-115 -144h-70z" />
    <glyph glyph-name="uni0145" unicode="&#x145;" horiz-adv-x="725" 
d="M80 0v700h130l344 -590h2l-1 10v580h90v-700h-130l-344 590h-2l1 -10v-579zM305 -260q29 4 44.5 17.5t15.5 32.5q0 5 -1.5 9t-3.5 6q-6 -5 -15 -5q-19 0 -32 14t-13 36q0 20 15 35t40 15q27 0 43.5 -20t16.5 -60q0 -37 -13 -63t-37.5 -40t-59.5 -17v40z" />
    <glyph glyph-name="Ncaron" unicode="&#x147;" horiz-adv-x="725" 
d="M80 0v700h130l344 -590h2l-1 10v580h90v-700h-130l-344 590h-2l1 -10v-579zM330 790l-110 144v1h85l65 -90h10l65 90h85v-1l-110 -144h-90z" />
    <glyph glyph-name="Eng" unicode="&#x14a;" horiz-adv-x="725" 
d="M430 -260q-83 0 -136.5 48t-73.5 117l86 25q12 -44 43.5 -74.5t80.5 -30.5q57 0 91 37t34 103v35h-40l-344 590h-2l1 -10v-580h-90v700h130l344 -590h2l-1 10v580h90v-735q0 -69 -26.5 -120t-75 -78t-113.5 -27z" />
    <glyph glyph-name="Ograve" unicode="&#xd2;" horiz-adv-x="820" 
d="M410 -20q-104 0 -187 47.5t-130.5 132t-47.5 190.5t47.5 190.5t130.5 132t187 47.5t187 -47.5t130.5 -132t47.5 -190.5t-47.5 -190.5t-130.5 -132t-187 -47.5zM410 65q79 0 142 36t98 100.5t35 148.5t-35 148.5t-98 100.5t-142 36t-142 -36t-98 -100.5t-35 -148.5
t35 -148.5t98 -100.5t142 -36zM380 790l-115 144v1h100l85 -145h-70z" />
    <glyph glyph-name="Oacute" unicode="&#xd3;" horiz-adv-x="820" 
d="M410 -20q-104 0 -187 47.5t-130.5 132t-47.5 190.5t47.5 190.5t130.5 132t187 47.5t187 -47.5t130.5 -132t47.5 -190.5t-47.5 -190.5t-130.5 -132t-187 -47.5zM410 65q79 0 142 36t98 100.5t35 148.5t-35 148.5t-98 100.5t-142 36t-142 -36t-98 -100.5t-35 -148.5
t35 -148.5t98 -100.5t142 -36zM375 790l85 145h100v-1l-115 -144h-70z" />
    <glyph glyph-name="Ocircumflex" unicode="&#xd4;" horiz-adv-x="820" 
d="M410 -20q-104 0 -187 47.5t-130.5 132t-47.5 190.5t47.5 190.5t130.5 132t187 47.5t187 -47.5t130.5 -132t47.5 -190.5t-47.5 -190.5t-130.5 -132t-187 -47.5zM410 65q79 0 142 36t98 100.5t35 148.5t-35 148.5t-98 100.5t-142 36t-142 -36t-98 -100.5t-35 -148.5
t35 -148.5t98 -100.5t142 -36zM255 790v1l110 144h90l110 -144v-1h-85l-65 90h-10l-65 -90h-85z" />
    <glyph glyph-name="Otilde" unicode="&#xd5;" horiz-adv-x="820" 
d="M410 -20q-104 0 -187 47.5t-130.5 132t-47.5 190.5t47.5 190.5t130.5 132t187 47.5t187 -47.5t130.5 -132t47.5 -190.5t-47.5 -190.5t-130.5 -132t-187 -47.5zM410 65q79 0 142 36t98 100.5t35 148.5t-35 148.5t-98 100.5t-142 36t-142 -36t-98 -100.5t-35 -148.5
t35 -148.5t98 -100.5t142 -36zM475 800q-27 0 -45.5 9.5t-38.5 26.5q-14 12 -24 18t-22 6q-15 0 -22.5 -7.5t-7.5 -22.5v-25h-65v28q0 39 27 65.5t68 26.5q27 0 45.5 -9.5t38.5 -26.5q14 -12 24 -18t22 -6q15 0 22.5 7.5t7.5 22.5v25h65v-28q0 -39 -27 -65.5t-68 -26.5z" />
    <glyph glyph-name="Odieresis" unicode="&#xd6;" horiz-adv-x="820" 
d="M410 -20q-104 0 -187 47.5t-130.5 132t-47.5 190.5t47.5 190.5t130.5 132t187 47.5t187 -47.5t130.5 -132t47.5 -190.5t-47.5 -190.5t-130.5 -132t-187 -47.5zM410 65q79 0 142 36t98 100.5t35 148.5t-35 148.5t-98 100.5t-142 36t-142 -36t-98 -100.5t-35 -148.5
t35 -148.5t98 -100.5t142 -36zM325 805q-22 0 -38.5 16.5t-16.5 38.5q0 23 16.5 39t38.5 16q23 0 39 -16t16 -39q0 -22 -16 -38.5t-39 -16.5zM505 805q-22 0 -38.5 16.5t-16.5 38.5q0 23 16.5 39t38.5 16q23 0 39 -16t16 -39q0 -22 -16 -38.5t-39 -16.5z" />
    <glyph glyph-name="Omacron" unicode="&#x14c;" horiz-adv-x="820" 
d="M410 -20q-104 0 -187 47.5t-130.5 132t-47.5 190.5t47.5 190.5t130.5 132t187 47.5t187 -47.5t130.5 -132t47.5 -190.5t-47.5 -190.5t-130.5 -132t-187 -47.5zM410 65q79 0 142 36t98 100.5t35 148.5t-35 148.5t-98 100.5t-142 36t-142 -36t-98 -100.5t-35 -148.5
t35 -148.5t98 -100.5t142 -36zM275 830v70h270v-70h-270z" />
    <glyph glyph-name="Obreve" unicode="&#x14e;" horiz-adv-x="820" 
d="M410 -20q-104 0 -187 47.5t-130.5 132t-47.5 190.5t47.5 190.5t130.5 132t187 47.5t187 -47.5t130.5 -132t47.5 -190.5t-47.5 -190.5t-130.5 -132t-187 -47.5zM410 65q79 0 142 36t98 100.5t35 148.5t-35 148.5t-98 100.5t-142 36t-142 -36t-98 -100.5t-35 -148.5
t35 -148.5t98 -100.5t142 -36zM410 800q-66 0 -105.5 35.5t-39.5 89.5h70q0 -31 19 -48t56 -17t56 17t19 48h70q0 -54 -39.5 -89.5t-105.5 -35.5z" />
    <glyph glyph-name="Ohungarumlaut" unicode="&#x150;" horiz-adv-x="820" 
d="M410 -20q-104 0 -187 47.5t-130.5 132t-47.5 190.5t47.5 190.5t130.5 132t187 47.5t187 -47.5t130.5 -132t47.5 -190.5t-47.5 -190.5t-130.5 -132t-187 -47.5zM410 65q79 0 142 36t98 100.5t35 148.5t-35 148.5t-98 100.5t-142 36t-142 -36t-98 -100.5t-35 -148.5
t35 -148.5t98 -100.5t142 -36zM300 790l70 145h90v-1l-100 -144h-60zM450 790l70 145h90v-1l-100 -144h-60z" />
    <glyph glyph-name="OE" unicode="&#x152;" horiz-adv-x="1180" 
d="M400 -20q-99 0 -180 47.5t-128 132t-47 190.5t47 190.5t128 132t180 47.5q88 0 157 -38t108 -92v110h475v-85h-385v-220h310v-85h-310v-225h385v-85h-475v110q-39 -54 -108 -92t-157 -38zM400 65q75 0 135.5 36t95 101t34.5 148t-34.5 148t-95 101t-135.5 36t-135.5 -36
t-95 -101t-34.5 -148t34.5 -148t95 -101t135.5 -36z" />
    <glyph glyph-name="Oslash" unicode="&#xd8;" horiz-adv-x="820" 
d="M410 -20q-82 0 -151.5 29.5t-118.5 83.5l-125 -98v90l83 65q-26 43 -39.5 93.5t-13.5 106.5q0 106 47.5 190.5t130.5 132t187 47.5q81 0 150.5 -30t119.5 -84l125 99v-90l-83 -65q26 -43 39.5 -93.5t13.5 -106.5q0 -106 -47.5 -190.5t-130.5 -132t-187 -47.5zM410 65
q79 0 142 36t98 100.5t35 148.5q0 40 -8.5 76.5t-24.5 68.5l-443 -348q37 -39 88.5 -60.5t112.5 -21.5zM611 552q-37 40 -88.5 61.5t-112.5 21.5q-79 0 -142 -36t-98 -100.5t-35 -148.5q0 -41 8.5 -77.5t24.5 -67.5z" />
    <glyph glyph-name="uni01FE" unicode="&#x1fe;" horiz-adv-x="820" 
d="M410 -20q-82 0 -151.5 29.5t-118.5 83.5l-125 -98v90l83 65q-26 43 -39.5 93.5t-13.5 106.5q0 106 47.5 190.5t130.5 132t187 47.5q81 0 150.5 -30t119.5 -84l125 99v-90l-83 -65q26 -43 39.5 -93.5t13.5 -106.5q0 -106 -47.5 -190.5t-130.5 -132t-187 -47.5zM410 65
q79 0 142 36t98 100.5t35 148.5q0 40 -8.5 76.5t-24.5 68.5l-443 -348q37 -39 88.5 -60.5t112.5 -21.5zM611 552q-37 40 -88.5 61.5t-112.5 21.5q-79 0 -142 -36t-98 -100.5t-35 -148.5q0 -41 8.5 -77.5t24.5 -67.5zM375 790l85 145h100v-1l-115 -144h-70z" />
    <glyph glyph-name="Thorn" unicode="&#xde;" horiz-adv-x="700" 
d="M80 0v700h90v-135h255q76 0 131.5 -27t84.5 -75t29 -108t-29.5 -108t-85 -75t-131.5 -27h-254v-145h-90zM424 230q77 0 116.5 33.5t39.5 91.5t-39 91.5t-116 33.5h-255v-250h254z" />
    <glyph glyph-name="Racute" unicode="&#x154;" horiz-adv-x="685" 
d="M80 0v700h300q78 0 136 -28.5t88.5 -78.5t30.5 -113q0 -78 -49 -134.5t-136 -75.5l180 -270h-105l-170 260h-185v-260h-90zM380 345q80 0 122.5 36.5t42.5 98.5t-42.5 98.5t-122.5 36.5h-210v-270h210zM280 790l85 145h100v-1l-115 -144h-70z" />
    <glyph glyph-name="uni0156" unicode="&#x156;" horiz-adv-x="685" 
d="M80 0v700h300q78 0 136 -28.5t88.5 -78.5t30.5 -113q0 -78 -49 -134.5t-136 -75.5l180 -270h-105l-170 260h-185v-260h-90zM380 345q80 0 122.5 36.5t42.5 98.5t-42.5 98.5t-122.5 36.5h-210v-270h210zM285 -260q29 4 44.5 17.5t15.5 32.5q0 5 -1.5 9t-3.5 6
q-6 -5 -15 -5q-19 0 -32 14t-13 36q0 20 15 35t40 15q27 0 43.5 -20t16.5 -60q0 -37 -13 -63t-37.5 -40t-59.5 -17v40z" />
    <glyph glyph-name="Rcaron" unicode="&#x158;" horiz-adv-x="685" 
d="M80 0v700h300q78 0 136 -28.5t88.5 -78.5t30.5 -113q0 -78 -49 -134.5t-136 -75.5l180 -270h-105l-170 260h-185v-260h-90zM380 345q80 0 122.5 36.5t42.5 98.5t-42.5 98.5t-122.5 36.5h-210v-270h210zM295 790l-110 144v1h85l65 -90h10l65 90h85v-1l-110 -144h-90z" />
    <glyph glyph-name="Sacute" unicode="&#x15a;" horiz-adv-x="640" 
d="M330 -20q-85 0 -146 31t-96 81t-48 108h90q16 -56 66.5 -95.5t133.5 -39.5q58 0 97.5 16t58.5 43t19 61q0 36 -24.5 59.5t-61 37.5t-100.5 32q-81 23 -130 43t-84 59.5t-35 103.5q0 53 30.5 99t87.5 73.5t132 27.5q79 0 136 -27.5t89.5 -71.5t44.5 -96h-90q-14 46 -59 78
t-121 32q-50 0 -86.5 -16t-55 -42t-18.5 -57q0 -35 24 -58t60.5 -37t99.5 -31q81 -23 131 -44t85 -61t35 -104q0 -56 -31.5 -102.5t-91.5 -74.5t-142 -28zM290 790l85 145h100v-1l-115 -144h-70z" />
    <glyph glyph-name="Scircumflex" unicode="&#x15c;" horiz-adv-x="640" 
d="M330 -20q-85 0 -146 31t-96 81t-48 108h90q16 -56 66.5 -95.5t133.5 -39.5q58 0 97.5 16t58.5 43t19 61q0 36 -24.5 59.5t-61 37.5t-100.5 32q-81 23 -130 43t-84 59.5t-35 103.5q0 53 30.5 99t87.5 73.5t132 27.5q79 0 136 -27.5t89.5 -71.5t44.5 -96h-90q-14 46 -59 78
t-121 32q-50 0 -86.5 -16t-55 -42t-18.5 -57q0 -35 24 -58t60.5 -37t99.5 -31q81 -23 131 -44t85 -61t35 -104q0 -56 -31.5 -102.5t-91.5 -74.5t-142 -28zM170 790v1l110 144h90l110 -144v-1h-85l-65 90h-10l-65 -90h-85z" />
    <glyph glyph-name="Scedilla" unicode="&#x15e;" horiz-adv-x="640" 
d="M310 -240q-17 0 -31.5 3t-25.5 7.5t-18 9.5v55q12 -8 31 -14t44 -6t37.5 11.5t12.5 28.5q0 20 -13 30t-42 10h-40l37 86q-113 8 -178.5 71t-83.5 148h90q16 -56 66.5 -95.5t133.5 -39.5q58 0 97.5 16t58.5 43t19 61q0 36 -24.5 59.5t-61 37.5t-100.5 32q-81 23 -130 43
t-84 59.5t-35 103.5q0 53 30.5 99t87.5 73.5t132 27.5q79 0 136 -27.5t89.5 -71.5t44.5 -96h-90q-14 46 -59 78t-121 32q-50 0 -86.5 -16t-55 -42t-18.5 -57q0 -35 24 -58t60.5 -37t99.5 -31q81 -23 131 -44t85 -61t35 -104q0 -53 -28 -98t-82 -73.5t-129 -32.5l-16 -36
q33 -6 56.5 -28.5t23.5 -61.5t-31 -67t-79 -28z" />
    <glyph glyph-name="Scaron" unicode="&#x160;" horiz-adv-x="640" 
d="M330 -20q-85 0 -146 31t-96 81t-48 108h90q16 -56 66.5 -95.5t133.5 -39.5q58 0 97.5 16t58.5 43t19 61q0 36 -24.5 59.5t-61 37.5t-100.5 32q-81 23 -130 43t-84 59.5t-35 103.5q0 53 30.5 99t87.5 73.5t132 27.5q79 0 136 -27.5t89.5 -71.5t44.5 -96h-90q-14 46 -59 78
t-121 32q-50 0 -86.5 -16t-55 -42t-18.5 -57q0 -35 24 -58t60.5 -37t99.5 -31q81 -23 131 -44t85 -61t35 -104q0 -56 -31.5 -102.5t-91.5 -74.5t-142 -28zM270 790l-110 144v1h85l65 -90h10l65 90h85v-1l-110 -144h-90z" />
    <glyph glyph-name="uni0218" unicode="&#x218;" horiz-adv-x="640" 
d="M330 -20q-85 0 -146 31t-96 81t-48 108h90q16 -56 66.5 -95.5t133.5 -39.5q58 0 97.5 16t58.5 43t19 61q0 36 -24.5 59.5t-61 37.5t-100.5 32q-81 23 -130 43t-84 59.5t-35 103.5q0 53 30.5 99t87.5 73.5t132 27.5q79 0 136 -27.5t89.5 -71.5t44.5 -96h-90q-14 46 -59 78
t-121 32q-50 0 -86.5 -16t-55 -42t-18.5 -57q0 -35 24 -58t60.5 -37t99.5 -31q81 -23 131 -44t85 -61t35 -104q0 -56 -31.5 -102.5t-91.5 -74.5t-142 -28zM265 -260q29 4 44.5 17.5t15.5 32.5q0 5 -1.5 9t-3.5 6q-6 -5 -15 -5q-19 0 -32 14t-13 36q0 20 15 35t40 15
q27 0 43.5 -20t16.5 -60q0 -37 -13 -63t-37.5 -40t-59.5 -17v40z" />
    <glyph glyph-name="uni0162" unicode="&#x162;" horiz-adv-x="590" 
d="M270 -240q-17 0 -31.5 3t-25.5 7.5t-18 9.5v55q12 -8 31 -14t44 -6t37.5 11.5t12.5 28.5q0 20 -13 30t-42 10h-40l45 105h-20v615h-240v85h570v-85h-240v-615h-15l-25 -55q33 -6 56.5 -28.5t23.5 -61.5t-31 -67t-79 -28z" />
    <glyph glyph-name="uni021A" unicode="&#x21a;" horiz-adv-x="590" 
d="M250 0v615h-240v85h570v-85h-240v-615h-90zM240 -260q29 4 44.5 17.5t15.5 32.5q0 5 -1.5 9t-3.5 6q-6 -5 -15 -5q-19 0 -32 14t-13 36q0 20 15 35t40 15q27 0 43.5 -20t16.5 -60q0 -37 -13 -63t-37.5 -40t-59.5 -17v40z" />
    <glyph glyph-name="Tcaron" unicode="&#x164;" horiz-adv-x="590" 
d="M250 0v615h-240v85h570v-85h-240v-615h-90zM250 790l-110 144v1h85l65 -90h10l65 90h85v-1l-110 -144h-90z" />
    <glyph glyph-name="Tbar" unicode="&#x166;" horiz-adv-x="590" 
d="M250 0v380h-170v70h170v165h-240v85h570v-85h-240v-165h170v-70h-170v-380h-90z" />
    <glyph glyph-name="Ugrave" unicode="&#xd9;" horiz-adv-x="700" 
d="M350 -20q-82 0 -144.5 35t-96.5 99.5t-34 150.5v435h90v-435q0 -93 50.5 -146.5t134.5 -53.5t134.5 53.5t50.5 146.5v435h90v-435q0 -86 -34 -150.5t-96.5 -99.5t-144.5 -35zM320 790l-115 144v1h100l85 -145h-70z" />
    <glyph glyph-name="Uacute" unicode="&#xda;" horiz-adv-x="700" 
d="M350 -20q-82 0 -144.5 35t-96.5 99.5t-34 150.5v435h90v-435q0 -93 50.5 -146.5t134.5 -53.5t134.5 53.5t50.5 146.5v435h90v-435q0 -86 -34 -150.5t-96.5 -99.5t-144.5 -35zM310 790l85 145h100v-1l-115 -144h-70z" />
    <glyph glyph-name="Ucircumflex" unicode="&#xdb;" horiz-adv-x="700" 
d="M350 -20q-82 0 -144.5 35t-96.5 99.5t-34 150.5v435h90v-435q0 -93 50.5 -146.5t134.5 -53.5t134.5 53.5t50.5 146.5v435h90v-435q0 -86 -34 -150.5t-96.5 -99.5t-144.5 -35zM195 790v1l110 144h90l110 -144v-1h-85l-65 90h-10l-65 -90h-85z" />
    <glyph glyph-name="Udieresis" unicode="&#xdc;" horiz-adv-x="700" 
d="M350 -20q-82 0 -144.5 35t-96.5 99.5t-34 150.5v435h90v-435q0 -93 50.5 -146.5t134.5 -53.5t134.5 53.5t50.5 146.5v435h90v-435q0 -86 -34 -150.5t-96.5 -99.5t-144.5 -35zM265 805q-22 0 -38.5 16.5t-16.5 38.5q0 23 16.5 39t38.5 16q23 0 39 -16t16 -39
q0 -22 -16 -38.5t-39 -16.5zM445 805q-22 0 -38.5 16.5t-16.5 38.5q0 23 16.5 39t38.5 16q23 0 39 -16t16 -39q0 -22 -16 -38.5t-39 -16.5z" />
    <glyph glyph-name="Umacron" unicode="&#x16a;" horiz-adv-x="700" 
d="M350 -20q-82 0 -144.5 35t-96.5 99.5t-34 150.5v435h90v-435q0 -93 50.5 -146.5t134.5 -53.5t134.5 53.5t50.5 146.5v435h90v-435q0 -86 -34 -150.5t-96.5 -99.5t-144.5 -35zM220 830v70h270v-70h-270z" />
    <glyph glyph-name="Ubreve" unicode="&#x16c;" horiz-adv-x="700" 
d="M350 -20q-82 0 -144.5 35t-96.5 99.5t-34 150.5v435h90v-435q0 -93 50.5 -146.5t134.5 -53.5t134.5 53.5t50.5 146.5v435h90v-435q0 -86 -34 -150.5t-96.5 -99.5t-144.5 -35zM350 800q-66 0 -105.5 35.5t-39.5 89.5h70q0 -31 19 -48t56 -17t56 17t19 48h70
q0 -54 -39.5 -89.5t-105.5 -35.5z" />
    <glyph glyph-name="Uring" unicode="&#x16e;" horiz-adv-x="700" 
d="M350 -20q-82 0 -144.5 35t-96.5 99.5t-34 150.5v435h90v-435q0 -93 50.5 -146.5t134.5 -53.5t134.5 53.5t50.5 146.5v435h90v-435q0 -86 -34 -150.5t-96.5 -99.5t-144.5 -35zM350 755q-30 0 -54 13.5t-37.5 37.5t-13.5 54t13.5 54t37.5 37.5t54 13.5t54 -13.5t37.5 -37.5
t13.5 -54t-13.5 -54t-37.5 -37.5t-54 -13.5zM350 805q25 0 40 16t15 39t-15 39t-40 16t-40 -16t-15 -39t15 -39t40 -16z" />
    <glyph glyph-name="Uhungarumlaut" unicode="&#x170;" horiz-adv-x="700" 
d="M350 -20q-82 0 -144.5 35t-96.5 99.5t-34 150.5v435h90v-435q0 -93 50.5 -146.5t134.5 -53.5t134.5 53.5t50.5 146.5v435h90v-435q0 -86 -34 -150.5t-96.5 -99.5t-144.5 -35zM240 790l70 145h90v-1l-100 -144h-60zM390 790l70 145h90v-1l-100 -144h-60z" />
    <glyph glyph-name="Uogonek" unicode="&#x172;" horiz-adv-x="700" 
d="M375 -230q-48 0 -76.5 26.5t-28.5 68.5q0 32 23.5 62.5t57.5 52.5h-1q-82 0 -144.5 35t-96.5 99.5t-34 150.5v435h90v-435q0 -93 50.5 -146.5t134.5 -53.5t134.5 53.5t50.5 146.5v435h90v-435q0 -108 -52 -180t-143 -95v0v0q-10 -5 -33.5 -22t-45 -43t-21.5 -55
q0 -19 14 -32t36 -13q33 0 70 20v-55q-13 -8 -33 -14t-42 -6z" />
    <glyph glyph-name="uni0244" unicode="&#x244;" horiz-adv-x="720" 
d="M360 -20q-82 0 -144.5 35t-96.5 99.5t-34 150.5v125h-75v70h75v240h90v-240h370v240h90v-240h75v-70h-75v-125q0 -86 -34 -150.5t-96.5 -99.5t-144.5 -35zM360 65q84 0 134.5 53.5t50.5 146.5v125h-370v-125q0 -93 50.5 -146.5t134.5 -53.5z" />
    <glyph glyph-name="Wcircumflex" unicode="&#x174;" horiz-adv-x="965" 
d="M185 0l-155 700h95l130 -615h25l130 615h145l130 -615h25l130 615h95l-155 -700h-160l-125 615h-25l-125 -615h-160zM325 790v1l110 144h90l110 -144v-1h-85l-65 90h-10l-65 -90h-85z" />
    <glyph glyph-name="Wgrave" unicode="&#x1e80;" horiz-adv-x="965" 
d="M185 0l-155 700h95l130 -615h25l130 615h145l130 -615h25l130 615h95l-155 -700h-160l-125 615h-25l-125 -615h-160zM445 790l-115 144v1h100l85 -145h-70z" />
    <glyph glyph-name="Wacute" unicode="&#x1e82;" horiz-adv-x="965" 
d="M185 0l-155 700h95l130 -615h25l130 615h145l130 -615h25l130 615h95l-155 -700h-160l-125 615h-25l-125 -615h-160zM450 790l85 145h100v-1l-115 -144h-70z" />
    <glyph glyph-name="Wdieresis" unicode="&#x1e84;" horiz-adv-x="965" 
d="M185 0l-155 700h95l130 -615h25l130 615h145l130 -615h25l130 615h95l-155 -700h-160l-125 615h-25l-125 -615h-160zM390 805q-22 0 -38.5 16.5t-16.5 38.5q0 23 16.5 39t38.5 16q23 0 39 -16t16 -39q0 -22 -16 -38.5t-39 -16.5zM570 805q-22 0 -38.5 16.5t-16.5 38.5
q0 23 16.5 39t38.5 16q23 0 39 -16t16 -39q0 -22 -16 -38.5t-39 -16.5z" />
    <glyph glyph-name="Yacute" unicode="&#xdd;" horiz-adv-x="640" 
d="M275 0v255l-270 445h105l205 -340h10l205 340h105l-270 -445v-255h-90zM290 790l85 145h100v-1l-115 -144h-70z" />
    <glyph glyph-name="Ycircumflex" unicode="&#x176;" horiz-adv-x="640" 
d="M275 0v255l-270 445h105l205 -340h10l205 340h105l-270 -445v-255h-90zM165 790v1l110 144h90l110 -144v-1h-85l-65 90h-10l-65 -90h-85z" />
    <glyph glyph-name="Ydieresis" unicode="&#x178;" horiz-adv-x="640" 
d="M275 0v255l-270 445h105l205 -340h10l205 340h105l-270 -445v-255h-90zM230 805q-22 0 -38.5 16.5t-16.5 38.5q0 23 16.5 39t38.5 16q23 0 39 -16t16 -39q0 -22 -16 -38.5t-39 -16.5zM410 805q-22 0 -38.5 16.5t-16.5 38.5q0 23 16.5 39t38.5 16q23 0 39 -16t16 -39
q0 -22 -16 -38.5t-39 -16.5z" />
    <glyph glyph-name="Ygrave" unicode="&#x1ef2;" horiz-adv-x="640" 
d="M275 0v255l-270 445h105l205 -340h10l205 340h105l-270 -445v-255h-90zM280 790l-115 144v1h100l85 -145h-70z" />
    <glyph glyph-name="uni0232" unicode="&#x232;" horiz-adv-x="640" 
d="M275 0v255l-270 445h105l205 -340h10l205 340h105l-270 -445v-255h-90zM185 830v70h270v-70h-270z" />
    <glyph glyph-name="Zacute" unicode="&#x179;" horiz-adv-x="605" 
d="M30 0v85l425 525v5h-410v85h525v-85l-425 -525v-5h430v-85h-545zM260 790l85 145h100v-1l-115 -144h-70z" />
    <glyph glyph-name="Zdotaccent" unicode="&#x17b;" horiz-adv-x="605" 
d="M30 0v85l425 525v5h-410v85h525v-85l-425 -525v-5h430v-85h-545zM305 805q-22 0 -38.5 16.5t-16.5 38.5q0 23 16.5 39t38.5 16q23 0 39 -16t16 -39q0 -22 -16 -38.5t-39 -16.5z" />
    <glyph glyph-name="Zcaron" unicode="&#x17d;" horiz-adv-x="605" 
d="M30 0v85l425 525v5h-410v85h525v-85l-425 -525v-5h430v-85h-545zM260 790l-110 144v1h85l65 -90h10l65 90h85v-1l-110 -144h-90z" />
    <glyph glyph-name="uni018F" unicode="&#x18f;" horiz-adv-x="820" 
d="M410 -20q-101 0 -180.5 45.5t-124.5 124t-45 175.5v65h622q-8 76 -46 131.5t-97 84.5t-129 29q-86 0 -149 -39.5t-101 -115.5h-90q25 73 73 127t116 83.5t151 29.5q104 0 187 -47.5t130.5 -132t47.5 -190.5t-47.5 -190.5t-130.5 -132t-187 -47.5zM405 65q74 0 134.5 30.5
t97.5 86t45 128.5h-532q5 -72 39 -127.5t90.5 -86.5t125.5 -31z" />
    <glyph glyph-name="agrave" unicode="&#xe0;" 
d="M280 -10q-65 0 -120 34t-87.5 93.5t-32.5 132.5t32.5 132.5t87.5 93.5t120 34q58 0 97.5 -20t60.5 -43.5t21 -27.5h1v81h80v-500h-80v80h-1q0 -4 -21 -27t-60.5 -43t-97.5 -20zM290 65q47 0 86 23.5t61.5 65.5t22.5 96t-22.5 96t-61.5 65.5t-86 23.5t-86 -23.5
t-61.5 -65.5t-22.5 -96t22.5 -96t61.5 -65.5t86 -23.5zM270 605l-115 144v1h100l85 -145h-70z" />
    <glyph glyph-name="aacute" unicode="&#xe1;" 
d="M280 -10q-65 0 -120 34t-87.5 93.5t-32.5 132.5t32.5 132.5t87.5 93.5t120 34q58 0 97.5 -20t60.5 -43.5t21 -27.5h1v81h80v-500h-80v80h-1q0 -4 -21 -27t-60.5 -43t-97.5 -20zM290 65q47 0 86 23.5t61.5 65.5t22.5 96t-22.5 96t-61.5 65.5t-86 23.5t-86 -23.5
t-61.5 -65.5t-22.5 -96t22.5 -96t61.5 -65.5t86 -23.5zM255 605l85 145h100v-1l-115 -144h-70z" />
    <glyph glyph-name="acircumflex" unicode="&#xe2;" 
d="M280 -10q-65 0 -120 34t-87.5 93.5t-32.5 132.5t32.5 132.5t87.5 93.5t120 34q58 0 97.5 -20t60.5 -43.5t21 -27.5h1v81h80v-500h-80v80h-1q0 -4 -21 -27t-60.5 -43t-97.5 -20zM290 65q47 0 86 23.5t61.5 65.5t22.5 96t-22.5 96t-61.5 65.5t-86 23.5t-86 -23.5
t-61.5 -65.5t-22.5 -96t22.5 -96t61.5 -65.5t86 -23.5zM145 605v1l110 144h90l110 -144v-1h-85l-65 90h-10l-65 -90h-85z" />
    <glyph glyph-name="atilde" unicode="&#xe3;" 
d="M280 -10q-65 0 -120 34t-87.5 93.5t-32.5 132.5t32.5 132.5t87.5 93.5t120 34q58 0 97.5 -20t60.5 -43.5t21 -27.5h1v81h80v-500h-80v80h-1q0 -4 -21 -27t-60.5 -43t-97.5 -20zM290 65q47 0 86 23.5t61.5 65.5t22.5 96t-22.5 96t-61.5 65.5t-86 23.5t-86 -23.5
t-61.5 -65.5t-22.5 -96t22.5 -96t61.5 -65.5t86 -23.5zM365 615q-27 0 -45.5 9.5t-38.5 26.5q-14 12 -24 18t-22 6q-15 0 -22.5 -7.5t-7.5 -22.5v-25h-65v28q0 39 27 65.5t68 26.5q27 0 45.5 -9.5t38.5 -26.5q14 -12 24 -18t22 -6q15 0 22.5 7.5t7.5 22.5v25h65v-28
q0 -39 -27 -65.5t-68 -26.5z" />
    <glyph glyph-name="adieresis" unicode="&#xe4;" 
d="M280 -10q-65 0 -120 34t-87.5 93.5t-32.5 132.5t32.5 132.5t87.5 93.5t120 34q58 0 97.5 -20t60.5 -43.5t21 -27.5h1v81h80v-500h-80v80h-1q0 -4 -21 -27t-60.5 -43t-97.5 -20zM290 65q47 0 86 23.5t61.5 65.5t22.5 96t-22.5 96t-61.5 65.5t-86 23.5t-86 -23.5
t-61.5 -65.5t-22.5 -96t22.5 -96t61.5 -65.5t86 -23.5zM215 620q-22 0 -38.5 16.5t-16.5 38.5q0 23 16.5 39t38.5 16q23 0 39 -16t16 -39q0 -22 -16 -38.5t-39 -16.5zM395 620q-22 0 -38.5 16.5t-16.5 38.5q0 23 16.5 39t38.5 16q23 0 39 -16t16 -39q0 -22 -16 -38.5
t-39 -16.5z" />
    <glyph glyph-name="aring" unicode="&#xe5;" 
d="M280 -10q-65 0 -120 34t-87.5 93.5t-32.5 132.5t32.5 132.5t87.5 93.5t120 34q58 0 97.5 -20t60.5 -43.5t21 -27.5h1v81h80v-500h-80v80h-1q0 -4 -21 -27t-60.5 -43t-97.5 -20zM290 65q47 0 86 23.5t61.5 65.5t22.5 96t-22.5 96t-61.5 65.5t-86 23.5t-86 -23.5
t-61.5 -65.5t-22.5 -96t22.5 -96t61.5 -65.5t86 -23.5zM300 570q-30 0 -54 13.5t-37.5 37.5t-13.5 54t13.5 54t37.5 37.5t54 13.5t54 -13.5t37.5 -37.5t13.5 -54t-13.5 -54t-37.5 -37.5t-54 -13.5zM300 620q25 0 40 16t15 39t-15 39t-40 16t-40 -16t-15 -39t15 -39t40 -16z
" />
    <glyph glyph-name="amacron" unicode="&#x101;" 
d="M280 -10q-65 0 -120 34t-87.5 93.5t-32.5 132.5t32.5 132.5t87.5 93.5t120 34q58 0 97.5 -20t60.5 -43.5t21 -27.5h1v81h80v-500h-80v80h-1q0 -4 -21 -27t-60.5 -43t-97.5 -20zM290 65q47 0 86 23.5t61.5 65.5t22.5 96t-22.5 96t-61.5 65.5t-86 23.5t-86 -23.5
t-61.5 -65.5t-22.5 -96t22.5 -96t61.5 -65.5t86 -23.5zM165 645v70h270v-70h-270z" />
    <glyph glyph-name="abreve" unicode="&#x103;" 
d="M280 -10q-65 0 -120 34t-87.5 93.5t-32.5 132.5t32.5 132.5t87.5 93.5t120 34q58 0 97.5 -20t60.5 -43.5t21 -27.5h1v81h80v-500h-80v80h-1q0 -4 -21 -27t-60.5 -43t-97.5 -20zM290 65q47 0 86 23.5t61.5 65.5t22.5 96t-22.5 96t-61.5 65.5t-86 23.5t-86 -23.5
t-61.5 -65.5t-22.5 -96t22.5 -96t61.5 -65.5t86 -23.5zM295 615q-66 0 -105.5 35.5t-39.5 89.5h70q0 -31 19 -48t56 -17t56 17t19 48h70q0 -54 -39.5 -89.5t-105.5 -35.5z" />
    <glyph glyph-name="aogonek" unicode="&#x105;" 
d="M465 -230q-48 0 -76.5 26.5t-28.5 68.5q0 28 16.5 54t42.5 46.5t56 34.5h-15v80h-1q0 -4 -21 -27t-60.5 -43t-97.5 -20q-65 0 -120 34t-87.5 93.5t-32.5 132.5t32.5 132.5t87.5 93.5t120 34q58 0 97.5 -20t60.5 -43t21 -27h1v80h80v-500q-50 -25 -85 -59t-35 -71
q0 -19 14 -32t36 -13q33 0 70 20v-55q-13 -8 -33 -14t-42 -6zM290 65q47 0 86 23.5t61.5 65.5t22.5 96t-22.5 96t-61.5 65.5t-86 23.5t-86 -23.5t-61.5 -65.5t-22.5 -96t22.5 -96t61.5 -65.5t86 -23.5z" />
    <glyph glyph-name="ae" unicode="&#xe6;" horiz-adv-x="955" 
d="M245 65q52 0 90.5 20t59 56t20.5 83v1h-175q-54 0 -82 -22t-28 -58q0 -38 29.5 -59t85.5 -21zM235 -10q-59 0 -100.5 19.5t-63 55t-21.5 80.5q0 43 22.5 77t67.5 53.5t110 19.5h165v25q0 53 -33 84t-92 31q-55 0 -90.5 -24.5t-49.5 -60.5h-80q17 67 72 113.5t148 46.5
q45 0 80.5 -13.5t59 -35t35.5 -46.5h5q18 25 45.5 46.5t66 35t83.5 13.5q69 0 126.5 -33t90.5 -90.5t33 -126.5v-35h-420q5 -46 29 -82.5t61.5 -57t79.5 -20.5q56 0 97.5 26t62.5 64h80q-26 -69 -87.5 -117t-152.5 -48q-49 0 -89 16.5t-69 42.5t-47 56h-5v0
q-7 -14 -29 -39.5t-70.5 -50.5t-120.5 -25zM830 295q-5 38 -27.5 70t-58 51t-79.5 19q-65 0 -111.5 -40.5t-56.5 -99.5h333z" />
    <glyph glyph-name="uni01FB" unicode="&#x1fb;" 
d="M300 580q-30 0 -54 13.5t-37.5 37.5t-13.5 54q0 41 26 70t66 34l38 66h80v-1l-59 -74q27 -12 43 -37.5t16 -57.5q0 -30 -13.5 -54t-37.5 -37.5t-54 -13.5zM300 630q25 0 40 16t15 39t-15 39t-40 16t-40 -16t-15 -39t15 -39t40 -16zM280 -10q-65 0 -120 34t-87.5 93.5
t-32.5 132.5t32.5 132.5t87.5 93.5t120 34q58 0 97.5 -20t60.5 -43.5t21 -27.5h1v81h80v-500h-80v80h-1q0 -4 -21 -27t-60.5 -43t-97.5 -20zM290 65q47 0 86 23.5t61.5 65.5t22.5 96t-22.5 96t-61.5 65.5t-86 23.5t-86 -23.5t-61.5 -65.5t-22.5 -96t22.5 -96t61.5 -65.5
t86 -23.5z" />
    <glyph glyph-name="uni01FD" unicode="&#x1fd;" horiz-adv-x="955" 
d="M245 65q52 0 90.5 20t59 56t20.5 83v1h-175q-54 0 -82 -22t-28 -58q0 -38 29.5 -59t85.5 -21zM235 -10q-59 0 -100.5 19.5t-63 55t-21.5 80.5q0 43 22.5 77t67.5 53.5t110 19.5h165v25q0 53 -33 84t-92 31q-55 0 -90.5 -24.5t-49.5 -60.5h-80q17 67 72 113.5t148 46.5
q45 0 80.5 -13.5t59 -35t35.5 -46.5h5q18 25 45.5 46.5t66 35t83.5 13.5q69 0 126.5 -33t90.5 -90.5t33 -126.5v-35h-420q5 -46 29 -82.5t61.5 -57t79.5 -20.5q56 0 97.5 26t62.5 64h80q-26 -69 -87.5 -117t-152.5 -48q-49 0 -89 16.5t-69 42.5t-47 56h-5v0
q-7 -14 -29 -39.5t-70.5 -50.5t-120.5 -25zM830 295q-5 38 -27.5 70t-58 51t-79.5 19q-65 0 -111.5 -40.5t-56.5 -99.5h333zM440 605l85 145h100v-1l-115 -144h-70z" />
    <glyph glyph-name="germandbls" unicode="&#xdf;" horiz-adv-x="570" 
d="M70 530q0 50 25 91t70.5 65t104.5 24q58 0 104 -23.5t71 -63.5t25 -88q0 -59 -27.5 -97t-67.5 -53v-5q41 -7 76 -28.5t57 -59.5t22 -92q0 -57 -26.5 -102.5t-75.5 -71.5t-113 -26h-65v75h65q42 0 72.5 15.5t46.5 44t16 65.5q0 35 -18.5 65t-52 47.5t-74.5 17.5h-55v75h1
q41 0 72.5 16.5t49 45t17.5 63.5q0 27 -15.5 51.5t-43 39t-61.5 14.5t-61.5 -15t-43 -41.5t-15.5 -58.5v-520h-80v530z" />
    <glyph glyph-name="cacute" unicode="&#x107;" horiz-adv-x="565" 
d="M290 -10q-69 0 -126.5 34t-90.5 93t-33 133t33 133t90.5 93t126.5 34q67 0 116.5 -25t80 -64.5t43.5 -85.5h-80q-17 42 -58 71t-102 29q-47 0 -86 -23.5t-61.5 -65.5t-22.5 -96t23 -96t62 -65.5t85 -23.5q64 0 106 32t59 78h80q-13 -49 -44 -91t-81.5 -68t-119.5 -26z
M245 605l85 145h100v-1l-115 -144h-70z" />
    <glyph glyph-name="ccircumflex" unicode="&#x109;" horiz-adv-x="565" 
d="M290 -10q-69 0 -126.5 34t-90.5 93t-33 133t33 133t90.5 93t126.5 34q67 0 116.5 -25t80 -64.5t43.5 -85.5h-80q-17 42 -58 71t-102 29q-47 0 -86 -23.5t-61.5 -65.5t-22.5 -96t23 -96t62 -65.5t85 -23.5q64 0 106 32t59 78h80q-13 -49 -44 -91t-81.5 -68t-119.5 -26z
M130 605v1l110 144h90l110 -144v-1h-85l-65 90h-10l-65 -90h-85z" />
    <glyph glyph-name="cdotaccent" unicode="&#x10b;" horiz-adv-x="565" 
d="M290 -10q-69 0 -126.5 34t-90.5 93t-33 133t33 133t90.5 93t126.5 34q67 0 116.5 -25t80 -64.5t43.5 -85.5h-80q-17 42 -58 71t-102 29q-47 0 -86 -23.5t-61.5 -65.5t-22.5 -96t23 -96t62 -65.5t85 -23.5q64 0 106 32t59 78h80q-13 -49 -44 -91t-81.5 -68t-119.5 -26z
M290 620q-22 0 -38.5 16.5t-16.5 38.5q0 23 16.5 39t38.5 16q23 0 39 -16t16 -39q0 -22 -16 -38.5t-39 -16.5z" />
    <glyph glyph-name="ccaron" unicode="&#x10d;" horiz-adv-x="565" 
d="M290 -10q-69 0 -126.5 34t-90.5 93t-33 133t33 133t90.5 93t126.5 34q67 0 116.5 -25t80 -64.5t43.5 -85.5h-80q-17 42 -58 71t-102 29q-47 0 -86 -23.5t-61.5 -65.5t-22.5 -96t23 -96t62 -65.5t85 -23.5q64 0 106 32t59 78h80q-13 -49 -44 -91t-81.5 -68t-119.5 -26z
M240 605l-110 144v1h85l65 -90h10l65 90h85v-1l-110 -144h-90z" />
    <glyph glyph-name="ccedilla" unicode="&#xe7;" horiz-adv-x="565" 
d="M255 -240q-17 0 -31.5 3t-25.5 7.5t-18 9.5v55q12 -8 31 -14t44 -6t37.5 11.5t12.5 28.5q0 20 -13 30t-42 10h-40l42 98q-60 8 -108.5 43.5t-76 91t-27.5 122.5q0 74 33 133t90.5 93t126.5 34q67 0 116.5 -25t80 -64.5t43.5 -85.5h-80q-17 42 -58 71t-102 29
q-47 0 -86 -23.5t-61.5 -65.5t-22.5 -96t23 -96t62 -65.5t85 -23.5q64 0 106 32t59 78h80q-13 -46 -41.5 -86.5t-76 -67.5t-111.5 -30l-21 -46q33 -6 56.5 -28.5t23.5 -61.5t-31 -67t-79 -28z" />
    <glyph glyph-name="dcaron" unicode="&#x10f;" horiz-adv-x="665" 
d="M280 -10q-65 0 -120 34t-87.5 93.5t-32.5 132.5t32.5 132.5t87.5 93.5t120 34q58 0 97.5 -20t60.5 -43t21 -27h1v280h80v-700h-80v80h-1q0 -4 -21 -27t-60.5 -43t-97.5 -20zM290 65q47 0 86 23.5t61.5 65.5t22.5 96t-22.5 96t-61.5 65.5t-86 23.5t-86 -23.5t-61.5 -65.5
t-22.5 -96t22.5 -96t61.5 -65.5t86 -23.5zM590 549q29 4 44.5 17.5t15.5 32.5q0 5 -1.5 9t-3.5 6q-5 -5 -15 -5q-19 0 -32 14t-13 36q0 20 15 35t40 15q27 0 43.5 -20t16.5 -60q0 -37 -13 -63t-37.5 -40t-59.5 -17v40z" />
    <glyph glyph-name="dcroat" unicode="&#x111;" horiz-adv-x="595" 
d="M275 -10q-64 0 -118 32t-85.5 88t-31.5 125t31.5 125t85.5 88t118 32q59 0 102.5 -23.5t66.5 -56.5h1v160h-130v75h130v65h80v-65h65v-75h-65v-560h-80v70h-1q-21 -33 -64.5 -56.5t-104.5 -23.5zM285 65q47 0 83.5 20.5t56.5 59t20 90.5q0 49 -21 88t-57.5 60.5
t-81.5 21.5q-47 0 -84.5 -21.5t-59 -60.5t-21.5 -88t21.5 -88t59 -60.5t84.5 -21.5z" />
    <glyph glyph-name="egrave" unicode="&#xe8;" horiz-adv-x="590" 
d="M295 -10q-72 0 -130 33.5t-91.5 93t-33.5 133.5t33.5 133.5t91.5 93t130 33.5q71 0 129.5 -33.5t92 -92t33.5 -129.5v-30h-430q5 -46 29.5 -82.5t62.5 -57t83 -20.5q59 0 101.5 26t63.5 64h80q-27 -69 -89.5 -117t-155.5 -48zM465 295q-5 38 -27.5 70t-59.5 51t-83 19
t-83 -19t-60 -51t-30 -70h343zM265 605l-115 144v1h100l85 -145h-70z" />
    <glyph glyph-name="eacute" unicode="&#xe9;" horiz-adv-x="590" 
d="M295 -10q-72 0 -130 33.5t-91.5 93t-33.5 133.5t33.5 133.5t91.5 93t130 33.5q71 0 129.5 -33.5t92 -92t33.5 -129.5v-30h-430q5 -46 29.5 -82.5t62.5 -57t83 -20.5q59 0 101.5 26t63.5 64h80q-27 -69 -89.5 -117t-155.5 -48zM465 295q-5 38 -27.5 70t-59.5 51t-83 19
t-83 -19t-60 -51t-30 -70h343zM260 605l85 145h100v-1l-115 -144h-70z" />
    <glyph glyph-name="ecircumflex" unicode="&#xea;" horiz-adv-x="590" 
d="M295 -10q-72 0 -130 33.5t-91.5 93t-33.5 133.5t33.5 133.5t91.5 93t130 33.5q71 0 129.5 -33.5t92 -92t33.5 -129.5v-30h-430q5 -46 29.5 -82.5t62.5 -57t83 -20.5q59 0 101.5 26t63.5 64h80q-27 -69 -89.5 -117t-155.5 -48zM465 295q-5 38 -27.5 70t-59.5 51t-83 19
t-83 -19t-60 -51t-30 -70h343zM135 605v1l110 144h90l110 -144v-1h-85l-65 90h-10l-65 -90h-85z" />
    <glyph glyph-name="edieresis" unicode="&#xeb;" horiz-adv-x="590" 
d="M295 -10q-72 0 -130 33.5t-91.5 93t-33.5 133.5t33.5 133.5t91.5 93t130 33.5q71 0 129.5 -33.5t92 -92t33.5 -129.5v-30h-430q5 -46 29.5 -82.5t62.5 -57t83 -20.5q59 0 101.5 26t63.5 64h80q-27 -69 -89.5 -117t-155.5 -48zM465 295q-5 38 -27.5 70t-59.5 51t-83 19
t-83 -19t-60 -51t-30 -70h343zM205 620q-22 0 -38.5 16.5t-16.5 38.5q0 23 16.5 39t38.5 16q23 0 39 -16t16 -39q0 -22 -16 -38.5t-39 -16.5zM385 620q-22 0 -38.5 16.5t-16.5 38.5q0 23 16.5 39t38.5 16q23 0 39 -16t16 -39q0 -22 -16 -38.5t-39 -16.5z" />
    <glyph glyph-name="emacron" unicode="&#x113;" horiz-adv-x="590" 
d="M295 -10q-72 0 -130 33.5t-91.5 93t-33.5 133.5t33.5 133.5t91.5 93t130 33.5q71 0 129.5 -33.5t92 -92t33.5 -129.5v-30h-430q5 -46 29.5 -82.5t62.5 -57t83 -20.5q59 0 101.5 26t63.5 64h80q-27 -69 -89.5 -117t-155.5 -48zM465 295q-5 38 -27.5 70t-59.5 51t-83 19
t-83 -19t-60 -51t-30 -70h343zM165 645v70h270v-70h-270z" />
    <glyph glyph-name="ebreve" unicode="&#x115;" horiz-adv-x="590" 
d="M295 -10q-72 0 -130 33.5t-91.5 93t-33.5 133.5t33.5 133.5t91.5 93t130 33.5q71 0 129.5 -33.5t92 -92t33.5 -129.5v-30h-430q5 -46 29.5 -82.5t62.5 -57t83 -20.5q59 0 101.5 26t63.5 64h80q-27 -69 -89.5 -117t-155.5 -48zM465 295q-5 38 -27.5 70t-59.5 51t-83 19
t-83 -19t-60 -51t-30 -70h343zM295 615q-66 0 -105.5 35.5t-39.5 89.5h70q0 -31 19 -48t56 -17t56 17t19 48h70q0 -54 -39.5 -89.5t-105.5 -35.5z" />
    <glyph glyph-name="edotaccent" unicode="&#x117;" horiz-adv-x="590" 
d="M295 -10q-72 0 -130 33.5t-91.5 93t-33.5 133.5t33.5 133.5t91.5 93t130 33.5q71 0 129.5 -33.5t92 -92t33.5 -129.5v-30h-430q5 -46 29.5 -82.5t62.5 -57t83 -20.5q59 0 101.5 26t63.5 64h80q-27 -69 -89.5 -117t-155.5 -48zM465 295q-5 38 -27.5 70t-59.5 51t-83 19
t-83 -19t-60 -51t-30 -70h343zM290 620q-22 0 -38.5 16.5t-16.5 38.5q0 23 16.5 39t38.5 16q23 0 39 -16t16 -39q0 -22 -16 -38.5t-39 -16.5z" />
    <glyph glyph-name="eogonek" unicode="&#x119;" horiz-adv-x="590" 
d="M330 -230q-48 0 -76.5 26.5t-28.5 68.5q0 33 20.5 60.5t42 43.5t32.5 21v0h-25q-72 0 -130 33.5t-91.5 93t-33.5 133.5t33.5 133.5t91.5 93t130 33.5q71 0 129.5 -33.5t92 -92t33.5 -129.5v-30h-430q5 -46 29.5 -82.5t62.5 -57t83 -20.5q59 0 101.5 26t63.5 64h80
q-15 -38 -45 -75t-81 -66q-48 -27 -88.5 -66.5t-40.5 -77.5q0 -19 14 -32t36 -13q33 0 70 20v-55q-13 -8 -33 -14t-42 -6zM295 435q-46 0 -83 -19t-60 -51t-30 -70h343q-5 38 -27.5 70t-59.5 51t-83 19z" />
    <glyph glyph-name="ecaron" unicode="&#x11b;" horiz-adv-x="590" 
d="M295 -10q-72 0 -130 33.5t-91.5 93t-33.5 133.5t33.5 133.5t91.5 93t130 33.5q71 0 129.5 -33.5t92 -92t33.5 -129.5v-30h-430q5 -46 29.5 -82.5t62.5 -57t83 -20.5q59 0 101.5 26t63.5 64h80q-27 -69 -89.5 -117t-155.5 -48zM465 295q-5 38 -27.5 70t-59.5 51t-83 19
t-83 -19t-60 -51t-30 -70h343zM245 605l-110 144v1h85l65 -90h10l65 90h85v-1l-110 -144h-90z" />
    <glyph glyph-name="eth" unicode="&#xf0;" horiz-adv-x="560" 
d="M280 65q47 0 84.5 21t59 57.5t21.5 81.5t-21.5 81.5t-59 57.5t-84.5 21t-84.5 -21t-59 -57.5t-21.5 -81.5t21.5 -81.5t59 -57.5t84.5 -21zM280 -10q-71 0 -127 30.5t-87 84t-31 120.5t30.5 120.5t84 84t120.5 30.5q61 0 106 -26t68 -64h1q-7 39 -40.5 88t-91.5 108l-4 4
l-4 4l-1 1l-124 -80v70l85 50l-90 85h95l50 -46l130 81v-70l-90 -55q52 -52 87 -100.5t56.5 -111.5t21.5 -143q0 -81 -31 -141t-86.5 -92t-127.5 -32z" />
    <glyph glyph-name="gcircumflex" unicode="&#x11d;" 
d="M110 -190v75h350v195h-1q0 -4 -21 -27t-60.5 -43t-97.5 -20q-65 0 -120 34t-87.5 93.5t-32.5 132.5t32.5 132.5t87.5 93.5t120 34q58 0 97.5 -20t60.5 -43t21 -27h1v80h80v-690h-430zM290 65q47 0 86 23.5t61.5 65.5t22.5 96t-22.5 96t-61.5 65.5t-86 23.5t-86 -23.5
t-61.5 -65.5t-22.5 -96t22.5 -96t61.5 -65.5t86 -23.5zM150 605v1l110 144h90l110 -144v-1h-85l-65 90h-10l-65 -90h-85z" />
    <glyph glyph-name="gbreve" unicode="&#x11f;" 
d="M110 -190v75h350v195h-1q0 -4 -21 -27t-60.5 -43t-97.5 -20q-65 0 -120 34t-87.5 93.5t-32.5 132.5t32.5 132.5t87.5 93.5t120 34q58 0 97.5 -20t60.5 -43t21 -27h1v80h80v-690h-430zM290 65q47 0 86 23.5t61.5 65.5t22.5 96t-22.5 96t-61.5 65.5t-86 23.5t-86 -23.5
t-61.5 -65.5t-22.5 -96t22.5 -96t61.5 -65.5t86 -23.5zM305 615q-66 0 -105.5 35.5t-39.5 89.5h70q0 -31 19 -48t56 -17t56 17t19 48h70q0 -54 -39.5 -89.5t-105.5 -35.5z" />
    <glyph glyph-name="gdotaccent" unicode="&#x121;" 
d="M110 -190v75h350v195h-1q0 -4 -21 -27t-60.5 -43t-97.5 -20q-65 0 -120 34t-87.5 93.5t-32.5 132.5t32.5 132.5t87.5 93.5t120 34q58 0 97.5 -20t60.5 -43t21 -27h1v80h80v-690h-430zM290 65q47 0 86 23.5t61.5 65.5t22.5 96t-22.5 96t-61.5 65.5t-86 23.5t-86 -23.5
t-61.5 -65.5t-22.5 -96t22.5 -96t61.5 -65.5t86 -23.5zM305 620q-22 0 -38.5 16.5t-16.5 38.5q0 23 16.5 39t38.5 16q23 0 39 -16t16 -39q0 -22 -16 -38.5t-39 -16.5z" />
    <glyph glyph-name="uni0123" unicode="&#x123;" 
d="M295 590q-27 0 -43.5 20t-16.5 60q0 37 13 63t37.5 40t59.5 17v-40q-29 -4 -44.5 -17.5t-15.5 -32.5q0 -5 1.5 -9t3.5 -6q5 5 15 5q19 0 32 -14t13 -36q0 -20 -15 -35t-40 -15zM110 -190v75h350v195h-1q0 -4 -21 -27t-60.5 -43t-97.5 -20q-65 0 -120 34t-87.5 93.5
t-32.5 132.5t32.5 132.5t87.5 93.5t120 34q58 0 97.5 -20t60.5 -43t21 -27h1v80h80v-690h-430zM290 65q47 0 86 23.5t61.5 65.5t22.5 96t-22.5 96t-61.5 65.5t-86 23.5t-86 -23.5t-61.5 -65.5t-22.5 -96t22.5 -96t61.5 -65.5t86 -23.5z" />
    <glyph glyph-name="uni01F5" unicode="&#x1f5;" 
d="M110 -190v75h350v195h-1q0 -4 -21 -27t-60.5 -43t-97.5 -20q-65 0 -120 34t-87.5 93.5t-32.5 132.5t32.5 132.5t87.5 93.5t120 34q58 0 97.5 -20t60.5 -43t21 -27h1v80h80v-690h-430zM290 65q47 0 86 23.5t61.5 65.5t22.5 96t-22.5 96t-61.5 65.5t-86 23.5t-86 -23.5
t-61.5 -65.5t-22.5 -96t22.5 -96t61.5 -65.5t86 -23.5zM270 605l85 145h100v-1l-115 -144h-70z" />
    <glyph glyph-name="hcircumflex" unicode="&#x125;" horiz-adv-x="580" 
d="M70 0v700h80v-275h1q23 36 66.5 60.5t102.5 24.5q91 0 145.5 -57.5t54.5 -157.5v-295h-80v290q0 73 -36 109t-99 36q-45 0 -80 -20.5t-55 -58t-20 -86.5v-270h-80zM135 790v1l110 144h90l110 -144v-1h-85l-65 90h-10l-65 -90h-85z" />
    <glyph glyph-name="hbar" unicode="&#x127;" horiz-adv-x="600" 
d="M90 0v550h-90v70h90v80h80v-80h130v-70h-130v-175h1q23 36 66.5 60.5t102.5 24.5q91 0 145.5 -57.5t54.5 -157.5v-245h-80v240q0 73 -36 109t-99 36q-45 0 -80 -20.5t-55 -58t-20 -86.5v-220h-80z" />
    <glyph glyph-name="igrave" unicode="&#xec;" horiz-adv-x="220" 
d="M70 0v500h80v-500h-80zM75 605l-115 144v1h100l85 -145h-70z" />
    <glyph glyph-name="iacute" unicode="&#xed;" horiz-adv-x="220" 
d="M70 0v500h80v-500h-80zM75 605l85 145h100v-1l-115 -144h-70z" />
    <glyph glyph-name="icircumflex" unicode="&#xee;" horiz-adv-x="220" 
d="M70 0v500h80v-500h-80zM-45 605v1l110 144h90l110 -144v-1h-85l-65 90h-10l-65 -90h-85z" />
    <glyph glyph-name="idieresis" unicode="&#xef;" horiz-adv-x="220" 
d="M70 0v500h80v-500h-80zM20 620q-22 0 -38.5 16.5t-16.5 38.5q0 23 16.5 39t38.5 16q23 0 39 -16t16 -39q0 -22 -16 -38.5t-39 -16.5zM200 620q-22 0 -38.5 16.5t-16.5 38.5q0 23 16.5 39t38.5 16q23 0 39 -16t16 -39q0 -22 -16 -38.5t-39 -16.5z" />
    <glyph glyph-name="imacron" unicode="&#x12b;" horiz-adv-x="220" 
d="M70 0v500h80v-500h-80zM-25 645v70h270v-70h-270z" />
    <glyph glyph-name="ibreve" unicode="&#x12d;" horiz-adv-x="220" 
d="M70 0v500h80v-500h-80zM110 615q-66 0 -105.5 35.5t-39.5 89.5h70q0 -31 19 -48t56 -17t56 17t19 48h70q0 -54 -39.5 -89.5t-105.5 -35.5z" />
    <glyph glyph-name="iogonek" unicode="&#x12f;" horiz-adv-x="220" 
d="M75 -230q-48 0 -76.5 26.5t-28.5 68.5q0 28 16.5 54t42.5 46.5t56 34.5h-15v500h80v-500q-50 -25 -85 -59t-35 -71q0 -19 14 -32t36 -13q33 0 70 20v-55q-13 -8 -33 -14t-42 -6zM110 595q-22 0 -38.5 16.5t-16.5 38.5q0 23 16.5 39t38.5 16q23 0 39 -16t16 -39
q0 -22 -16 -38.5t-39 -16.5z" />
    <glyph glyph-name="dotlessi" unicode="&#x131;" horiz-adv-x="220" 
d="M70 0v500h80v-500h-80z" />
    <glyph glyph-name="uni0133" unicode="&#x133;" horiz-adv-x="440" 
d="M70 0v500h80v-500h-80zM145 -190v75h145v615h80v-690h-225zM110 595q-22 0 -38.5 16.5t-16.5 38.5q0 23 16.5 39t38.5 16q23 0 39 -16t16 -39q0 -22 -16 -38.5t-39 -16.5zM330 595q-22 0 -38.5 16.5t-16.5 38.5q0 23 16.5 39t38.5 16q23 0 39 -16t16 -39q0 -22 -16 -38.5
t-39 -16.5z" />
    <glyph glyph-name="iacute_j.loclNLD" unicode="&#xe0ba;" horiz-adv-x="440" 
d="M70 0v500h80v-500h-80zM145 -190v75h145v615h80v-690h-225zM75 605l85 145h100v-1l-115 -144h-70zM295 605l85 145h100v-1l-115 -144h-70z" />
    <glyph glyph-name="jcircumflex" unicode="&#x135;" horiz-adv-x="220" 
d="M-75 -190v75h145v615h80v-690h-225zM-45 605v1l110 144h90l110 -144v-1h-85l-65 90h-10l-65 -90h-85z" />
    <glyph glyph-name="uni0137" unicode="&#x137;" horiz-adv-x="525" 
d="M70 0v700h80v-400h100l160 200h95l-185 -235l200 -265h-100l-170 225h-100v-225h-80zM225 -260q29 4 44.5 17.5t15.5 32.5q0 5 -1.5 9t-3.5 6q-6 -5 -15 -5q-19 0 -32 14t-13 36q0 20 15 35t40 15q27 0 43.5 -20t16.5 -60q0 -37 -13 -63t-37.5 -40t-59.5 -17v40z" />
    <glyph glyph-name="lacute" unicode="&#x13a;" horiz-adv-x="275" 
d="M70 0v700h80v-625h115v-75h-195zM75 790l85 145h100v-1l-115 -144h-70z" />
    <glyph glyph-name="uni013C" unicode="&#x13c;" horiz-adv-x="275" 
d="M70 0v700h80v-625h115v-75h-195zM115 -260q29 4 44.5 17.5t15.5 32.5q0 5 -1.5 9t-3.5 6q-6 -5 -15 -5q-19 0 -32 14t-13 36q0 20 15 35t40 15q27 0 43.5 -20t16.5 -60q0 -37 -13 -63t-37.5 -40t-59.5 -17v40z" />
    <glyph glyph-name="lcaron" unicode="&#x13e;" horiz-adv-x="285" 
d="M70 0v700h80v-625h115v-75h-195zM210 550q29 4 44.5 17.5t15.5 32.5q0 5 -1.5 9t-3.5 6q-5 -5 -15 -5q-19 0 -32 14t-13 36q0 20 15 35t40 15q27 0 43.5 -20t16.5 -60q0 -37 -13 -63t-37.5 -40t-59.5 -17v40z" />
    <glyph glyph-name="ldot" unicode="&#x140;" horiz-adv-x="360" 
d="M70 0v700h80v-625h115v-75h-195zM290 305q-22 0 -38.5 16.5t-16.5 38.5q0 23 16.5 39t38.5 16q23 0 39 -16t16 -39q0 -22 -16 -38.5t-39 -16.5z" />
    <glyph glyph-name="lslash" unicode="&#x142;" horiz-adv-x="290" 
d="M85 0v270l-80 -35v85l80 35v345h80v-305l100 45v-85l-100 -45v-235h115v-75h-195z" />
    <glyph glyph-name="ntilde" unicode="&#xf1;" horiz-adv-x="585" 
d="M70 0v500h80v-75h1q23 36 66.5 60.5t102.5 24.5q91 0 145.5 -57.5t54.5 -157.5v-295h-80v290q0 73 -36 109t-99 36q-45 0 -80 -20.5t-55 -58t-20 -86.5v-270h-80zM360 615q-27 0 -45.5 9.5t-38.5 26.5q-14 12 -24 18t-22 6q-15 0 -22.5 -7.5t-7.5 -22.5v-25h-65v28
q0 39 27 65.5t68 26.5q27 0 45.5 -9.5t38.5 -26.5q14 -12 24 -18t22 -6q15 0 22.5 7.5t7.5 22.5v25h65v-28q0 -39 -27 -65.5t-68 -26.5z" />
    <glyph glyph-name="nacute" unicode="&#x144;" horiz-adv-x="585" 
d="M70 0v500h80v-75h1q23 36 66.5 60.5t102.5 24.5q91 0 145.5 -57.5t54.5 -157.5v-295h-80v290q0 73 -36 109t-99 36q-45 0 -80 -20.5t-55 -58t-20 -86.5v-270h-80zM255 605l85 145h100v-1l-115 -144h-70z" />
    <glyph glyph-name="uni0146" unicode="&#x146;" horiz-adv-x="585" 
d="M70 0v500h80v-75h1q23 36 66.5 60.5t102.5 24.5q91 0 145.5 -57.5t54.5 -157.5v-295h-80v290q0 73 -36 109t-99 36q-45 0 -80 -20.5t-55 -58t-20 -86.5v-270h-80zM245 -260q29 4 44.5 17.5t15.5 32.5q0 5 -1.5 9t-3.5 6q-6 -5 -15 -5q-19 0 -32 14t-13 36q0 20 15 35
t40 15q27 0 43.5 -20t16.5 -60q0 -37 -13 -63t-37.5 -40t-59.5 -17v40z" />
    <glyph glyph-name="ncaron" unicode="&#x148;" horiz-adv-x="585" 
d="M70 0v500h80v-75h1q23 36 66.5 60.5t102.5 24.5q91 0 145.5 -57.5t54.5 -157.5v-295h-80v290q0 73 -36 109t-99 36q-45 0 -80 -20.5t-55 -58t-20 -86.5v-270h-80zM250 605l-110 144v1h85l65 -90h10l65 90h85v-1l-110 -144h-90z" />
    <glyph glyph-name="eng" unicode="&#x14b;" horiz-adv-x="585" 
d="M295 -190v75h145v405q0 73 -36 109t-99 36q-45 0 -80 -20.5t-55 -58t-20 -86.5v-270h-80v500h80v-75h1q23 36 66.5 60.5t102.5 24.5q91 0 145.5 -57.5t54.5 -157.5v-485h-225z" />
    <glyph glyph-name="ograve" unicode="&#xf2;" horiz-adv-x="600" 
d="M300 -10q-74 0 -133.5 33.5t-93 93t-33.5 133.5t33.5 133.5t93 93t133.5 33.5t133.5 -33.5t93 -93t33.5 -133.5t-33.5 -133.5t-93 -93t-133.5 -33.5zM300 65q52 0 93 23.5t64 65.5t23 96t-23 96t-64 65.5t-93 23.5t-93 -23.5t-64 -65.5t-23 -96t23 -96t64 -65.5t93 -23.5
zM268 605l-115 144v1h100l85 -145h-70z" />
    <glyph glyph-name="oacute" unicode="&#xf3;" horiz-adv-x="600" 
d="M300 -10q-74 0 -133.5 33.5t-93 93t-33.5 133.5t33.5 133.5t93 93t133.5 33.5t133.5 -33.5t93 -93t33.5 -133.5t-33.5 -133.5t-93 -93t-133.5 -33.5zM300 65q52 0 93 23.5t64 65.5t23 96t-23 96t-64 65.5t-93 23.5t-93 -23.5t-64 -65.5t-23 -96t23 -96t64 -65.5t93 -23.5
zM260 605l85 145h100v-1l-115 -144h-70z" />
    <glyph glyph-name="ocircumflex" unicode="&#xf4;" horiz-adv-x="600" 
d="M300 -10q-74 0 -133.5 33.5t-93 93t-33.5 133.5t33.5 133.5t93 93t133.5 33.5t133.5 -33.5t93 -93t33.5 -133.5t-33.5 -133.5t-93 -93t-133.5 -33.5zM300 65q52 0 93 23.5t64 65.5t23 96t-23 96t-64 65.5t-93 23.5t-93 -23.5t-64 -65.5t-23 -96t23 -96t64 -65.5t93 -23.5
zM145 605v1l110 144h90l110 -144v-1h-85l-65 90h-10l-65 -90h-85z" />
    <glyph glyph-name="otilde" unicode="&#xf5;" horiz-adv-x="600" 
d="M300 -10q-74 0 -133.5 33.5t-93 93t-33.5 133.5t33.5 133.5t93 93t133.5 33.5t133.5 -33.5t93 -93t33.5 -133.5t-33.5 -133.5t-93 -93t-133.5 -33.5zM300 65q52 0 93 23.5t64 65.5t23 96t-23 96t-64 65.5t-93 23.5t-93 -23.5t-64 -65.5t-23 -96t23 -96t64 -65.5t93 -23.5
zM365 615q-27 0 -45.5 9.5t-38.5 26.5q-14 12 -24 18t-22 6q-15 0 -22.5 -7.5t-7.5 -22.5v-25h-65v28q0 39 27 65.5t68 26.5q27 0 45.5 -9.5t38.5 -26.5q14 -12 24 -18t22 -6q15 0 22.5 7.5t7.5 22.5v25h65v-28q0 -39 -27 -65.5t-68 -26.5z" />
    <glyph glyph-name="odieresis" unicode="&#xf6;" horiz-adv-x="600" 
d="M300 -10q-74 0 -133.5 33.5t-93 93t-33.5 133.5t33.5 133.5t93 93t133.5 33.5t133.5 -33.5t93 -93t33.5 -133.5t-33.5 -133.5t-93 -93t-133.5 -33.5zM300 65q52 0 93 23.5t64 65.5t23 96t-23 96t-64 65.5t-93 23.5t-93 -23.5t-64 -65.5t-23 -96t23 -96t64 -65.5t93 -23.5
zM210 620q-22 0 -38.5 16.5t-16.5 38.5q0 23 16.5 39t38.5 16q23 0 39 -16t16 -39q0 -22 -16 -38.5t-39 -16.5zM390 620q-22 0 -38.5 16.5t-16.5 38.5q0 23 16.5 39t38.5 16q23 0 39 -16t16 -39q0 -22 -16 -38.5t-39 -16.5z" />
    <glyph glyph-name="omacron" unicode="&#x14d;" horiz-adv-x="600" 
d="M300 -10q-74 0 -133.5 33.5t-93 93t-33.5 133.5t33.5 133.5t93 93t133.5 33.5t133.5 -33.5t93 -93t33.5 -133.5t-33.5 -133.5t-93 -93t-133.5 -33.5zM300 65q52 0 93 23.5t64 65.5t23 96t-23 96t-64 65.5t-93 23.5t-93 -23.5t-64 -65.5t-23 -96t23 -96t64 -65.5t93 -23.5
zM165 645v70h270v-70h-270z" />
    <glyph glyph-name="obreve" unicode="&#x14f;" horiz-adv-x="600" 
d="M300 -10q-74 0 -133.5 33.5t-93 93t-33.5 133.5t33.5 133.5t93 93t133.5 33.5t133.5 -33.5t93 -93t33.5 -133.5t-33.5 -133.5t-93 -93t-133.5 -33.5zM300 65q52 0 93 23.5t64 65.5t23 96t-23 96t-64 65.5t-93 23.5t-93 -23.5t-64 -65.5t-23 -96t23 -96t64 -65.5t93 -23.5
zM300 615q-66 0 -105.5 35.5t-39.5 89.5h70q0 -31 19 -48t56 -17t56 17t19 48h70q0 -54 -39.5 -89.5t-105.5 -35.5z" />
    <glyph glyph-name="ohungarumlaut" unicode="&#x151;" horiz-adv-x="600" 
d="M300 -10q-74 0 -133.5 33.5t-93 93t-33.5 133.5t33.5 133.5t93 93t133.5 33.5t133.5 -33.5t93 -93t33.5 -133.5t-33.5 -133.5t-93 -93t-133.5 -33.5zM300 65q52 0 93 23.5t64 65.5t23 96t-23 96t-64 65.5t-93 23.5t-93 -23.5t-64 -65.5t-23 -96t23 -96t64 -65.5t93 -23.5
zM190 605l70 145h90v-1l-100 -144h-60zM340 605l70 145h90v-1l-100 -144h-60z" />
    <glyph glyph-name="oe" unicode="&#x153;" horiz-adv-x="995" 
d="M290 65q47 0 86 23.5t61.5 65.5t22.5 96t-22.5 96t-61.5 65.5t-86 23.5t-86 -23.5t-61.5 -65.5t-22.5 -96t22.5 -96t61.5 -65.5t86 -23.5zM290 -10q-69 0 -126.5 34t-90.5 93t-33 133t33 133t90.5 93t126.5 34q72 0 127.5 -33.5t86.5 -81.5h1q28 48 81 81.5t124 33.5
q67 0 123 -33.5t89 -92t33 -129.5v-30h-415q5 -45 28 -81.5t59 -57.5t78 -21q56 0 97.5 26t62.5 64h80q-27 -69 -87 -117t-148 -48q-74 0 -126.5 33.5t-78.5 81.5h-1q-33 -48 -88.5 -81.5t-125.5 -33.5zM870 295q-5 38 -27 70t-57 51t-76 19t-76 -19t-58 -51t-31 -70h325z
" />
    <glyph glyph-name="oslash" unicode="&#xf8;" horiz-adv-x="600" 
d="M300 -10q-55 0 -102 19t-82 53l-86 -67v90l43 33q-16 29 -24.5 62.5t-8.5 69.5q0 74 33.5 133.5t93 93t133.5 33.5q55 0 102 -19t82 -53l86 67v-90l-43 -34q16 -29 24.5 -62t8.5 -69q0 -74 -33.5 -133.5t-93 -93t-133.5 -33.5zM300 65q52 0 93 23.5t64 65.5t23 96
q0 22 -4 43t-12 39l-287 -222q24 -22 55.5 -33.5t67.5 -11.5zM422 390q-23 22 -54.5 33.5t-67.5 11.5q-52 0 -93 -23.5t-64 -65.5t-23 -96q0 -24 4 -44.5t12 -38.5z" />
    <glyph glyph-name="uni01FF" unicode="&#x1ff;" horiz-adv-x="600" 
d="M300 -10q-55 0 -102 19t-82 53l-86 -67v90l43 33q-16 29 -24.5 62.5t-8.5 69.5q0 74 33.5 133.5t93 93t133.5 33.5q55 0 102 -19t82 -53l86 67v-90l-43 -34q16 -29 24.5 -62t8.5 -69q0 -74 -33.5 -133.5t-93 -93t-133.5 -33.5zM300 65q52 0 93 23.5t64 65.5t23 96
q0 22 -4 43t-12 39l-287 -222q24 -22 55.5 -33.5t67.5 -11.5zM422 390q-23 22 -54.5 33.5t-67.5 11.5q-52 0 -93 -23.5t-64 -65.5t-23 -96q0 -24 4 -44.5t12 -38.5zM260 660l85 145h100v-1l-115 -144h-70z" />
    <glyph glyph-name="thorn" unicode="&#xfe;" 
d="M70 -190v890h80v-280h1q0 4 21 27t60.5 43t97.5 20q65 0 120 -34t87.5 -93.5t32.5 -132.5t-32.5 -132.5t-87.5 -93.5t-120 -34q-58 0 -97.5 20t-60.5 43t-21 27h-1v-270h-80zM320 65q47 0 86 23.5t61.5 65.5t22.5 96t-22.5 96t-61.5 65.5t-86 23.5t-86 -23.5t-61.5 -65.5
t-22.5 -96t22.5 -96t61.5 -65.5t86 -23.5z" />
    <glyph glyph-name="racute" unicode="&#x155;" horiz-adv-x="380" 
d="M70 0v500h80v-80h1q19 36 58.5 60.5t95.5 24.5h60v-80h-60q-44 0 -79.5 -20t-55.5 -55.5t-20 -79.5v-270h-80zM185 605l85 145h100v-1l-115 -144h-70z" />
    <glyph glyph-name="uni0157" unicode="&#x157;" horiz-adv-x="380" 
d="M70 0v500h80v-80h1q19 36 58.5 60.5t95.5 24.5h60v-80h-60q-44 0 -79.5 -20t-55.5 -55.5t-20 -79.5v-270h-80zM60 -260q29 4 44.5 17.5t15.5 32.5q0 5 -1.5 9t-3.5 6q-6 -5 -15 -5q-19 0 -32 14t-13 36q0 20 15 35t40 15q27 0 43.5 -20t16.5 -60q0 -37 -13 -63t-37.5 -40
t-59.5 -17v40z" />
    <glyph glyph-name="rcaron" unicode="&#x159;" horiz-adv-x="380" 
d="M70 0v500h80v-80h1q19 36 58.5 60.5t95.5 24.5h60v-80h-60q-44 0 -79.5 -20t-55.5 -55.5t-20 -79.5v-270h-80zM175 605l-110 144v1h85l65 -90h10l65 90h85v-1l-110 -144h-90z" />
    <glyph glyph-name="sacute" unicode="&#x15b;" horiz-adv-x="510" 
d="M265 -10q-65 0 -113 23.5t-76.5 60.5t-40.5 81h85q15 -38 52 -64t93 -26q64 0 94.5 21t30.5 54q0 21 -16.5 34.5t-42 22t-70.5 18.5q-63 14 -103 29t-69 45t-29 81q0 38 22 70t65 51t103 19q91 0 145 -43.5t70 -106.5h-85q-13 31 -45.5 53t-84.5 22q-35 0 -60 -9.5
t-37.5 -24.5t-12.5 -31q0 -21 16.5 -34.5t42 -22t70.5 -18.5q63 -14 103 -29t69 -45t29 -81q0 -41 -23.5 -75t-70 -54.5t-111.5 -20.5zM215 605l85 145h100v-1l-115 -144h-70z" />
    <glyph glyph-name="scircumflex" unicode="&#x15d;" horiz-adv-x="510" 
d="M265 -10q-65 0 -113 23.5t-76.5 60.5t-40.5 81h85q15 -38 52 -64t93 -26q64 0 94.5 21t30.5 54q0 21 -16.5 34.5t-42 22t-70.5 18.5q-63 14 -103 29t-69 45t-29 81q0 38 22 70t65 51t103 19q91 0 145 -43.5t70 -106.5h-85q-13 31 -45.5 53t-84.5 22q-35 0 -60 -9.5
t-37.5 -24.5t-12.5 -31q0 -21 16.5 -34.5t42 -22t70.5 -18.5q63 -14 103 -29t69 -45t29 -81q0 -41 -23.5 -75t-70 -54.5t-111.5 -20.5zM100 605v1l110 144h90l110 -144v-1h-85l-65 90h-10l-65 -90h-85z" />
    <glyph glyph-name="scedilla" unicode="&#x15f;" horiz-adv-x="510" 
d="M240 -240q-17 0 -31.5 3t-25.5 7.5t-18 9.5v55q12 -8 31 -14t44 -6t37.5 11.5t12.5 28.5q0 20 -13 30t-42 10h-40l42 96q-84 7 -134.5 54t-67.5 110h85q15 -38 52 -64t93 -26q64 0 94.5 21t30.5 54q0 21 -16.5 34.5t-42 22t-70.5 18.5q-63 14 -103 29t-69 45t-29 81
q0 38 22 70t65 51t103 19q91 0 145 -43.5t70 -106.5h-85q-13 31 -45.5 53t-84.5 22q-35 0 -60 -9.5t-37.5 -24.5t-12.5 -31q0 -21 16.5 -34.5t42 -22t70.5 -18.5q63 -14 103 -29t69 -45t29 -81q0 -38 -20.5 -70.5t-61 -53.5t-97.5 -25l-21 -46q33 -6 56.5 -28.5t23.5 -61.5
t-31 -67t-79 -28z" />
    <glyph glyph-name="scaron" unicode="&#x161;" horiz-adv-x="510" 
d="M265 -10q-65 0 -113 23.5t-76.5 60.5t-40.5 81h85q15 -38 52 -64t93 -26q64 0 94.5 21t30.5 54q0 21 -16.5 34.5t-42 22t-70.5 18.5q-63 14 -103 29t-69 45t-29 81q0 38 22 70t65 51t103 19q91 0 145 -43.5t70 -106.5h-85q-13 31 -45.5 53t-84.5 22q-35 0 -60 -9.5
t-37.5 -24.5t-12.5 -31q0 -21 16.5 -34.5t42 -22t70.5 -18.5q63 -14 103 -29t69 -45t29 -81q0 -41 -23.5 -75t-70 -54.5t-111.5 -20.5zM205 605l-110 144v1h85l65 -90h10l65 90h85v-1l-110 -144h-90z" />
    <glyph glyph-name="uni0219" unicode="&#x219;" horiz-adv-x="510" 
d="M265 -10q-65 0 -113 23.5t-76.5 60.5t-40.5 81h85q15 -38 52 -64t93 -26q64 0 94.5 21t30.5 54q0 21 -16.5 34.5t-42 22t-70.5 18.5q-63 14 -103 29t-69 45t-29 81q0 38 22 70t65 51t103 19q91 0 145 -43.5t70 -106.5h-85q-13 31 -45.5 53t-84.5 22q-35 0 -60 -9.5
t-37.5 -24.5t-12.5 -31q0 -21 16.5 -34.5t42 -22t70.5 -18.5q63 -14 103 -29t69 -45t29 -81q0 -41 -23.5 -75t-70 -54.5t-111.5 -20.5zM205 -260q29 4 44.5 17.5t15.5 32.5q0 5 -1.5 9t-3.5 6q-6 -5 -15 -5q-19 0 -32 14t-13 36q0 20 15 35t40 15q27 0 43.5 -20t16.5 -60
q0 -37 -13 -63t-37.5 -40t-59.5 -17v40z" />
    <glyph glyph-name="uni0163" unicode="&#x163;" horiz-adv-x="365" 
d="M185 -240q-17 0 -31.5 3t-25.5 7.5t-18 9.5v55q12 -8 31 -14t44 -6t37.5 11.5t12.5 28.5q0 20 -13 30t-42 10h-40l45 105h-95v425h-65v75h65v110h80v-110h160v-75h-160v-350h165v-75h-95l-25 -55q33 -6 56.5 -28.5t23.5 -61.5t-31 -67t-79 -28z" />
    <glyph glyph-name="uni021B" unicode="&#x21b;" horiz-adv-x="365" 
d="M90 0v425h-65v75h65v110h80v-110h160v-75h-160v-350h165v-75h-245zM165 -260q29 4 44.5 17.5t15.5 32.5q0 5 -1.5 9t-3.5 6q-6 -5 -15 -5q-19 0 -32 14t-13 36q0 20 15 35t40 15q27 0 43.5 -20t16.5 -60q0 -37 -13 -63t-37.5 -40t-59.5 -17v40z" />
    <glyph glyph-name="tcaron" unicode="&#x165;" horiz-adv-x="365" 
d="M90 0v425h-65v75h65v110h80v-535h165v-75h-245zM230 460q29 4 44.5 17.5t15.5 32.5q0 5 -1.5 9t-3.5 6q-5 -5 -15 -5q-19 0 -32 14t-13 36q0 20 15 35t40 15q27 0 43.5 -20t16.5 -60q0 -37 -13 -63t-37.5 -40t-59.5 -17v40z" />
    <glyph glyph-name="tbar" unicode="&#x167;" horiz-adv-x="365" 
d="M90 0v270h-65v70h65v85h-65v75h65v110h80v-110h160v-75h-160v-85h160v-70h-160v-195h165v-75h-245z" />
    <glyph glyph-name="ugrave" unicode="&#xf9;" horiz-adv-x="590" 
d="M270 -10q-91 0 -145.5 57.5t-54.5 157.5v295h80v-290q0 -72 36.5 -108.5t98.5 -36.5q45 0 80 20.5t55 58t20 86.5v270h80v-500h-80v75h-1q-23 -36 -66.5 -60.5t-102.5 -24.5zM270 605l-115 144v1h100l85 -145h-70z" />
    <glyph glyph-name="uacute" unicode="&#xfa;" horiz-adv-x="590" 
d="M270 -10q-91 0 -145.5 57.5t-54.5 157.5v295h80v-290q0 -72 36.5 -108.5t98.5 -36.5q45 0 80 20.5t55 58t20 86.5v270h80v-500h-80v75h-1q-23 -36 -66.5 -60.5t-102.5 -24.5zM250 605l85 145h100v-1l-115 -144h-70z" />
    <glyph glyph-name="ucircumflex" unicode="&#xfb;" horiz-adv-x="590" 
d="M270 -10q-91 0 -145.5 57.5t-54.5 157.5v295h80v-290q0 -72 36.5 -108.5t98.5 -36.5q45 0 80 20.5t55 58t20 86.5v270h80v-500h-80v75h-1q-23 -36 -66.5 -60.5t-102.5 -24.5zM140 605v1l110 144h90l110 -144v-1h-85l-65 90h-10l-65 -90h-85z" />
    <glyph glyph-name="udieresis" unicode="&#xfc;" horiz-adv-x="590" 
d="M270 -10q-91 0 -145.5 57.5t-54.5 157.5v295h80v-290q0 -72 36.5 -108.5t98.5 -36.5q45 0 80 20.5t55 58t20 86.5v270h80v-500h-80v75h-1q-23 -36 -66.5 -60.5t-102.5 -24.5zM205 620q-22 0 -38.5 16.5t-16.5 38.5q0 23 16.5 39t38.5 16q23 0 39 -16t16 -39
q0 -22 -16 -38.5t-39 -16.5zM385 620q-22 0 -38.5 16.5t-16.5 38.5q0 23 16.5 39t38.5 16q23 0 39 -16t16 -39q0 -22 -16 -38.5t-39 -16.5z" />
    <glyph glyph-name="umacron" unicode="&#x16b;" horiz-adv-x="590" 
d="M270 -10q-91 0 -145.5 57.5t-54.5 157.5v295h80v-290q0 -72 36.5 -108.5t98.5 -36.5q45 0 80 20.5t55 58t20 86.5v270h80v-500h-80v75h-1q-23 -36 -66.5 -60.5t-102.5 -24.5zM160 645v70h270v-70h-270z" />
    <glyph glyph-name="ubreve" unicode="&#x16d;" horiz-adv-x="590" 
d="M270 -10q-91 0 -145.5 57.5t-54.5 157.5v295h80v-290q0 -72 36.5 -108.5t98.5 -36.5q45 0 80 20.5t55 58t20 86.5v270h80v-500h-80v75h-1q-23 -36 -66.5 -60.5t-102.5 -24.5zM295 615q-66 0 -105.5 35.5t-39.5 89.5h70q0 -31 19 -48t56 -17t56 17t19 48h70
q0 -54 -39.5 -89.5t-105.5 -35.5z" />
    <glyph glyph-name="uring" unicode="&#x16f;" horiz-adv-x="590" 
d="M270 -10q-91 0 -145.5 57.5t-54.5 157.5v295h80v-290q0 -72 36.5 -108.5t98.5 -36.5q45 0 80 20.5t55 58t20 86.5v270h80v-500h-80v75h-1q-23 -36 -66.5 -60.5t-102.5 -24.5zM295 570q-30 0 -54 13.5t-37.5 37.5t-13.5 54t13.5 54t37.5 37.5t54 13.5t54 -13.5t37.5 -37.5
t13.5 -54t-13.5 -54t-37.5 -37.5t-54 -13.5zM295 620q25 0 40 16t15 39t-15 39t-40 16t-40 -16t-15 -39t15 -39t40 -16z" />
    <glyph glyph-name="uhungarumlaut" unicode="&#x171;" horiz-adv-x="590" 
d="M270 -10q-91 0 -145.5 57.5t-54.5 157.5v295h80v-290q0 -72 36.5 -108.5t98.5 -36.5q45 0 80 20.5t55 58t20 86.5v270h80v-500h-80v75h-1q-23 -36 -66.5 -60.5t-102.5 -24.5zM185 605l70 145h90v-1l-100 -144h-60zM335 605l70 145h90v-1l-100 -144h-60z" />
    <glyph glyph-name="uogonek" unicode="&#x173;" horiz-adv-x="590" 
d="M445 -230q-48 0 -76.5 26.5t-28.5 68.5q0 28 16.5 54t42.5 46.5t56 34.5h-15v75h-1q-23 -36 -66.5 -60.5t-102.5 -24.5q-91 0 -145.5 57.5t-54.5 157.5v295h80v-290q0 -70 36.5 -107.5t98.5 -37.5q45 0 80 20.5t55 58t20 86.5v270h80v-500q-50 -25 -85 -59t-35 -71
q0 -19 14 -32t36 -13q33 0 70 20v-55q-13 -8 -33 -14t-42 -6z" />
    <glyph glyph-name="uni0289" unicode="&#x289;" 
d="M280 -10q-91 0 -145.5 57.5t-54.5 157.5v75h-70v70h70v150h80v-150h290v150h80v-150h70v-70h-70v-280h-80v75h-1q-23 -36 -66.5 -60.5t-102.5 -24.5zM295 65q45 0 80 20.5t55 58t20 86.5v50h-290v-70q0 -72 36.5 -108.5t98.5 -36.5z" />
    <glyph glyph-name="wcircumflex" unicode="&#x175;" horiz-adv-x="775" 
d="M140 0l-110 500h85l90 -425h25l85 425h145l85 -425h25l90 425h85l-110 -500h-155l-85 425h-15l-85 -425h-155zM230 605v1l110 144h90l110 -144v-1h-85l-65 90h-10l-65 -90h-85z" />
    <glyph glyph-name="wgrave" unicode="&#x1e81;" horiz-adv-x="775" 
d="M140 0l-110 500h85l90 -425h25l85 425h145l85 -425h25l90 425h85l-110 -500h-155l-85 425h-15l-85 -425h-155zM355 605l-115 144v1h100l85 -145h-70z" />
    <glyph glyph-name="wacute" unicode="&#x1e83;" horiz-adv-x="775" 
d="M140 0l-110 500h85l90 -425h25l85 425h145l85 -425h25l90 425h85l-110 -500h-155l-85 425h-15l-85 -425h-155zM355 605l85 145h100v-1l-115 -144h-70z" />
    <glyph glyph-name="wdieresis" unicode="&#x1e85;" horiz-adv-x="775" 
d="M140 0l-110 500h85l90 -425h25l85 425h145l85 -425h25l90 425h85l-110 -500h-155l-85 425h-15l-85 -425h-155zM295 620q-22 0 -38.5 16.5t-16.5 38.5q0 23 16.5 39t38.5 16q23 0 39 -16t16 -39q0 -22 -16 -38.5t-39 -16.5zM475 620q-22 0 -38.5 16.5t-16.5 38.5
q0 23 16.5 39t38.5 16q23 0 39 -16t16 -39q0 -22 -16 -38.5t-39 -16.5z" />
    <glyph glyph-name="yacute" unicode="&#xfd;" horiz-adv-x="505" 
d="M210 -190l60 190h-115l-135 500h85l110 -425h75l130 425h85l-210 -690h-85zM225 605l85 145h100v-1l-115 -144h-70z" />
    <glyph glyph-name="ycircumflex" unicode="&#x177;" horiz-adv-x="505" 
d="M210 -190l60 190h-115l-135 500h85l110 -425h75l130 425h85l-210 -690h-85zM105 605v1l110 144h90l110 -144v-1h-85l-65 90h-10l-65 -90h-85z" />
    <glyph glyph-name="ydieresis" unicode="&#xff;" horiz-adv-x="505" 
d="M210 -190l60 190h-115l-135 500h85l110 -425h75l130 425h85l-210 -690h-85zM170 620q-22 0 -38.5 16.5t-16.5 38.5q0 23 16.5 39t38.5 16q23 0 39 -16t16 -39q0 -22 -16 -38.5t-39 -16.5zM350 620q-22 0 -38.5 16.5t-16.5 38.5q0 23 16.5 39t38.5 16q23 0 39 -16t16 -39
q0 -22 -16 -38.5t-39 -16.5z" />
    <glyph glyph-name="ygrave" unicode="&#x1ef3;" horiz-adv-x="505" 
d="M210 -190l60 190h-115l-135 500h85l110 -425h75l130 425h85l-210 -690h-85zM225 605l-115 144v1h100l85 -145h-70z" />
    <glyph glyph-name="uni0233" unicode="&#x233;" horiz-adv-x="505" 
d="M210 -190l60 190h-115l-135 500h85l110 -425h75l130 425h85l-210 -690h-85zM120 645v70h270v-70h-270z" />
    <glyph glyph-name="zacute" unicode="&#x17a;" horiz-adv-x="465" 
d="M25 0v75l300 349v1h-290v75h395v-75l-300 -349v-1h310v-75h-415zM195 605l85 145h100v-1l-115 -144h-70z" />
    <glyph glyph-name="zdotaccent" unicode="&#x17c;" horiz-adv-x="465" 
d="M25 0v75l300 349v1h-290v75h395v-75l-300 -349v-1h310v-75h-415zM240 620q-22 0 -38.5 16.5t-16.5 38.5q0 23 16.5 39t38.5 16q23 0 39 -16t16 -39q0 -22 -16 -38.5t-39 -16.5z" />
    <glyph glyph-name="zcaron" unicode="&#x17e;" horiz-adv-x="465" 
d="M25 0v75l300 349v1h-290v75h395v-75l-300 -349v-1h310v-75h-415zM190 605l-110 144v1h85l65 -90h10l65 90h85v-1l-110 -144h-90z" />
    <glyph glyph-name="uni0259" unicode="&#x259;" horiz-adv-x="580" 
d="M285 -10q-66 0 -122 30.5t-89.5 87.5t-33.5 132v45h418q-6 44 -30 78t-60 53t-78 19q-53 0 -92 -21.5t-63 -58.5h-80q20 51 55 86t81 52t99 17q69 0 126.5 -34t90.5 -93t33 -133t-33.5 -133.5t-91.5 -93t-130 -33.5zM285 65q47 0 82.5 18.5t58.5 52t32 79.5h-338
q5 -45 26 -79t56.5 -52.5t82.5 -18.5z" />
    <glyph glyph-name="uni02BC" unicode="&#x2bc;" horiz-adv-x="175" 
d="M35 535q29 4 44.5 17.5t15.5 32.5q0 5 -1.5 9t-3.5 6q-5 -5 -15 -5q-19 0 -32 14t-13 36q0 20 15 35t40 15q27 0 43.5 -20t16.5 -60q0 -37 -13 -63t-37.5 -40t-59.5 -17v40z" />
    <glyph glyph-name="acute" unicode="&#xb4;" horiz-adv-x="245" 
d="M30 605l85 145h100v-1l-115 -144h-70z" />
    <glyph glyph-name="breve" unicode="&#x2d8;" horiz-adv-x="350" 
d="M175 615q-66 0 -105.5 35.5t-39.5 89.5h70q0 -31 19 -48t56 -17t56 17t19 48h70q0 -54 -39.5 -89.5t-105.5 -35.5z" />
    <glyph glyph-name="uniF6D1" unicode="&#xf6d1;" horiz-adv-x="380" 
d="M190 600q-74 0 -117 39.5t-43 100.5h80q0 -34 21.5 -54.5t58.5 -20.5t58.5 20.5t21.5 54.5h80q0 -61 -43.5 -100.5t-116.5 -39.5z" />
    <glyph glyph-name="uniF6D4" unicode="&#xf6d4;" horiz-adv-x="360" 
d="M180 615q-69 0 -109.5 35.5t-40.5 89.5h75q0 -27 19.5 -43.5t55.5 -16.5t55.5 16.5t19.5 43.5h75q0 -54 -40.5 -89.5t-109.5 -35.5z" />
    <glyph glyph-name="caron" unicode="&#x2c7;" horiz-adv-x="370" 
d="M140 605l-110 144v1h85l65 -90h10l65 90h85v-1l-110 -144h-90z" />
    <glyph glyph-name="cedilla" unicode="&#xb8;" horiz-adv-x="245" 
d="M105 -240q-17 0 -31.5 3t-25.5 7.5t-18 9.5v55q12 -8 31 -14t44 -6t37.5 11.5t12.5 28.5q0 20 -13 30t-42 10h-40l50 115h55l-30 -65q33 -6 56.5 -28.5t23.5 -61.5t-31 -67t-79 -28z" />
    <glyph glyph-name="circumflex" unicode="&#x2c6;" horiz-adv-x="370" 
d="M30 605v1l110 144h90l110 -144v-1h-85l-65 90h-10l-65 -90h-85z" />
    <glyph glyph-name="uniF6C3" unicode="&#xf6c3;" horiz-adv-x="0" 
d="M-140 -260q29 4 44.5 17.5t15.5 32.5q0 5 -1.5 9t-3.5 6q-6 -5 -15 -5q-19 0 -32 14t-13 36q0 20 15 35t40 15q27 0 43.5 -20t16.5 -60q0 -37 -13 -63t-37.5 -40t-59.5 -17v40z" />
    <glyph glyph-name="dieresis" unicode="&#xa8;" horiz-adv-x="350" 
d="M85 620q-22 0 -38.5 16.5t-16.5 38.5q0 23 16.5 39t38.5 16q23 0 39 -16t16 -39q0 -22 -16 -38.5t-39 -16.5zM265 620q-22 0 -38.5 16.5t-16.5 38.5q0 23 16.5 39t38.5 16q23 0 39 -16t16 -39q0 -22 -16 -38.5t-39 -16.5z" />
    <glyph glyph-name="dotaccent" unicode="&#x2d9;" horiz-adv-x="170" 
d="M85 620q-22 0 -38.5 16.5t-16.5 38.5q0 23 16.5 39t38.5 16q23 0 39 -16t16 -39q0 -22 -16 -38.5t-39 -16.5z" />
    <glyph glyph-name="grave" unicode="`" horiz-adv-x="245" 
d="M145 605l-115 144v1h100l85 -145h-70z" />
    <glyph glyph-name="hungarumlaut" unicode="&#x2dd;" horiz-adv-x="370" 
d="M30 605l70 145h90v-1l-100 -144h-60zM180 605l70 145h90v-1l-100 -144h-60z" />
    <glyph glyph-name="macron" unicode="&#xaf;" horiz-adv-x="330" 
d="M30 645v70h270v-70h-270z" />
    <glyph glyph-name="periodcentered" unicode="&#xb7;" horiz-adv-x="280" 
d="M140 210q-26 0 -43 17t-17 43t17 43t43 17t43 -17t17 -43t-17 -43t-43 -17z" />
    <glyph glyph-name="ring" unicode="&#x2da;" horiz-adv-x="270" 
d="M135 570q-30 0 -54 13.5t-37.5 37.5t-13.5 54t13.5 54t37.5 37.5t54 13.5t54 -13.5t37.5 -37.5t13.5 -54t-13.5 -54t-37.5 -37.5t-54 -13.5zM135 620q25 0 40 16t15 39t-15 39t-40 16t-40 -16t-15 -39t15 -39t40 -16z" />
    <glyph glyph-name="ogonek" unicode="&#x2db;" horiz-adv-x="240" 
d="M135 -230q-48 0 -76.5 26.5t-28.5 68.5t33.5 77t81.5 58h65q-50 -25 -85 -59t-35 -71q0 -19 14 -32t36 -13q33 0 70 20v-55q-13 -8 -33 -14t-42 -6z" />
    <glyph glyph-name="tilde" unicode="&#x2dc;" horiz-adv-x="380" 
d="M255 615q-27 0 -45.5 9.5t-38.5 26.5q-14 12 -24 18t-22 6q-15 0 -22.5 -7.5t-7.5 -22.5v-25h-65v28q0 39 27 65.5t68 26.5q27 0 45.5 -9.5t38.5 -26.5q14 -12 24 -18t22 -6q15 0 22.5 7.5t7.5 22.5v25h65v-28q0 -39 -27 -65.5t-68 -26.5z" />
    <glyph glyph-name="uni0301" unicode="&#x301;" horiz-adv-x="0" 
d="M-415 825l65 115h80v-1l-90 -114h-55z" />
    <glyph glyph-name="uni030A" unicode="&#x30a;" horiz-adv-x="0" 
d="M-335 740q-30 0 -54 13.5t-37.5 37.5t-13.5 54t13.5 54t37.5 37.5t54 13.5t54 -13.5t37.5 -37.5t13.5 -54t-13.5 -54t-37.5 -37.5t-54 -13.5zM-335 790q25 0 40 16t15 39t-15 39t-40 16t-40 -16t-15 -39t15 -39t40 -16z" />
    <glyph glyph-name="uni0410" unicode="&#x410;" horiz-adv-x="675" 
d="M20 0l180 700h275l180 -700h-90l-55 205h-345l-55 -205h-90zM185 290h305l-85 325h-135z" />
    <glyph glyph-name="uni0411" unicode="&#x411;" horiz-adv-x="675" 
d="M80 0v700h495v-85h-405v-185h205q78 0 134.5 -27.5t86 -76t29.5 -111.5t-29.5 -111.5t-86 -76t-134.5 -27.5h-295zM375 85q77 0 118.5 36t41.5 94t-41.5 94t-118.5 36h-205v-260h205z" />
    <glyph glyph-name="uni0412" unicode="&#x412;" horiz-adv-x="700" 
d="M80 0v700h335q61 0 107.5 -24t72 -65t25.5 -91q0 -59 -29 -97t-71 -53v-5q54 -11 92 -52.5t38 -112.5q0 -58 -28 -103.5t-82 -71t-130 -25.5h-330zM410 85q49 0 82.5 15t50.5 41t17 59q0 36 -17 63t-50.5 42t-82.5 15h-240v-235h240zM410 405q55 0 87.5 29.5t32.5 75.5
t-32.5 75.5t-87.5 29.5h-240v-210h240z" />
    <glyph glyph-name="uni0413" unicode="&#x413;" horiz-adv-x="545" 
d="M80 0v700h445v-85h-355v-615h-90z" />
    <glyph glyph-name="uni0414" unicode="&#x414;" horiz-adv-x="745" 
d="M5 -135v220h80l155 615h265l155 -615h80v-220h-90v135h-555v-135h-90zM175 85h395l-135 530h-125z" />
    <glyph glyph-name="uni0415" unicode="&#x415;" 
d="M80 0v700h490v-85h-400v-220h325v-85h-325v-225h400v-85h-490z" />
    <glyph glyph-name="uni0401" unicode="&#x401;" 
d="M80 0v700h490v-85h-400v-220h325v-85h-325v-225h400v-85h-490zM244 805q-22 0 -38.5 16.5t-16.5 38.5q0 23 16.5 39t38.5 16q23 0 39 -16t16 -39q0 -22 -16 -38.5t-39 -16.5zM424 805q-22 0 -38.5 16.5t-16.5 38.5q0 23 16.5 39t38.5 16q23 0 39 -16t16 -39
q0 -22 -16 -38.5t-39 -16.5z" />
    <glyph glyph-name="uni0416" unicode="&#x416;" horiz-adv-x="990" 
d="M10 0l255 360l-245 340h105l220 -305h105v305h90v-305h105l220 305h105l-245 -340l255 -360h-110l-220 310h-110v-310h-90v310h-110l-220 -310h-110z" />
    <glyph glyph-name="uni0417" unicode="&#x417;" horiz-adv-x="635" 
d="M320 -20q-85 0 -147 31t-98 81t-50 108h90q18 -56 70 -95.5t135 -39.5q58 0 97.5 16.5t58.5 44.5t19 64t-19 64t-58.5 44.5t-97.5 16.5h-90v85h90q72 0 113.5 34.5t41.5 85.5q0 31 -18.5 57t-53.5 42t-83 16q-74 0 -120.5 -35t-64.5 -85h-90q15 54 49.5 100.5t91.5 75.5
t134 29q75 0 130.5 -26.5t85 -72t29.5 -101.5q0 -59 -32 -98.5t-78 -56.5v-5q54 -15 92 -58t38 -112q0 -58 -31.5 -106t-91.5 -76t-142 -28z" />
    <glyph glyph-name="uni0418" unicode="&#x418;" horiz-adv-x="725" 
d="M80 0v700h90v-575l-1 -10h2l354 585h120v-700h-90v575l1 10h-2l-354 -585h-120z" />
    <glyph glyph-name="uni0419" unicode="&#x419;" horiz-adv-x="725" 
d="M80 0v700h90v-575l-1 -10h2l354 585h120v-700h-90v575l1 10h-2l-354 -585h-120zM365 785q-74 0 -117 39.5t-43 100.5h80q0 -34 21.5 -54.5t58.5 -20.5t58.5 20.5t21.5 54.5h80q0 -61 -43.5 -100.5t-116.5 -39.5z" />
    <glyph glyph-name="uni041A" unicode="&#x41a;" horiz-adv-x="650" 
d="M80 0v700h90v-305h135l220 305h105l-245 -340l255 -360h-110l-220 310h-140v-310h-90z" />
    <glyph glyph-name="uni041B" unicode="&#x41b;" horiz-adv-x="660" 
d="M20 0l180 700h260l180 -700h-90l-160 615h-120l-160 -615h-90z" />
    <glyph glyph-name="uni041C" unicode="&#x41c;" horiz-adv-x="915" 
d="M80 0v700h145l210 -450h45l210 450h145v-700h-90v600l1 10h-2l-204 -440h-165l-204 440h-2l1 -10v-600h-90z" />
    <glyph glyph-name="uni041D" unicode="&#x41d;" horiz-adv-x="715" 
d="M80 0v700h90v-305h375v305h90v-700h-90v310h-375v-310h-90z" />
    <glyph glyph-name="uni041E" unicode="&#x41e;" horiz-adv-x="820" 
d="M410 -20q-104 0 -187 47.5t-130.5 132t-47.5 190.5t47.5 190.5t130.5 132t187 47.5t187 -47.5t130.5 -132t47.5 -190.5t-47.5 -190.5t-130.5 -132t-187 -47.5zM410 65q79 0 142 36t98 100.5t35 148.5t-35 148.5t-98 100.5t-142 36t-142 -36t-98 -100.5t-35 -148.5
t35 -148.5t98 -100.5t142 -36z" />
    <glyph glyph-name="uni041F" unicode="&#x41f;" horiz-adv-x="715" 
d="M80 0v700h555v-700h-90v615h-375v-615h-90z" />
    <glyph glyph-name="uni0420" unicode="&#x420;" horiz-adv-x="670" 
d="M80 0v700h295q78 0 137 -30t91 -82.5t32 -117.5t-32 -117.5t-91 -82.5t-137 -30h-205v-240h-90zM375 325q81 0 125.5 40t44.5 105t-44.5 105t-125.5 40h-205v-290h205z" />
    <glyph glyph-name="uni0421" unicode="&#x421;" horiz-adv-x="800" 
d="M410 -20q-104 0 -187 47.5t-130.5 132t-47.5 190.5t47.5 190.5t130.5 132t187 47.5q95 0 166.5 -36t115 -93.5t63.5 -125.5h-90q-27 71 -92 120.5t-163 49.5q-79 0 -142 -36t-98 -100.5t-35 -148.5t35 -148.5t98 -100.5t142 -36q101 0 167 54t93 131h90
q-22 -71 -67.5 -132.5t-117 -99.5t-165.5 -38z" />
    <glyph glyph-name="uni0422" unicode="&#x422;" horiz-adv-x="590" 
d="M250 0v615h-240v85h570v-85h-240v-615h-90z" />
    <glyph glyph-name="uni0423" unicode="&#x423;" horiz-adv-x="595" 
d="M225 0l110 265h-160l-170 435h95l135 -350h135l135 350h95l-280 -700h-95z" />
    <glyph glyph-name="uni0424" unicode="&#x424;" horiz-adv-x="880" 
d="M395 45q-105 0 -185.5 41.5t-125 112.5t-44.5 156t44.5 156t125 112.5t185.5 41.5v80h90v-80q105 0 185.5 -41.5t125 -112.5t44.5 -156t-44.5 -156t-125 -112.5t-185.5 -41.5v-80h-90v80zM395 585q-81 0 -141 -30t-92 -82.5t-32 -117.5t32 -117.5t92 -82.5t141 -30v460z
M485 125q81 0 141 30t92 82.5t32 117.5t-32 117.5t-92 82.5t-141 30v-460z" />
    <glyph glyph-name="uni0425" unicode="&#x425;" horiz-adv-x="630" 
d="M20 0l185 345l-175 355h95l155 -310h70l155 310h95l-175 -355l185 -345h-95l-165 305h-70l-165 -305h-95z" />
    <glyph glyph-name="uni0426" unicode="&#x426;" horiz-adv-x="720" 
d="M610 -135v135h-530v700h90v-615h345v615h90v-615h95v-220h-90z" />
    <glyph glyph-name="uni0427" unicode="&#x427;" horiz-adv-x="670" 
d="M500 280q-34 -23 -86.5 -39t-113.5 -16q-72 0 -125 28.5t-81.5 83t-28.5 128.5v235h90v-235q0 -75 43.5 -117.5t121.5 -42.5q56 0 103 16t77 39v340h90v-700h-90v280z" />
    <glyph glyph-name="uni0428" unicode="&#x428;" horiz-adv-x="990" 
d="M80 0v700h90v-615h280v615h90v-615h280v615h90v-700h-830z" />
    <glyph glyph-name="uni0429" unicode="&#x429;" horiz-adv-x="1025" 
d="M915 -135v135h-835v700h90v-615h280v615h90v-615h280v615h90v-615h95v-220h-90z" />
    <glyph glyph-name="uni042A" unicode="&#x42a;" horiz-adv-x="730" 
d="M155 0v615h-155v85h245v-240h195q78 0 137 -30t91 -82.5t32 -117.5t-32 -117.5t-91 -82.5t-137 -30h-285zM440 85q81 0 125.5 40t44.5 105t-44.5 105t-125.5 40h-195v-290h195z" />
    <glyph glyph-name="uni042B" unicode="&#x42b;" horiz-adv-x="870" 
d="M80 0v700h90v-240h180q78 0 137 -30t91 -82.5t32 -117.5t-32 -117.5t-91 -82.5t-137 -30h-270zM350 85q81 0 125.5 40t44.5 105t-44.5 105t-125.5 40h-180v-290h180zM700 0v700h90v-700h-90z" />
    <glyph glyph-name="uni042C" unicode="&#x42c;" horiz-adv-x="665" 
d="M80 0v700h90v-240h205q78 0 137 -30t91 -82.5t32 -117.5t-32 -117.5t-91 -82.5t-137 -30h-295zM375 85q81 0 125.5 40t44.5 105t-44.5 105t-125.5 40h-205v-290h205z" />
    <glyph glyph-name="uni042D" unicode="&#x42d;" horiz-adv-x="795" 
d="M385 -20q-94 0 -165.5 38t-117 99.5t-67.5 132.5h90q27 -77 93 -131t167 -54q73 0 132 32t95 87.5t43 125.5h-300v85h300q-8 68 -43.5 122.5t-94.5 86t-132 31.5q-98 0 -163 -49.5t-92 -120.5h-90q20 68 63.5 125.5t115 93.5t166.5 36q104 0 187 -47.5t130.5 -132
t47.5 -190.5t-47.5 -190.5t-130.5 -132t-187 -47.5z" />
    <glyph glyph-name="uni042E" unicode="&#x42e;" horiz-adv-x="1030" 
d="M630 -20q-93 0 -170.5 42.5t-126 118t-58.5 169.5h-105v-310h-90v700h90v-305h105q12 92 60.5 166t125 116.5t169.5 42.5q99 0 180 -47.5t128 -132t47 -190.5t-47 -190.5t-128 -132t-180 -47.5zM630 65q75 0 135.5 36t95 101t34.5 148t-34.5 148t-95 101t-135.5 36
t-135.5 -36t-95 -101t-34.5 -148t34.5 -148t95 -101t135.5 -36z" />
    <glyph glyph-name="uni042F" unicode="&#x42f;" horiz-adv-x="685" 
d="M220 270q-78 24 -124 77t-46 133q0 63 30.5 113t88.5 78.5t136 28.5h300v-700h-90v260h-200l-155 -260h-105zM305 345h210v270h-210q-80 0 -122.5 -36.5t-42.5 -98.5t42.5 -98.5t122.5 -36.5z" />
    <glyph glyph-name="uni0490" unicode="&#x490;" horiz-adv-x="545" 
d="M80 0v700h355v100h90v-185h-355v-615h-90z" />
    <glyph glyph-name="uni0402" unicode="&#x402;" horiz-adv-x="785" 
d="M505 -100v85h135v200q0 72 -43.5 113.5t-121.5 41.5h-175v-340h-90v615h-210v85h525v-85h-225v-190h175q76 0 134 -30.5t89.5 -85t31.5 -124.5v-285h-225z" />
    <glyph glyph-name="uni0403" unicode="&#x403;" horiz-adv-x="545" 
d="M80 0v700h445v-85h-355v-615h-90zM267 790l85 145h100v-1l-115 -144h-70z" />
    <glyph glyph-name="uni0404" unicode="&#x404;" horiz-adv-x="800" 
d="M410 -20q-104 0 -187 47.5t-130.5 132t-47.5 190.5t47.5 190.5t130.5 132t187 47.5q95 0 166.5 -36t115 -93.5t63.5 -125.5h-90q-27 71 -92 120.5t-163 49.5q-73 0 -132 -31.5t-94.5 -86t-43.5 -122.5h300v-85h-300q8 -70 43.5 -125.5t94.5 -87.5t132 -32q101 0 167 54
t93 131h90q-22 -71 -67.5 -132.5t-117 -99.5t-165.5 -38z" />
    <glyph glyph-name="uni0405" unicode="&#x405;" horiz-adv-x="640" 
d="M330 -20q-85 0 -146 31t-96 81t-48 108h90q16 -56 66.5 -95.5t133.5 -39.5q58 0 97.5 16t58.5 43t19 61q0 36 -24.5 59.5t-61 37.5t-100.5 32q-81 23 -130 43t-84 59.5t-35 103.5q0 53 30.5 99t87.5 73.5t132 27.5q79 0 136 -27.5t89.5 -71.5t44.5 -96h-90q-14 46 -59 78
t-121 32q-50 0 -86.5 -16t-55 -42t-18.5 -57q0 -35 24 -58t60.5 -37t99.5 -31q81 -23 131 -44t85 -61t35 -104q0 -56 -31.5 -102.5t-91.5 -74.5t-142 -28z" />
    <glyph glyph-name="uni0406" unicode="&#x406;" horiz-adv-x="250" 
d="M80 0v700h90v-700h-90z" />
    <glyph glyph-name="uni0407" unicode="&#x407;" horiz-adv-x="250" 
d="M80 0v700h90v-700h-90zM35 805q-22 0 -38.5 16.5t-16.5 38.5q0 23 16.5 39t38.5 16q23 0 39 -16t16 -39q0 -22 -16 -38.5t-39 -16.5zM215 805q-22 0 -38.5 16.5t-16.5 38.5q0 23 16.5 39t38.5 16q23 0 39 -16t16 -39q0 -22 -16 -38.5t-39 -16.5z" />
    <glyph glyph-name="uni0408" unicode="&#x408;" horiz-adv-x="550" 
d="M235 -25q-96 0 -155 52.5t-80 127.5l90 20q13 -48 49.5 -81.5t95.5 -33.5q68 0 106.5 41t38.5 119v480h90v-480q0 -77 -28.5 -132t-81.5 -84t-125 -29z" />
    <glyph glyph-name="uni0409" unicode="&#x409;" horiz-adv-x="1050" 
d="M20 0l175 700h375v-240h190q78 0 137 -30t91 -82.5t32 -117.5t-32 -117.5t-91 -82.5t-137 -30h-280v615h-220l-150 -615h-90zM760 85q81 0 125.5 40t44.5 105t-44.5 105t-125.5 40h-190v-290h190z" />
    <glyph glyph-name="uni040A" unicode="&#x40a;" horiz-adv-x="1110" 
d="M80 0v700h90v-270h365v270h90v-270h205q78 0 134.5 -27.5t86 -76t29.5 -111.5t-29.5 -111.5t-86 -76t-134.5 -27.5h-295v345h-365v-345h-90zM830 85q80 0 120 34t40 96t-40 96t-120 34h-205v-260h205z" />
    <glyph glyph-name="uni040B" unicode="&#x40b;" horiz-adv-x="785" 
d="M210 0v615h-210v85h525v-85h-225v-190h175q76 0 134 -30.5t89.5 -85t31.5 -124.5v-185h-90v185q0 72 -43.5 113.5t-121.5 41.5h-175v-340h-90z" />
    <glyph glyph-name="uni040C" unicode="&#x40c;" horiz-adv-x="650" 
d="M80 0v700h90v-305h135l220 305h105l-245 -340l255 -360h-110l-220 310h-140v-310h-90zM292 790l85 145h100v-1l-115 -144h-70z" />
    <glyph glyph-name="uni040E" unicode="&#x40e;" horiz-adv-x="595" 
d="M225 0l110 265h-160l-170 435h95l135 -350h135l135 350h95l-280 -700h-95zM305 785q-74 0 -117 39.5t-43 100.5h80q0 -34 21.5 -54.5t58.5 -20.5t58.5 20.5t21.5 54.5h80q0 -61 -43.5 -100.5t-116.5 -39.5z" />
    <glyph glyph-name="uni040F" unicode="&#x40f;" horiz-adv-x="710" 
d="M310 -135v135h-230v700h90v-615h370v615h90v-700h-230v-135h-90z" />
    <glyph glyph-name="uni04D8" unicode="&#x4d8;" horiz-adv-x="820" 
d="M410 -20q-101 0 -180.5 45.5t-124.5 124t-45 175.5v65h622q-8 76 -46 131.5t-97 84.5t-129 29q-86 0 -149 -39.5t-101 -115.5h-90q25 73 73 127t116 83.5t151 29.5q104 0 187 -47.5t130.5 -132t47.5 -190.5t-47.5 -190.5t-130.5 -132t-187 -47.5zM405 65q74 0 134.5 30.5
t97.5 86t45 128.5h-532q5 -72 39 -127.5t90.5 -86.5t125.5 -31z" />
    <glyph glyph-name="uni0430" unicode="&#x430;" 
d="M280 -10q-65 0 -120 34t-87.5 93.5t-32.5 132.5t32.5 132.5t87.5 93.5t120 34q58 0 97.5 -20t60.5 -43.5t21 -27.5h1v81h80v-500h-80v80h-1q0 -4 -21 -27t-60.5 -43t-97.5 -20zM290 65q47 0 86 23.5t61.5 65.5t22.5 96t-22.5 96t-61.5 65.5t-86 23.5t-86 -23.5
t-61.5 -65.5t-22.5 -96t22.5 -96t61.5 -65.5t86 -23.5z" />
    <glyph glyph-name="uni0431" unicode="&#x431;" horiz-adv-x="560" 
d="M285 65q47 0 84.5 21t59 57.5t21.5 81.5t-21.5 81.5t-59 57.5t-84.5 21t-84.5 -21t-59 -57.5t-21.5 -81.5t21.5 -81.5t59 -57.5t84.5 -21zM285 -10q-73 0 -128.5 33t-86 96t-30.5 151v2q0 151 38 246t111 138.5t181 43.5h120v-85h-120q-119 0 -177 -55t-73 -180h1
q23 33 68 56.5t106 23.5q67 0 120.5 -30.5t84 -84t30.5 -120.5t-31 -120.5t-87 -84t-127 -30.5z" />
    <glyph glyph-name="uni0432" unicode="&#x432;" horiz-adv-x="525" 
d="M70 0v500h245q46 0 80 -16.5t52 -45t18 -63.5q0 -56 -26 -80t-48 -29h-1v-1h1q14 -2 35 -12.5t40 -37t19 -70.5q0 -65 -44.5 -105t-124.5 -40h-246zM315 75q44 0 67 20t23 55t-23 55t-67 20h-165v-150h165zM310 295q37 0 56 17t19 48t-19 48t-56 17h-160v-130h160z" />
    <glyph glyph-name="uni0433" unicode="&#x433;" horiz-adv-x="425" 
d="M70 0v500h345v-75h-265v-425h-80z" />
    <glyph glyph-name="uni0434" unicode="&#x434;" horiz-adv-x="560" 
d="M5 -115v190h55l115 425h210l115 -425h55v-190h-80v115h-390v-115h-80zM140 75h280l-95 350h-90z" />
    <glyph glyph-name="uni0435" unicode="&#x435;" horiz-adv-x="590" 
d="M295 -10q-72 0 -130 33.5t-91.5 93t-33.5 133.5t33.5 133.5t91.5 93t130 33.5q71 0 129.5 -33.5t92 -92t33.5 -129.5v-30h-430q5 -46 29.5 -82.5t62.5 -57t83 -20.5q59 0 101.5 26t63.5 64h80q-27 -69 -89.5 -117t-155.5 -48zM465 295q-5 38 -27.5 70t-59.5 51t-83 19
t-83 -19t-60 -51t-30 -70h343z" />
    <glyph glyph-name="uni0451" unicode="&#x451;" horiz-adv-x="590" 
d="M295 -10q-72 0 -130 33.5t-91.5 93t-33.5 133.5t33.5 133.5t91.5 93t130 33.5q71 0 129.5 -33.5t92 -92t33.5 -129.5v-30h-430q5 -46 29.5 -82.5t62.5 -57t83 -20.5q59 0 101.5 26t63.5 64h80q-27 -69 -89.5 -117t-155.5 -48zM465 295q-5 38 -27.5 70t-59.5 51t-83 19
t-83 -19t-60 -51t-30 -70h343zM209 620q-22 0 -38.5 16.5t-16.5 38.5q0 23 16.5 39t38.5 16q23 0 39 -16t16 -39q0 -22 -16 -38.5t-39 -16.5zM389 620q-22 0 -38.5 16.5t-16.5 38.5q0 23 16.5 39t38.5 16q23 0 39 -16t16 -39q0 -22 -16 -38.5t-39 -16.5z" />
    <glyph glyph-name="uni0436" unicode="&#x436;" horiz-adv-x="780" 
d="M5 0l190 265l-175 235h95l150 -200h85v200h80v-200h85l150 200h95l-175 -235l190 -265h-100l-160 225h-85v-225h-80v225h-85l-160 -225h-100z" />
    <glyph glyph-name="uni0437" unicode="&#x437;" horiz-adv-x="485" 
d="M240 -10q-98 0 -152.5 48t-67.5 117h80q9 -38 44 -64t96 -26q60 0 92.5 23.5t32.5 56.5t-30 54t-90 21h-60v75h60q57 0 83.5 19t26.5 51q0 29 -29.5 49.5t-85.5 20.5q-52 0 -83 -22t-42 -53h-80q14 63 65.5 106.5t139.5 43.5q63 0 107 -19t66 -50.5t22 -70.5
q0 -38 -17 -62t-35.5 -34t-32.5 -14v0v-1h2q31 -9 62 -35t31 -84q0 -41 -23.5 -75t-70 -54.5t-111.5 -20.5z" />
    <glyph glyph-name="uni0438" unicode="&#x438;" horiz-adv-x="580" 
d="M70 0v500h80v-375l-1 -10h2l269 385h90v-500h-80v375l1 10h-2l-269 -385h-90z" />
    <glyph glyph-name="uni0439" unicode="&#x439;" horiz-adv-x="580" 
d="M70 0v500h80v-375l-1 -10h2l269 385h90v-500h-80v375l1 10h-2l-269 -385h-90zM292 615q-69 0 -109.5 35.5t-40.5 89.5h75q0 -27 19.5 -43.5t55.5 -16.5t55.5 16.5t19.5 43.5h75q0 -54 -40.5 -89.5t-109.5 -35.5z" />
    <glyph glyph-name="uni043A" unicode="&#x43a;" horiz-adv-x="525" 
d="M70 0v500h80v-200h100l160 200h95l-185 -235l200 -265h-100l-170 225h-100v-225h-80z" />
    <glyph glyph-name="uni043B" unicode="&#x43b;" horiz-adv-x="510" 
d="M10 0l140 500h210l140 -500h-85l-115 425h-90l-115 -425h-85z" />
    <glyph glyph-name="uni043C" unicode="&#x43c;" horiz-adv-x="705" 
d="M70 0v500h120l150 -310h25l150 310h120v-500h-80v400l1 10h-2l-149 -310h-105l-149 310h-2l1 -10v-400h-80z" />
    <glyph glyph-name="uni043D" unicode="&#x43d;" horiz-adv-x="580" 
d="M70 0v500h80v-205h280v205h80v-500h-80v220h-280v-220h-80z" />
    <glyph glyph-name="uni043E" unicode="&#x43e;" horiz-adv-x="600" 
d="M300 -10q-74 0 -133.5 33.5t-93 93t-33.5 133.5t33.5 133.5t93 93t133.5 33.5t133.5 -33.5t93 -93t33.5 -133.5t-33.5 -133.5t-93 -93t-133.5 -33.5zM300 65q52 0 93 23.5t64 65.5t23 96t-23 96t-64 65.5t-93 23.5t-93 -23.5t-64 -65.5t-23 -96t23 -96t64 -65.5t93 -23.5
z" />
    <glyph glyph-name="uni043F" unicode="&#x43f;" horiz-adv-x="575" 
d="M70 0v500h435v-500h-80v425h-275v-425h-80z" />
    <glyph glyph-name="uni0440" unicode="&#x440;" 
d="M70 -190v690h80v-80h1q0 4 21 27t60.5 43t97.5 20q65 0 120 -34t87.5 -93.5t32.5 -132.5t-32.5 -132.5t-87.5 -93.5t-120 -34q-58 0 -97.5 20t-60.5 43t-21 27h-1v-270h-80zM320 65q47 0 86 23.5t61.5 65.5t22.5 96t-22.5 96t-61.5 65.5t-86 23.5t-86 -23.5t-61.5 -65.5
t-22.5 -96t22.5 -96t61.5 -65.5t86 -23.5z" />
    <glyph glyph-name="uni0441" unicode="&#x441;" horiz-adv-x="565" 
d="M290 -10q-69 0 -126.5 34t-90.5 93t-33 133t33 133t90.5 93t126.5 34q67 0 116.5 -25t80 -64.5t43.5 -85.5h-80q-17 42 -58 71t-102 29q-47 0 -86 -23.5t-61.5 -65.5t-22.5 -96t23 -96t62 -65.5t85 -23.5q64 0 106 32t59 78h80q-13 -49 -44 -91t-81.5 -68t-119.5 -26z
" />
    <glyph glyph-name="uni0442" unicode="&#x442;" horiz-adv-x="440" 
d="M180 0v425h-175v75h430v-75h-175v-425h-80z" />
    <glyph glyph-name="uni0443" unicode="&#x443;" horiz-adv-x="505" 
d="M210 -190l60 190h-115l-135 500h85l110 -425h75l130 425h85l-210 -690h-85z" />
    <glyph glyph-name="uni0444" unicode="&#x444;" horiz-adv-x="670" 
d="M295 -5q-74 5 -133.5 40t-93 91.5t-33.5 123.5t33.5 123.5t93 91.5t133.5 40v195h80v-195q74 -5 133.5 -40t93 -91.5t33.5 -123.5t-33.5 -123.5t-93 -91.5t-133.5 -40v-185h-80v185zM295 430q-52 -2 -93 -26t-64 -64.5t-23 -89.5t23 -89.5t64 -64.5t93 -26v360zM375 70
q52 2 93 26t64 64.5t23 89.5t-23 89.5t-64 64.5t-93 26v-360z" />
    <glyph glyph-name="uni0445" unicode="&#x445;" horiz-adv-x="495" 
d="M10 0l150 255l-145 245h90l120 -205h45l120 205h90l-145 -245l150 -255h-90l-125 220h-45l-125 -220h-90z" />
    <glyph glyph-name="uni0446" unicode="&#x446;" horiz-adv-x="575" 
d="M480 -115v115h-410v500h80v-425h260v425h80v-425h70v-190h-80z" />
    <glyph glyph-name="uni0447" unicode="&#x447;" horiz-adv-x="540" 
d="M390 185q-23 -17 -60.5 -28.5t-84.5 -11.5q-89 0 -139.5 47.5t-50.5 127.5v180h80v-175q0 -49 29.5 -77t85.5 -28q44 0 80.5 10t59.5 25v245h80v-500h-80v185z" />
    <glyph glyph-name="uni0448" unicode="&#x448;" horiz-adv-x="780" 
d="M70 0v500h80v-425h200v425h80v-425h200v425h80v-500h-640z" />
    <glyph glyph-name="uni0449" unicode="&#x449;" horiz-adv-x="795" 
d="M700 -115v115h-630v500h80v-425h200v425h80v-425h200v425h80v-425h70v-190h-80z" />
    <glyph glyph-name="uni044A" unicode="&#x44a;" horiz-adv-x="535" 
d="M110 0v425h-110v75h190v-170h130q56 0 99.5 -22t67 -60t23.5 -83t-23.5 -83t-67 -60t-99.5 -22h-210zM320 75q51 0 80.5 25.5t29.5 64.5t-29.5 64.5t-80.5 25.5h-130v-180h130z" />
    <glyph glyph-name="uni044B" unicode="&#x44b;" horiz-adv-x="675" 
d="M70 0v500h80v-170h120q56 0 99.5 -22t67 -60t23.5 -83t-23.5 -83t-67 -60t-99.5 -22h-200zM270 75q51 0 80.5 25.5t29.5 64.5t-29.5 64.5t-80.5 25.5h-120v-180h120zM525 0v500h80v-500h-80z" />
    <glyph glyph-name="uni044C" unicode="&#x44c;" horiz-adv-x="505" 
d="M70 0v500h80v-170h140q56 0 99.5 -22t67 -60t23.5 -83t-23.5 -83t-67 -60t-99.5 -22h-220zM290 75q51 0 80.5 25.5t29.5 64.5t-29.5 64.5t-80.5 25.5h-140v-180h140z" />
    <glyph glyph-name="uni044D" unicode="&#x44d;" horiz-adv-x="565" 
d="M275 -10q-69 0 -119.5 26t-81.5 68t-44 91h80q17 -46 59 -78t106 -32q44 0 79 18.5t57 52.5t31 79h-207v75h206q-8 43 -30.5 75.5t-57 51t-78.5 18.5q-61 0 -102 -29t-58 -71h-80q13 46 43.5 85.5t80 64.5t116.5 25q69 0 126.5 -34t90.5 -93t33 -133t-33 -133t-90.5 -93
t-126.5 -34z" />
    <glyph glyph-name="uni044E" unicode="&#x44e;" horiz-adv-x="770" 
d="M480 -10q-64 0 -117.5 29t-88 80t-44.5 116h-80v-215h-80v500h80v-210h80q12 65 47 115t87 77.5t116 27.5q69 0 126.5 -34t90.5 -93t33 -133t-33 -133t-90.5 -93t-126.5 -34zM480 65q47 0 86 23.5t61.5 65.5t22.5 96t-22.5 96t-61.5 65.5t-86 23.5t-86 -23.5t-61.5 -65.5
t-22.5 -96t22.5 -96t61.5 -65.5t86 -23.5z" />
    <glyph glyph-name="uni044F" unicode="&#x44f;" horiz-adv-x="540" 
d="M150 180q-42 17 -71 55.5t-29 94.5q0 48 24 86.5t68 61t102 22.5h226v-500h-80v160h-139h-9.5h-11.5l-88 -160h-92zM390 235v190h-145q-55 0 -85 -26t-30 -69t30 -69t85 -26h145z" />
    <glyph glyph-name="uni0491" unicode="&#x491;" horiz-adv-x="425" 
d="M70 0v500h265v90h80v-165h-265v-425h-80z" />
    <glyph glyph-name="uni0452" unicode="&#x452;" horiz-adv-x="585" 
d="M300 -190v75h150v325q0 73 -36 109t-99 36q-45 0 -80 -20.5t-55 -58t-20 -86.5v-190h-80v520h-65v75h65v105h80v-105h125v-75h-125v-175h1q23 36 66.5 60.5t102.5 24.5q91 0 145.5 -57.5t54.5 -157.5v-405h-230z" />
    <glyph glyph-name="uni0453" unicode="&#x453;" horiz-adv-x="425" 
d="M70 0v500h345v-75h-265v-425h-80zM210 605l85 145h100v-1l-115 -144h-70z" />
    <glyph glyph-name="uni0454" unicode="&#x454;" horiz-adv-x="565" 
d="M290 -10q-69 0 -126.5 34t-90.5 93t-33 133t33 133t90.5 93t126.5 34q67 0 116.5 -25t80 -64.5t43.5 -85.5h-80q-17 42 -58 71t-102 29q-44 0 -78.5 -18.5t-57 -51t-30.5 -75.5h206v-75h-207q9 -45 31 -79t57 -52.5t79 -18.5q64 0 106 32t59 78h80q-13 -49 -44 -91
t-81.5 -68t-119.5 -26z" />
    <glyph glyph-name="uni0455" unicode="&#x455;" horiz-adv-x="510" 
d="M265 -10q-65 0 -113 23.5t-76.5 60.5t-40.5 81h85q15 -38 52 -64t93 -26q64 0 94.5 21t30.5 54q0 21 -16.5 34.5t-42 22t-70.5 18.5q-63 14 -103 29t-69 45t-29 81q0 38 22 70t65 51t103 19q91 0 145 -43.5t70 -106.5h-85q-13 31 -45.5 53t-84.5 22q-35 0 -60 -9.5
t-37.5 -24.5t-12.5 -31q0 -21 16.5 -34.5t42 -22t70.5 -18.5q63 -14 103 -29t69 -45t29 -81q0 -41 -23.5 -75t-70 -54.5t-111.5 -20.5z" />
    <glyph glyph-name="uni0456" unicode="&#x456;" horiz-adv-x="220" 
d="M70 0v500h80v-500h-80zM110 595q-22 0 -38.5 16.5t-16.5 38.5q0 23 16.5 39t38.5 16q23 0 39 -16t16 -39q0 -22 -16 -38.5t-39 -16.5z" />
    <glyph glyph-name="uni0457" unicode="&#x457;" horiz-adv-x="220" 
d="M70 0v500h80v-500h-80zM20 620q-22 0 -38.5 16.5t-16.5 38.5q0 23 16.5 39t38.5 16q23 0 39 -16t16 -39q0 -22 -16 -38.5t-39 -16.5zM200 620q-22 0 -38.5 16.5t-16.5 38.5q0 23 16.5 39t38.5 16q23 0 39 -16t16 -39q0 -22 -16 -38.5t-39 -16.5z" />
    <glyph glyph-name="uni0458" unicode="&#x458;" horiz-adv-x="220" 
d="M-75 -190v75h145v615h80v-690h-225zM110 595q-22 0 -38.5 16.5t-16.5 38.5q0 23 16.5 39t38.5 16q23 0 39 -16t16 -39q0 -22 -16 -38.5t-39 -16.5z" />
    <glyph glyph-name="uni0459" unicode="&#x459;" horiz-adv-x="790" 
d="M10 0l140 500h295v-170h130q56 0 99.5 -22t67 -60t23.5 -83t-23.5 -83t-67 -60t-99.5 -22h-210v425h-155l-115 -425h-85zM575 75q51 0 80.5 25.5t29.5 64.5t-29.5 64.5t-80.5 25.5h-130v-180h130z" />
    <glyph glyph-name="uni045A" unicode="&#x45a;" horiz-adv-x="845" 
d="M70 0v500h80v-190h270v190h80v-190h140q54 0 94.5 -21t63 -56t22.5 -78t-22.5 -78t-63 -56t-94.5 -21h-220v235h-270v-235h-80zM640 75q47 0 73.5 22.5t26.5 57.5t-26.5 57.5t-73.5 22.5h-140v-160h140z" />
    <glyph glyph-name="uni045B" unicode="&#x45b;" horiz-adv-x="585" 
d="M80 0v520h-65v75h65v105h80v-105h125v-75h-125v-175h1q23 36 66.5 60.5t102.5 24.5q91 0 145.5 -57.5t54.5 -157.5v-215h-80v210q0 73 -36 109t-99 36q-45 0 -80 -20.5t-55 -58t-20 -86.5v-190h-80z" />
    <glyph glyph-name="uni045C" unicode="&#x45c;" horiz-adv-x="525" 
d="M70 0v500h80v-200h100l160 200h95l-185 -235l200 -265h-100l-170 225h-100v-225h-80zM229 605l85 145h100v-1l-115 -144h-70z" />
    <glyph glyph-name="uni045E" unicode="&#x45e;" horiz-adv-x="505" 
d="M210 -190l60 190h-115l-135 500h85l110 -425h75l130 425h85l-210 -690h-85zM263 615q-69 0 -109.5 35.5t-40.5 89.5h75q0 -27 19.5 -43.5t55.5 -16.5t55.5 16.5t19.5 43.5h75q0 -54 -40.5 -89.5t-109.5 -35.5z" />
    <glyph glyph-name="uni045F" unicode="&#x45f;" horiz-adv-x="575" 
d="M250 -115v115h-180v500h80v-425h275v425h80v-500h-175v-115h-80z" />
    <glyph glyph-name="uni04D9" unicode="&#x4d9;" horiz-adv-x="580" 
d="M285 -10q-66 0 -122 30.5t-89.5 87.5t-33.5 132v45h418q-6 44 -30 78t-60 53t-78 19q-53 0 -92 -21.5t-63 -58.5h-80q20 51 55 86t81 52t99 17q69 0 126.5 -34t90.5 -93t33 -133t-33.5 -133.5t-91.5 -93t-130 -33.5zM285 65q47 0 82.5 18.5t58.5 52t32 79.5h-338
q5 -45 26 -79t56.5 -52.5t82.5 -18.5z" />
    <glyph glyph-name="endash" unicode="&#x2013;" horiz-adv-x="680" 
d="M60 230v75h560v-75h-560z" />
    <glyph glyph-name="emdash" unicode="&#x2014;" horiz-adv-x="875" 
d="M60 230v75h755v-75h-755z" />
    <glyph glyph-name="quoteleft" unicode="&#x2018;" horiz-adv-x="210" 
d="M105 480q-28 0 -44 21.5t-16 68.5q0 66 30.5 101t84.5 39v-40q-30 -4 -45 -19.5t-15 -45.5v-7.5v-7.5q10 5 20 5q19 0 32 -14.5t13 -37.5q0 -28 -17 -45.5t-43 -17.5z" />
    <glyph glyph-name="quoteright" unicode="&#x2019;" horiz-adv-x="210" 
d="M50 520q30 4 45 19.5t15 45.5v7.5v7.5q-10 -5 -20 -5q-19 0 -32 14.5t-13 37.5q0 28 17 45.5t43 17.5q28 0 44 -21.5t16 -68.5q0 -66 -30.5 -101t-84.5 -39v40z" />
    <glyph glyph-name="quotesinglbase" unicode="&#x201a;" horiz-adv-x="210" 
d="M50 -85q30 4 45 19.5t15 45.5v7.5v7.5q-10 -5 -20 -5q-19 0 -32 14.5t-13 37.5q0 28 17 45.5t43 17.5q28 0 44 -21.5t16 -68.5q0 -66 -30.5 -101t-84.5 -39v40z" />
    <glyph glyph-name="quotedblleft" unicode="&#x201c;" horiz-adv-x="365" 
d="M105 480q-28 0 -44 21.5t-16 68.5q0 66 30.5 101t84.5 39v-40q-30 -4 -45 -19.5t-15 -45.5v-7.5v-7.5q10 5 20 5q19 0 32 -14.5t13 -37.5q0 -28 -17 -45.5t-43 -17.5zM260 480q-28 0 -44 21.5t-16 68.5q0 66 30.5 101t84.5 39v-40q-30 -4 -45 -19.5t-15 -45.5v-7.5v-7.5
q10 5 20 5q19 0 32 -14.5t13 -37.5q0 -28 -17 -45.5t-43 -17.5z" />
    <glyph glyph-name="quotedblright" unicode="&#x201d;" horiz-adv-x="365" 
d="M50 520q30 4 45 19.5t15 45.5v7.5v7.5q-10 -5 -20 -5q-19 0 -32 14.5t-13 37.5q0 28 17 45.5t43 17.5q28 0 44 -21.5t16 -68.5q0 -66 -30.5 -101t-84.5 -39v40zM205 520q30 4 45 19.5t15 45.5v7.5v7.5q-10 -5 -20 -5q-19 0 -32 14.5t-13 37.5q0 28 17 45.5t43 17.5
q28 0 44 -21.5t16 -68.5q0 -66 -30.5 -101t-84.5 -39v40z" />
    <glyph glyph-name="quotedblbase" unicode="&#x201e;" horiz-adv-x="365" 
d="M50 -85q30 4 45 19.5t15 45.5v7.5v7.5q-10 -5 -20 -5q-19 0 -32 14.5t-13 37.5q0 28 17 45.5t43 17.5q28 0 44 -21.5t16 -68.5q0 -66 -30.5 -101t-84.5 -39v40zM205 -85q30 4 45 19.5t15 45.5v7.5v7.5q-10 -5 -20 -5q-19 0 -32 14.5t-13 37.5q0 28 17 45.5t43 17.5
q28 0 44 -21.5t16 -68.5q0 -66 -30.5 -101t-84.5 -39v40z" />
    <glyph glyph-name="dagger" unicode="&#x2020;" horiz-adv-x="455" 
d="M185 0v425h-140v80h140v195h85v-195h140v-80h-140v-425h-85z" />
    <glyph glyph-name="daggerdbl" unicode="&#x2021;" horiz-adv-x="455" 
d="M185 0v155h-140v80h140v230h-140v80h140v155h85v-155h140v-80h-140v-230h140v-80h-140v-155h-85z" />
    <glyph glyph-name="bullet" unicode="&#x2022;" horiz-adv-x="400" 
d="M200 200q-34 0 -57 23t-23 57t23 57t57 23t57 -23t23 -57t-23 -57t-57 -23z" />
    <glyph glyph-name="ellipsis" unicode="&#x2026;" horiz-adv-x="680" 
d="M105 -15q-26 0 -43 17t-17 43t17 43t43 17t43 -17t17 -43t-17 -43t-43 -17zM340 -15q-26 0 -43 17t-17 43t17 43t43 17t43 -17t17 -43t-17 -43t-43 -17zM575 -15q-26 0 -43 17t-17 43t17 43t43 17t43 -17t17 -43t-17 -43t-43 -17z" />
    <glyph glyph-name="perthousand" unicode="&#x2030;" horiz-adv-x="1135" 
d="M130 0l420 700h85l-420 -700h-85zM560 -10q-44 0 -82 22.5t-60.5 60.5t-22.5 82t22.5 82t60.5 60.5t82 22.5t82 -22.5t60.5 -60.5t22.5 -82t-22.5 -82t-60.5 -60.5t-82 -22.5zM560 60q38 0 64 27t26 68t-26 68t-64 27t-64 -27t-26 -68t26 -68t64 -27zM205 380
q-44 0 -82 22.5t-60.5 60.5t-22.5 82t22.5 82t60.5 60.5t82 22.5t82 -22.5t60.5 -60.5t22.5 -82t-22.5 -82t-60.5 -60.5t-82 -22.5zM205 450q38 0 64 27t26 68t-26 68t-64 27t-64 -27t-26 -68t26 -68t64 -27zM930 -10q-44 0 -82 22.5t-60.5 60.5t-22.5 82t22.5 82t60.5 60.5
t82 22.5t82 -22.5t60.5 -60.5t22.5 -82t-22.5 -82t-60.5 -60.5t-82 -22.5zM930 60q38 0 64 27t26 68t-26 68t-64 27t-64 -27t-26 -68t26 -68t64 -27z" />
    <glyph glyph-name="guilsinglleft" unicode="&#x2039;" horiz-adv-x="365" 
d="M270 5l-240 245l240 245l55 -55l-185 -190l185 -190z" />
    <glyph glyph-name="guilsinglright" unicode="&#x203a;" horiz-adv-x="365" 
d="M95 5l-55 55l185 190l-185 190l55 55l240 -245z" />
    <glyph glyph-name="fraction" unicode="&#x2044;" horiz-adv-x="130" 
d="M-190 0l430 700h80l-430 -700h-80z" />
    <glyph glyph-name="uni2070" unicode="&#x2070;" horiz-adv-x="370" 
d="M185 450q-43 0 -78 22.5t-56 63t-21 94.5t21 94.5t56 63t78 22.5t78 -22.5t56 -63t21 -94.5t-21 -94.5t-56 -63t-78 -22.5zM185 515q36 0 58 29t22 86t-22 86t-58 29t-58 -29t-22 -86t22 -86t58 -29z" />
    <glyph glyph-name="uni2074" unicode="&#x2074;" horiz-adv-x="330" 
d="M190 460v70h-170v65l130 205h80l-130 -205h90v65h75v-65h50v-65h-50v-70h-75z" />
    <glyph glyph-name="uni2075" unicode="&#x2075;" horiz-adv-x="350" 
d="M185 450q-61 0 -97.5 30.5t-47.5 74.5h75q7 -17 25 -28.5t45 -11.5q29 0 47 16t18 39q0 20 -18 35t-47 15q-22 0 -39 -7.5t-26 -17.5l-65 15l12 190h223v-65h-160l-6 -69h1q11 8 29.5 13.5t40.5 5.5q59 0 94.5 -32.5t35.5 -82.5t-39 -85t-101 -35z" />
    <glyph glyph-name="uni2076" unicode="&#x2076;" horiz-adv-x="335" 
d="M165 450q-41 0 -73 16t-49.5 43.5t-17.5 60.5q0 29 13 59t37 61l85 110h80l-70 -90l-30 -25v-5v0q5 3 17 6.5t23 3.5q37 0 66.5 -16.5t46.5 -44t17 -59.5q0 -33 -17.5 -60.5t-50.5 -43.5t-77 -16zM165 515q33 0 51.5 16t18.5 39t-18.5 39t-51.5 16q-29 0 -47 -16t-18 -39
t18 -39t47 -16z" />
    <glyph glyph-name="uni2077" unicode="&#x2077;" horiz-adv-x="300" 
d="M60 460l145 274v1h-185v65h265v-65l-145 -275h-80z" />
    <glyph glyph-name="uni2078" unicode="&#x2078;" horiz-adv-x="370" 
d="M185 450q-48 0 -82 14t-51 37t-17 49q0 34 22 55.5t53 29.5v0v5q-25 8 -42.5 27t-17.5 48q0 40 35.5 67.5t99.5 27.5t99.5 -27.5t35.5 -67.5q0 -29 -17.5 -48t-42.5 -27v-5q31 -8 53 -29.5t22 -55.5q0 -26 -17 -49t-51 -37t-82 -14zM185 515q34 0 52 14t18 31t-18 31
t-52 14t-52 -14t-18 -31t18 -31t52 -14zM185 665q25 0 40 12t15 28t-15 28t-40 12t-40 -12t-15 -28t15 -28t40 -12z" />
    <glyph glyph-name="uni2079" unicode="&#x2079;" horiz-adv-x="335" 
d="M95 460l70 90l30 25v5v0q-5 -3 -17 -6.5t-23 -3.5q-37 0 -66.5 16.5t-46.5 44t-17 59.5q0 33 17.5 60.5t50.5 43.5t77 16q41 0 73 -16t49.5 -43.5t17.5 -60.5q0 -29 -13 -59t-37 -61l-85 -110h-80zM170 635q29 0 47 16t18 39t-18 39t-47 16q-33 0 -51.5 -16t-18.5 -39
t18.5 -39t51.5 -16z" />
    <glyph glyph-name="uni2080" unicode="&#x2080;" horiz-adv-x="370" 
d="M185 -110q-43 0 -78 22.5t-56 63t-21 94.5t21 94.5t56 63t78 22.5t78 -22.5t56 -63t21 -94.5t-21 -94.5t-56 -63t-78 -22.5zM185 -45q36 0 58 29t22 86t-22 86t-58 29t-58 -29t-22 -86t22 -86t58 -29z" />
    <glyph glyph-name="uni2081" unicode="&#x2081;" horiz-adv-x="350" 
d="M55 -100v65h100v195l-90 -50v80l95 50h70v-275h95v-65h-270z" />
    <glyph glyph-name="uni2082" unicode="&#x2082;" horiz-adv-x="355" 
d="M35 -100v65l80 50q7 4 13 8l12 8q38 25 59.5 43t31 32.5t9.5 28.5q0 23 -15.5 36.5t-44.5 13.5t-48 -16t-26 -39h-71q9 50 45 85t100 35q41 0 72 -15t47 -41t16 -58q0 -45 -34 -82t-111 -78l-13 -7l-7 -3v-2l10 1h160v-65h-285z" />
    <glyph glyph-name="uni2083" unicode="&#x2083;" horiz-adv-x="350" 
d="M175 -110q-61 0 -97.5 32t-47.5 78h76q7 -19 24.5 -32t44.5 -13q33 0 49 13.5t16 36.5q0 20 -17 32.5t-53 12.5h-70v60l90 64v2l-10 -1h-130v65h245v-60l-85 -62l-10 -6v-2h5q48 0 79 -30t31 -75q0 -50 -37 -82.5t-103 -32.5z" />
    <glyph glyph-name="uni2084" unicode="&#x2084;" horiz-adv-x="330" 
d="M190 -100v70h-170v65l130 205h80l-130 -205h90v65h75v-65h50v-65h-50v-70h-75z" />
    <glyph glyph-name="uni2085" unicode="&#x2085;" horiz-adv-x="350" 
d="M185 -110q-61 0 -97.5 30.5t-47.5 74.5h75q7 -17 25 -28.5t45 -11.5q29 0 47 16t18 39q0 20 -18 35t-47 15q-22 0 -39 -7.5t-26 -17.5l-65 15l12 190h223v-65h-160l-6 -69h1q11 8 29.5 13.5t40.5 5.5q59 0 94.5 -32.5t35.5 -82.5t-39 -85t-101 -35z" />
    <glyph glyph-name="uni2086" unicode="&#x2086;" horiz-adv-x="335" 
d="M165 -110q-41 0 -73 16t-49.5 43.5t-17.5 60.5q0 29 13 59t37 61l85 110h80l-70 -90l-30 -25v-5v0q5 3 17 6.5t23 3.5q37 0 66.5 -16.5t46.5 -44t17 -59.5q0 -33 -17.5 -60.5t-50.5 -43.5t-77 -16zM165 -45q33 0 51.5 16t18.5 39t-18.5 39t-51.5 16q-29 0 -47 -16
t-18 -39t18 -39t47 -16z" />
    <glyph glyph-name="uni2087" unicode="&#x2087;" horiz-adv-x="300" 
d="M60 -100l145 274v1h-185v65h265v-65l-145 -275h-80z" />
    <glyph glyph-name="uni2088" unicode="&#x2088;" horiz-adv-x="370" 
d="M185 -110q-48 0 -82 14t-51 37t-17 49q0 34 22 55.5t53 29.5v0v5q-25 8 -42.5 27t-17.5 48q0 40 35.5 67.5t99.5 27.5t99.5 -27.5t35.5 -67.5q0 -29 -17.5 -48t-42.5 -27v-5q31 -8 53 -29.5t22 -55.5q0 -26 -17 -49t-51 -37t-82 -14zM185 -45q34 0 52 14t18 31t-18 31
t-52 14t-52 -14t-18 -31t18 -31t52 -14zM185 105q25 0 40 12t15 28t-15 28t-40 12t-40 -12t-15 -28t15 -28t40 -12z" />
    <glyph glyph-name="uni2089" unicode="&#x2089;" horiz-adv-x="335" 
d="M95 -100l70 90l30 25v5v0q-5 -3 -17 -6.5t-23 -3.5q-37 0 -66.5 16.5t-46.5 44t-17 59.5q0 33 17.5 60.5t50.5 43.5t77 16q41 0 73 -16t49.5 -43.5t17.5 -60.5q0 -29 -13 -59t-37 -61l-85 -110h-80zM170 75q29 0 47 16t18 39t-18 39t-47 16q-33 0 -51.5 -16t-18.5 -39
t18.5 -39t51.5 -16z" />
    <glyph glyph-name="uni20A9" unicode="&#x20a9;" horiz-adv-x="1005" 
d="M205 0l-51 230h-134v80h116l-20 90h-96v80h78l-48 220h95l46 -220h192l47 220h145l46 -220h192l47 220h95l-49 -220h79v-80h-97l-20 -90h117v-80h-134l-51 -230h-160l-47 230h-182l-46 -230h-160zM275 85h25l30 145h-86zM227 310h120l19 90h-158zM428 310h149l-19 90
h-112zM705 85h25l30 145h-86zM462 480h80l-27 135h-25zM657 310h120l19 90h-158z" />
    <glyph glyph-name="Euro" unicode="&#x20ac;" horiz-adv-x="835" 
d="M445 -20q-84 0 -155.5 31.5t-121.5 89.5t-72 134h-76v75h62q-2 26 -2 40t2 40h-62v75h76q22 76 72 134t121.5 89.5t155.5 31.5q95 0 166.5 -36t115 -93.5t63.5 -125.5h-90q-27 71 -92 120.5t-163 49.5q-60 0 -111 -20.5t-88 -59t-56 -90.5h260v-75h-278q-2 -26 -2 -40
t2 -40h278v-75h-260q19 -52 56 -90.5t88 -59t111 -20.5q101 0 167 54t93 131h90q-22 -71 -67.5 -132.5t-117 -99.5t-165.5 -38z" />
    <glyph glyph-name="florin" unicode="&#x192;" horiz-adv-x="390" 
d="M-85 -190v75h155l80 540h-55v75h70l30 200h220v-75h-150l-20 -125h120v-75h-135l-90 -615h-225z" />
    <glyph glyph-name="cent" unicode="&#xa2;" horiz-adv-x="565" 
d="M245 -6q-59 10 -105.5 45.5t-73 90t-26.5 120.5q0 65 26.5 119.5t73 90.5t105.5 46v84h80v-82q83 -9 135 -58.5t70 -114.5h-80q-17 42 -58 71t-102 29q-47 0 -86 -23.5t-61.5 -65.5t-22.5 -96t23 -96t62 -65.5t85 -23.5q64 0 106 32t59 78h80q-19 -69 -72 -121.5
t-138 -61.5v-87h-80v89z" />
    <glyph glyph-name="sterling" unicode="&#xa3;" horiz-adv-x="560" 
d="M25 0v85h20q35 0 55 23t20 67v160h-75v85h75v107q0 61 25 107t71.5 71t108.5 25t105 -24t66 -62.5t29 -83.5h-90q-6 36 -33.5 60.5t-76.5 24.5q-53 0 -84 -31.5t-31 -86.5v-107h160v-85h-160v-160q0 -32 -11.5 -53.5t-28.5 -31.5v-5h370v-85h-515z" />
    <glyph glyph-name="currency" unicode="&#xa4;" horiz-adv-x="660" 
d="M110 0v95h-80v85h80v80h-80v85h80v355h255q80 0 139 -28.5t90 -78.5t31 -113t-31 -113t-90 -78.5t-139 -28.5h-165v-80h250v-85h-250v-95h-90zM365 345q84 0 127 36.5t43 98.5t-43 98.5t-127 36.5h-165v-270h165z" />
    <glyph glyph-name="yen" unicode="&#xa5;" horiz-adv-x="640" 
d="M275 0v80h-145v75h145v65h-145v75h140l-265 405h105l205 -315h10l205 315h105l-265 -405h140v-75h-145v-65h145v-75h-145v-80h-90z" />
    <glyph glyph-name="uni20B4" unicode="&#x20b4;" horiz-adv-x="640" 
d="M325 -20q-79 0 -135.5 24.5t-85.5 65t-29 87.5q0 26 8.5 47.5t21.5 35.5h-55v75h540v-75h-390q-13 -13 -21.5 -33t-8.5 -42q0 -29 16.5 -51.5t51 -35.5t87.5 -13q68 0 111 27.5t59 67.5h90q-13 -48 -45 -88.5t-86.5 -66t-128.5 -25.5zM50 385v75h390q13 13 21.5 33
t8.5 42q0 29 -16.5 51.5t-51 35.5t-87.5 13q-68 0 -111 -27.5t-59 -67.5h-90q13 48 45 88.5t86.5 66t128.5 25.5q79 0 135.5 -24.5t85.5 -65t29 -87.5q0 -26 -8.5 -47.5t-21.5 -35.5h55v-75h-540z" />
    <glyph glyph-name="uni20B8" unicode="&#x20b8;" horiz-adv-x="590" 
d="M250 0v455h-240v85h570v-85h-240v-455h-90zM10 615v85h570v-85h-570z" />
    <glyph glyph-name="uni20B9" unicode="&#x20b9;" horiz-adv-x="630" 
d="M405 0l-170 260h-185v85h210q65 0 106.5 26t53.5 69h-370v80h370q-12 43 -53.5 69t-106.5 26h-210v85h540v-85h-125q18 -18 29.5 -43t15.5 -52h80v-80h-80q-11 -65 -58.5 -110t-121.5 -60l180 -270h-105z" />
    <glyph glyph-name="uni20BA" unicode="&#x20ba;" horiz-adv-x="570" 
d="M110 0v259l-80 -29v80l80 29v80l-80 -29v80l80 29v201h90v-168l155 58v-80l-155 -58v-80l155 58v-80l-155 -58v-207q98 0 154 18t79.5 53.5t26.5 93.5h90q-3 -86 -36.5 -140.5t-109.5 -82t-204 -27.5h-90z" />
    <glyph glyph-name="uni20BC" unicode="&#x20bc;" horiz-adv-x="790" 
d="M40 50q0 145 40.5 238t108.5 141.5t161 70.5v100h90v-100q93 -22 161 -70.5t108.5 -141.5t40.5 -238v-50h-90v50q0 116 -29.5 192t-78.5 115t-112 53v-410h-90v410q-63 -14 -112 -53t-78.5 -115t-29.5 -192v-50h-90v50z" />
    <glyph glyph-name="uni20BD" unicode="&#x20bd;" horiz-adv-x="660" 
d="M110 0v95h-80v85h80v80h-80v85h80v355h255q80 0 139 -28.5t90 -78.5t31 -113t-31 -113t-90 -78.5t-139 -28.5h-165v-80h250v-85h-250v-95h-90zM365 345q84 0 127 36.5t43 98.5t-43 98.5t-127 36.5h-165v-270h165z" />
    <glyph glyph-name="uni20BF" unicode="&#x20bf;" horiz-adv-x="700" 
d="M180 -110v110h-100v700h100v110h90v-110h105v110h90v-115q71 -13 113 -61.5t42 -113.5q0 -59 -29 -97t-71 -53v-5q54 -11 92 -52.5t38 -112.5q0 -51 -21.5 -92t-63 -68t-100.5 -36v-114h-90v110h-105v-110h-90zM410 85q49 0 82.5 15t50.5 41t17 59q0 36 -17 63t-50.5 42
t-82.5 15h-240v-235h240zM410 405q55 0 87.5 29.5t32.5 75.5t-32.5 75.5t-87.5 29.5h-240v-210h240z" />
    <glyph glyph-name="uni2116" unicode="&#x2116;" horiz-adv-x="1065" 
d="M80 0v700h130l324 -580l5 -10h2l-1 10v580h90v-700h-130l-324 580l-5 10h-2l1 -10v-580h-90zM730 230v80h280v-80h-280zM870 390q-47 0 -84.5 21t-59 57.5t-21.5 81.5t21.5 81.5t59 57.5t84.5 21t84.5 -21t59 -57.5t21.5 -81.5t-21.5 -81.5t-59 -57.5t-84.5 -21zM870 465
q38 0 61.5 24t23.5 61q0 38 -23.5 61.5t-61.5 23.5q-37 0 -61 -23.5t-24 -61.5q0 -37 24 -61t61 -24z" />
    <glyph glyph-name="arrowleft" unicode="&#x2190;" horiz-adv-x="900" 
d="M270 160l-175 175v10l175 175h15v-150h520v-60h-520v-150h-15z" />
    <glyph glyph-name="arrowup" unicode="&#x2191;" horiz-adv-x="900" 
d="M420 0v515h-150v15l175 175h10l175 -175v-15h-150v-515h-60z" />
    <glyph glyph-name="arrowright" unicode="&#x2192;" horiz-adv-x="900" 
d="M615 160v150h-520v60h520v150h15l175 -175v-10l-175 -175h-15z" />
    <glyph glyph-name="arrowdown" unicode="&#x2193;" horiz-adv-x="900" 
d="M445 -5l-175 175v15h150v515h60v-515h150v-15l-175 -175h-10z" />
    <glyph glyph-name="uni2196" unicode="&#x2196;" horiz-adv-x="900" 
d="M680 85l-380 380l-105 -105h-15v255l10 10h255v-15l-105 -105l380 -380z" />
    <glyph glyph-name="uni2197" unicode="&#x2197;" horiz-adv-x="900" 
d="M220 85l-40 40l380 380l-105 105v15h255l10 -10v-255h-15l-105 105z" />
    <glyph glyph-name="uni2198" unicode="&#x2198;" horiz-adv-x="900" 
d="M455 85v15l105 105l-380 380l40 40l380 -380l105 105h15v-255l-10 -10h-255z" />
    <glyph glyph-name="uni2199" unicode="&#x2199;" horiz-adv-x="900" 
d="M190 85l-10 10v255h15l105 -105l380 380l40 -40l-380 -380l105 -105v-15h-255z" />
    <glyph glyph-name="zero.oldstyle" unicode="&#xf730;" horiz-adv-x="600" 
d="M300 -10q-74 0 -133.5 33.5t-93 93t-33.5 133.5t33.5 133.5t93 93t133.5 33.5t133.5 -33.5t93 -93t33.5 -133.5t-33.5 -133.5t-93 -93t-133.5 -33.5zM300 65q50 0 89.5 23.5t62.5 65.5t23 96t-23 96t-62.5 65.5t-89.5 23.5t-89.5 -23.5t-62.5 -65.5t-23 -96t23 -96
t62.5 -65.5t89.5 -23.5z" />
    <glyph glyph-name="one.oldstyle" unicode="&#xf731;" horiz-adv-x="290" 
d="M140 0v400l-110 -90v95l115 95h75v-500h-80z" />
    <glyph glyph-name="two.oldstyle" unicode="&#xf732;" horiz-adv-x="500" 
d="M35 0v70l205 115q47 26 75 49t41.5 47.5t13.5 53.5q0 43 -33.5 71.5t-91.5 28.5q-54 0 -88 -26t-47 -64h-85q10 44 37 81t73 60.5t110 23.5q63 0 111 -23.5t73.5 -63.5t25.5 -88q0 -61 -36.5 -107t-108.5 -88l-100 -59l-10 -5v-2l10 1h260v-75h-435z" />
    <glyph glyph-name="three.oldstyle" unicode="&#xf733;" horiz-adv-x="515" 
d="M250 -200q-70 0 -120.5 28.5t-79.5 73.5t-40 98h85q13 -52 52 -88.5t103 -36.5q46 0 80 16.5t52 46t18 67.5q0 35 -18 63.5t-53 45t-84 16.5h-85v75h85q42 0 72.5 15.5t46.5 42.5t16 62q0 30 -16 55t-45.5 40t-68.5 15q-54 0 -89.5 -24.5t-50.5 -60.5h-80
q12 42 39.5 78.5t73 59t107.5 22.5q63 0 111 -24t73.5 -65t25.5 -91q0 -61 -29 -100.5t-71 -54.5v-5q50 -13 85 -54.5t35 -110.5q0 -60 -27.5 -106.5t-79.5 -72.5t-123 -26z" />
    <glyph glyph-name="four.oldstyle" unicode="&#xf734;" horiz-adv-x="515" 
d="M325 -190v190h-320v75l240 425h95l-240 -425h225v190h80v-190h110v-75h-110v-190h-80z" />
    <glyph glyph-name="five.oldstyle" unicode="&#xf735;" horiz-adv-x="530" 
d="M275 -200q-72 0 -123 28.5t-79.5 73.5t-37.5 98h85q11 -52 50 -88.5t105 -36.5q44 0 78 20t53 55t19 80t-18.5 79t-52.5 52.5t-79 18.5q-49 0 -83.5 -20.5t-51.5 -49.5h-75l25 390h380v-75h-305l-15 -215h1l3 2q19 15 50.5 29t85.5 14q59 0 109.5 -30t80.5 -82t30 -113
q0 -67 -29.5 -119t-83 -81.5t-122.5 -29.5z" />
    <glyph glyph-name="six.oldstyle" unicode="&#xf736;" horiz-adv-x="580" 
d="M290 -10q-69 0 -126 32.5t-90.5 88t-33.5 119.5q0 47 13 87t34 74.5t58 83.5l170 225h95l-170 -220l-35 -35v-5q16 13 41 21.5t54 8.5q64 0 119 -33t88 -88t33 -119t-33.5 -119.5t-90.5 -88t-126 -32.5zM290 65q47 0 86 22.5t61.5 60.5t22.5 82t-22.5 82t-61.5 60.5
t-86 22.5t-86 -22.5t-61.5 -60.5t-22.5 -82t22.5 -82t61.5 -60.5t86 -22.5z" />
    <glyph glyph-name="seven.oldstyle" unicode="&#xf737;" horiz-adv-x="450" 
d="M90 -190l275 614v1h-360v75h445v-75l-275 -615h-85z" />
    <glyph glyph-name="eight.oldstyle" unicode="&#xf738;" horiz-adv-x="600" 
d="M300 -10q-80 0 -139 27.5t-90 73.5t-31 99q0 49 20 85.5t51.5 60t68.5 34.5v5q-29 11 -54 31.5t-40.5 52t-15.5 71.5q0 48 28 89.5t80 66t122 24.5t122 -24.5t80 -66t28 -89.5q0 -59 -32 -98.5t-78 -56.5v-5q59 -18 99.5 -63.5t40.5 -116.5q0 -53 -31 -99t-90 -73.5
t-139 -27.5zM300 65q56 0 95.5 17.5t59.5 47t20 65.5t-21 66.5t-61 49.5t-93 19t-93 -19t-61 -49.5t-21 -66.5t20 -65.5t59.5 -47t95.5 -17.5zM300 405q45 0 78 17t50 43.5t17 56.5q0 32 -16.5 57.5t-49.5 40.5t-79 15t-79 -15t-49.5 -40.5t-16.5 -57.5q0 -30 17 -56.5
t50 -43.5t78 -17z" />
    <glyph glyph-name="nine.oldstyle" unicode="&#xf739;" horiz-adv-x="580" 
d="M175 -190l165 210l35 35v5q-16 -13 -41 -21.5t-54 -8.5q-64 0 -119 33t-88 88t-33 119t33.5 119.5t90.5 88t126 32.5t126 -32.5t90.5 -88t33.5 -119.5q0 -47 -13 -87t-34 -74.5t-58 -83.5l-165 -215h-95zM290 105q47 0 86 22.5t61.5 60.5t22.5 82t-22.5 82t-61.5 60.5
t-86 22.5t-86 -22.5t-61.5 -60.5t-22.5 -82t22.5 -82t61.5 -60.5t86 -22.5z" />
    <glyph glyph-name="A_A" unicode="&#xe000;" horiz-adv-x="1220" 
d="M20 0l180 700h275l130 -510l4 -15h1l4 15l131 510h275l180 -700h-90l-55 205h-345l-55 -205h-90l-55 205h-345l-55 -205h-90zM185 290h305l-85 325h-135zM730 290h305l-85 325h-135z" />
    <glyph glyph-name="A_R" unicode="&#xe001;" horiz-adv-x="1045" 
d="M20 0l180 700h540q78 0 136 -28.5t88.5 -78.5t30.5 -113q0 -78 -49 -134.5t-136 -75.5l180 -270h-105l-170 260h-185v-260h-90v260h-265l-65 -260h-90zM200 345h240v270h-170zM740 345q80 0 122.5 36.5t42.5 98.5t-42.5 98.5t-122.5 36.5h-210v-270h210z" />
    <glyph glyph-name="A_T" unicode="&#xe002;" horiz-adv-x="740" 
d="M20 0l158 615h-93v85h570v-85h-93l158 -615h-90l-55 205h-160v-205h-90v205h-160l-55 -205h-90zM185 290h140v325h-55zM415 290h140l-85 325h-55v-325z" />
    <glyph glyph-name="A_V" unicode="&#xe003;" horiz-adv-x="1030" 
d="M20 0l180 700h275l160 -615h120l160 615h95l-185 -700h-260l-55 205h-345l-55 -205h-90zM185 290h305l-85 325h-135z" />
    <glyph glyph-name="C_E" unicode="&#xe004;" horiz-adv-x="800" 
d="M410 -20q-104 0 -187 47.5t-130.5 132t-47.5 190.5t47.5 190.5t130.5 132t187 47.5q95 0 166.5 -36t115 -93.5t63.5 -125.5h-90q-27 71 -92 120.5t-163 49.5q-79 0 -142 -36t-98 -100.5t-35 -148.5t35 -148.5t98 -100.5t142 -36q101 0 167 54t93 131h90
q-22 -71 -67.5 -132.5t-117 -99.5t-165.5 -38zM290 180v345h255v-75h-175v-60h130v-70h-130v-64h175v-76h-255z" />
    <glyph glyph-name="C_O" unicode="&#xe005;" horiz-adv-x="800" 
d="M410 -20q-104 0 -187 47.5t-130.5 132t-47.5 190.5t47.5 190.5t130.5 132t187 47.5q95 0 166.5 -36t115 -93.5t63.5 -125.5h-90q-27 71 -92 120.5t-163 49.5q-79 0 -142 -36t-98 -100.5t-35 -148.5t35 -148.5t98 -100.5t142 -36q101 0 167 54t93 131h90
q-22 -71 -67.5 -132.5t-117 -99.5t-165.5 -38zM415 180q-47 0 -86 22.5t-61.5 61.5t-22.5 86t22.5 86t61.5 61.5t86 22.5t86 -22.5t61.5 -61.5t22.5 -86t-22.5 -86t-61.5 -61.5t-86 -22.5zM415 255q38 0 64 27t26 68t-26 68t-64 27t-64 -27t-26 -68t26 -68t64 -27z" />
    <glyph glyph-name="D_E" unicode="&#xe006;" horiz-adv-x="1070" 
d="M80 0v700h950v-85h-475v-1q49 -41 78.5 -96t38.5 -123h283v-85h-282q-4 -44 -19.5 -85t-40.5 -76t-58 -63v-1h475v-85h-950zM310 85q81 0 143.5 34t97 94t34.5 137t-34.5 137t-97 94t-143.5 34h-140v-530h140z" />
    <glyph glyph-name="E_A" unicode="&#xe007;" horiz-adv-x="1125" 
d="M80 0v700h430v-85h-340v-220h402l78 305h275l180 -700h-90l-81 310h-294l-80 -310h-480zM170 85h322l58 225h-380v-225zM665 395h245l-55 220h-135z" />
    <glyph glyph-name="J_A" unicode="&#xe008;" horiz-adv-x="915" 
d="M235 -25q-96 0 -155 52.5t-80 127.5l90 20q13 -48 49.5 -81.5t95.5 -33.5q68 0 106.5 41t38.5 119v480h335l180 -700h-90l-55 205h-280v0q-4 -109 -66.5 -169.5t-168.5 -60.5zM470 290h260l-85 325h-175v-325z" />
    <glyph glyph-name="K_K" unicode="&#xe009;" horiz-adv-x="890" 
d="M80 0v700h90v-305h135l220 305h105l-245 -340l255 -360h-110l-220 310h-140v-310h-90zM775 0l-255 360l245 340h105l-245 -340l255 -360h-105z" />
    <glyph glyph-name="K_O" unicode="&#xe00a;" horiz-adv-x="1110" 
d="M80 0v700h90v-305h135l220 305h105l-245 -340l255 -360h-110l-220 310h-140v-310h-90zM820 90q-72 0 -131.5 35t-94 95.5t-34.5 134.5t34.5 134.5t94 95.5t131.5 35t131.5 -35t94 -95.5t34.5 -134.5t-34.5 -134.5t-94 -95.5t-131.5 -35zM820 175q47 0 86 23t61.5 64.5
t22.5 92.5t-22.5 92.5t-61.5 64.5t-86 23t-86 -23t-61.5 -64.5t-22.5 -92.5t22.5 -92.5t61.5 -64.5t86 -23z" />
    <glyph glyph-name="L_A" unicode="&#xe00b;" horiz-adv-x="940" 
d="M80 0v700h90v-615h137l158 615h275l180 -700h-90l-69 265h-317l-47 -180h138v-85h-455zM466 350h273l-69 265h-135z" />
    <glyph glyph-name="L_F" unicode="&#xe00c;" horiz-adv-x="635" 
d="M80 0v700h90v-615h365v-85h-455zM285 170v530h320v-85h-230v-145h185v-85h-185v-215h-90z" />
    <glyph glyph-name="L_I" unicode="&#xe00d;" 
d="M80 0v700h90v-615h365v-85h-455zM445 180v520h90v-520h-90z" />
    <glyph glyph-name="L_L" unicode="&#xe00e;" horiz-adv-x="640" 
d="M80 0v700h90v-615h365v-85h-455zM280 180v520h90v-435h260v-85h-350z" />
    <glyph glyph-name="L_O" unicode="&#xe00f;" horiz-adv-x="810" 
d="M80 0v700h90v-615h365v-85h-455zM510 190q-71 0 -131 34.5t-94.5 94.5t-34.5 131t34.5 131t94.5 94.5t131 34.5t131 -34.5t94.5 -94.5t34.5 -131t-34.5 -131t-94.5 -94.5t-131 -34.5zM510 275q47 0 86 23t61.5 63t22.5 89t-22.5 89t-61.5 63t-86 23t-86 -23t-61.5 -63
t-22.5 -89t22.5 -89t61.5 -63t86 -23z" />
    <glyph glyph-name="N_A" unicode="&#xe010;" horiz-adv-x="1085" 
d="M80 0v700h130l338 -580l6 -10h1v590h330l180 -700h-90l-55 205h-275v-205h-130l-338 580l-6 10h-1v-590h-90zM645 290h255l-85 325h-170v-325z" />
    <glyph glyph-name="O_C" unicode="&#xe011;" horiz-adv-x="1180" 
d="M410 -20q-104 0 -187 47.5t-130.5 132t-47.5 190.5t47.5 190.5t130.5 132t187 47.5q53 0 101.5 -13t87.5 -37h1q41 24 89 37t101 13q95 0 166.5 -36t115 -93.5t63.5 -125.5h-90q-27 71 -92 120.5t-163 49.5q-31 0 -60.5 -6t-55.5 -17q48 -50 74.5 -117t26.5 -145
t-26.5 -145t-74.5 -118q27 -11 56 -16.5t60 -5.5q101 0 167 54t93 131h90q-22 -71 -67.5 -132.5t-117 -99.5t-165.5 -38q-52 0 -100.5 12.5t-89.5 36.5h-1q-40 -24 -88.5 -36.5t-100.5 -12.5zM410 65q31 0 60 6t55 17q-48 49 -74 116.5t-26 145.5t26 145t74 117
q-26 11 -55 17t-60 6q-79 0 -142 -36t-98 -100.5t-35 -148.5t35 -148.5t98 -100.5t142 -36zM600 136q41 38 63 93t22 121t-22.5 120.5t-62.5 92.5q-41 -38 -63 -92.5t-22 -120.5q0 -67 22 -121.5t63 -92.5z" />
    <glyph glyph-name="O_G" unicode="&#xe012;" horiz-adv-x="1240" 
d="M410 -20q-104 0 -187 47.5t-130.5 132t-47.5 190.5t47.5 190.5t130.5 132t187 47.5q53 0 101.5 -13t87.5 -37h1q41 24 89 37t101 13q94 0 164.5 -35.5t115 -92t65.5 -122.5h-90q-29 69 -94 117t-161 48q-31 0 -60.5 -6t-55.5 -17q48 -50 74.5 -117t26.5 -145t-26.5 -145
t-74.5 -118q27 -11 56 -16.5t60 -5.5q70 0 126.5 29t92.5 78.5t46 107.5h-135v85h310v-85h-85q-20 -89 -68 -156.5t-121 -105.5t-166 -38q-52 0 -100.5 12.5t-89.5 36.5h-1q-40 -24 -88.5 -36.5t-100.5 -12.5zM410 65q31 0 60 6t55 17q-48 49 -74 116.5t-26 145.5t26 145
t74 117q-26 11 -55 17t-60 6q-79 0 -142 -36t-98 -100.5t-35 -148.5t35 -148.5t98 -100.5t142 -36zM600 136q41 38 63 93t22 121t-22.5 120.5t-62.5 92.5q-41 -38 -63 -92.5t-22 -120.5q0 -67 22 -121.5t63 -92.5z" />
    <glyph glyph-name="O_L_I" unicode="&#xe013;" horiz-adv-x="1395" 
d="M865 0v700h90v-615h365v-85h-455zM1230 180v520h90v-520h-90zM410 -20q-104 0 -187 47.5t-130.5 132t-47.5 190.5t47.5 190.5t130.5 132t187 47.5t187 -47.5t130.5 -132t47.5 -190.5t-47.5 -190.5t-130.5 -132t-187 -47.5zM410 65q79 0 142 36t98 100.5t35 148.5
t-35 148.5t-98 100.5t-142 36t-142 -36t-98 -100.5t-35 -148.5t35 -148.5t98 -100.5t142 -36z" />
    <glyph glyph-name="O_O" unicode="&#xe014;" horiz-adv-x="1200" 
d="M410 -20q-104 0 -187 47.5t-130.5 132t-47.5 190.5t47.5 190.5t130.5 132t187 47.5q53 0 101.5 -13t87.5 -37h1q41 24 89 37t101 13q104 0 187 -47.5t130.5 -132t47.5 -190.5t-47.5 -190.5t-130.5 -132t-187 -47.5q-52 0 -100.5 12.5t-89.5 36.5h-1q-40 -24 -88.5 -36.5
t-100.5 -12.5zM410 65q31 0 60 6t55 17q-48 49 -74 116.5t-26 145.5t26 145t74 117q-26 11 -55 17t-60 6q-79 0 -142 -36t-98 -100.5t-35 -148.5t35 -148.5t98 -100.5t142 -36zM600 136q41 38 63 93t22 121t-22.5 120.5t-62.5 92.5q-41 -38 -63 -92.5t-22 -120.5
q0 -67 22 -121.5t63 -92.5zM790 65q79 0 142 36t98 100.5t35 148.5t-35 148.5t-98 100.5t-142 36q-31 0 -60.5 -6t-55.5 -17q48 -50 74.5 -117t26.5 -145t-26.5 -145t-74.5 -118q27 -11 56 -16.5t60 -5.5z" />
    <glyph glyph-name="P_H" unicode="&#xe015;" horiz-adv-x="1180" 
d="M80 0v700h295q78 0 137 -30t91 -82.5t32 -117.5v-75h375v305h90v-700h-90v310h-375v-310h-90v290q-34 -24 -76.5 -37t-93.5 -13h-205v-240h-90zM375 325q80 0 125 41t45 104q0 65 -44.5 105t-125.5 40h-205v-290h205z" />
    <glyph glyph-name="R_J" unicode="&#xe016;" horiz-adv-x="990" 
d="M685 -25q-65 0 -109 20t-82.5 64.5t-93.5 130.5l-45 70h-185v-260h-90v700h300q78 0 136 -28.5t88.5 -78.5t30.5 -113q0 -78 -49 -134.5t-136 -75.5l40 -60q43 -65 69.5 -95t54.5 -42.5t71 -12.5q68 0 106.5 41t38.5 119v480h90v-480q0 -77 -28.5 -132t-81.5 -84
t-125 -29zM380 345q80 0 122.5 36.5t42.5 98.5t-42.5 98.5t-122.5 36.5h-210v-270h210z" />
    <glyph glyph-name="S_A" unicode="&#xe017;" horiz-adv-x="1275" 
d="M295 -20q-85 0 -146 31t-96 81t-48 108h90q16 -56 66.5 -95.5t133.5 -39.5q58 0 97.5 16t58.5 43t19 61q0 36 -18.5 59.5t-46.5 37.5t-76 32q-61 22 -98.5 42.5t-64 60t-26.5 103.5q0 53 30.5 99t87.5 73.5t132 27.5q79 0 136 -27.5t89.5 -71.5t44.5 -96h-90
q-14 46 -59 78t-121 32q-50 0 -86.5 -16t-55 -42t-18.5 -57q0 -35 18.5 -58t46 -36.5t74.5 -31.5q62 -23 100 -44t64.5 -61t26.5 -104q0 -56 -31.5 -102.5t-91.5 -74.5t-142 -28zM620 0l180 700h275l180 -700h-90l-55 205h-345l-55 -205h-90zM785 290h305l-85 325h-135z" />
    <glyph glyph-name="T_A" unicode="&#xe018;" horiz-adv-x="780" 
d="M250 0v615h-240v85h570l180 -700h-90l-55 205h-275v-205h-90zM340 290h255l-85 325h-170v-325z" />
    <glyph glyph-name="T_E" unicode="&#xe019;" horiz-adv-x="720" 
d="M250 0v615h-240v85h570v-85h-240v-130h330v-85h-330v-115h250v-85h-250v-115h330v-85h-420z" />
    <glyph glyph-name="T_H_E" unicode="&#xe01a;" horiz-adv-x="1230" 
d="M235 0v615h-225v85h540v-85h-225v-220h375v305h490v-85h-400v-220h325v-85h-325v-225h400v-85h-490v310h-375v-310h-90z" />
    <glyph glyph-name="T_T" unicode="&#xe01b;" horiz-adv-x="850" 
d="M250 0v615h-240v85h570v-85h-240v-615h-90zM575 0v395h-155v85h400v-85h-155v-395h-90z" />
    <glyph glyph-name="U_U" unicode="&#xe01c;" horiz-adv-x="790" 
d="M395 -20q-101 0 -173 37t-109.5 105t-37.5 158v420h90v-420q0 -65 27.5 -113.5t79 -75t123.5 -26.5t123.5 26.5t79 75t27.5 113.5v420h90v-420q0 -90 -37.5 -158t-109.5 -105t-173 -37zM395 140q-72 0 -116 46t-44 124v240h90v-240q0 -40 19.5 -62.5t50.5 -22.5
t50.5 22.5t19.5 62.5v240h90v-240q0 -78 -44 -124t-116 -46z" />
    <glyph glyph-name="W_E" unicode="&#xe01d;" horiz-adv-x="1255" 
d="M185 0l-155 700h95l130 -615h25l130 615h145l130 -615h25l130 615h375v-85h-299l-49 -220h273v-85h-291l-50 -225h416v-85h-595l-125 615h-25l-125 -615h-160z" />
    <glyph glyph-name="ampersand.alt" unicode="&#xe020;" horiz-adv-x="710" 
d="M320 -20q-82 0 -143.5 29t-94 77t-32.5 104q0 69 39.5 113t95.5 61v1q-48 19 -81.5 60t-33.5 100q0 53 29.5 97.5t85 71t130.5 26.5q79 0 135.5 -27.5t89.5 -71.5t45 -96h-90q-16 46 -61 78t-119 32q-51 0 -86 -15t-52 -40.5t-17 -57.5q0 -33 19 -61t54 -44.5t79 -16.5
h33v-85h-33q-57 0 -95.5 -16.5t-57.5 -44.5t-19 -64q0 -34 21 -62.5t62.5 -45.5t101.5 -17q59 0 100.5 20.5t63 58.5t21.5 91v80h-80v85h270v-85h-100v-80q0 -75 -33.5 -133t-97 -90t-149.5 -32z" />
    <glyph glyph-name="I.alt" unicode="&#xe021;" horiz-adv-x="500" 
d="M45 0v85h160v530h-160v85h410v-85h-160v-530h160v-85h-410z" />
    <glyph glyph-name="a.alt" unicode="&#xe022;" horiz-adv-x="560" 
d="M230 -10q-56 0 -97 20t-62 55t-21 80q0 43 23 78.5t68 56t109 20.5h165v20q0 53 -33 84t-92 31q-56 0 -91.5 -24.5t-48.5 -60.5h-80q17 67 72 113.5t148 46.5q64 0 110 -23.5t70.5 -66.5t24.5 -100v-320h-80v80h-1q-25 -38 -72.5 -64t-111.5 -26zM245 65q51 0 89.5 21
t59.5 57.5t21 81.5v0h-170q-57 0 -86 -22t-29 -58t29 -58t86 -22z" />
    <glyph glyph-name="f.alt" unicode="&#xe023;" horiz-adv-x="315" 
d="M90 0v425h-65v75h65v40q0 78 39 119t111 41h90v-75h-85q-38 0 -56.5 -20.5t-18.5 -64.5v-40h130v-75h-130v-425h-80z" />
    <glyph glyph-name="g.alt" unicode="&#xe024;" horiz-adv-x="560" 
d="M265 -200q-83 0 -139.5 21t-83.5 54t-27 70q0 47 35 77.5t85 42.5v110q-38 21 -64 59.5t-26 90.5q0 50 27 92.5t77 67.5t116 25q43 0 75 -10h220v-70h-105l-10 1v-1q17 -18 28.5 -46t11.5 -60q0 -50 -27 -92t-77 -67t-116 -25q-16 0 -30 1.5t-25 3.5v-65q27 5 55 5
q83 0 139.5 -20.5t83.5 -52.5t27 -67q0 -37 -27 -70t-83.5 -54t-139.5 -21zM265 -130q61 0 99 11t54.5 28t16.5 36q0 17 -16.5 33t-54.5 26.5t-99 10.5t-99 -10.5t-54.5 -26.5t-16.5 -33q0 -19 16.5 -36t54.5 -28t99 -11zM265 215q44 0 75.5 14.5t48 40t16.5 55.5
t-16.5 55.5t-48 40t-75.5 14.5t-75.5 -14.5t-48 -40t-16.5 -55.5t16.5 -55.5t48 -40t75.5 -14.5z" />
    <glyph glyph-name="j.alt" unicode="&#xe025;" horiz-adv-x="220" 
d="M-75 -190v75h75q35 0 52.5 20.5t17.5 64.5v530h80v-530q0 -52 -17.5 -88t-51 -54t-81.5 -18h-75zM110 595q-22 0 -38.5 16.5t-16.5 38.5q0 23 16.5 39t38.5 16q23 0 39 -16t16 -39q0 -22 -16 -38.5t-39 -16.5z" />
    <glyph glyph-name="l.alt" unicode="&#xe026;" horiz-adv-x="220" 
d="M70 0v700h80v-700h-80z" />
    <glyph glyph-name="t.alt" unicode="&#xe027;" horiz-adv-x="365" 
d="M245 0q-75 0 -115 40t-40 115v270h-65v75h65v110h80v-110h160v-75h-160v-270q0 -41 18.5 -60.5t56.5 -19.5h90v-75h-90z" />
    <glyph glyph-name="y.alt" unicode="&#xe028;" horiz-adv-x="505" 
d="M75 -190v75h75q47 0 70.5 19t39.5 66l10 30h-115l-135 500h85l110 -425h75l130 425h85l-160 -530q-15 -51 -41 -86.5t-64.5 -54.5t-89.5 -19h-75z" />
    <glyph glyph-name="Igrave.alt" unicode="&#xe029;" horiz-adv-x="500" 
d="M45 0v85h160v530h-160v85h410v-85h-160v-530h160v-85h-410zM220 790l-115 144v1h100l85 -145h-70z" />
    <glyph glyph-name="Iacute.alt" unicode="&#xe02a;" horiz-adv-x="500" 
d="M45 0v85h160v530h-160v85h410v-85h-160v-530h160v-85h-410zM210 790l85 145h100v-1l-115 -144h-70z" />
    <glyph glyph-name="Icircumflex.alt" unicode="&#xe02b;" horiz-adv-x="500" 
d="M45 0v85h160v530h-160v85h410v-85h-160v-530h160v-85h-410zM95 790v1l110 144h90l110 -144v-1h-85l-65 90h-10l-65 -90h-85z" />
    <glyph glyph-name="Idieresis.alt" unicode="&#xe02c;" horiz-adv-x="500" 
d="M45 0v85h160v530h-160v85h410v-85h-160v-530h160v-85h-410zM160 805q-22 0 -38.5 16.5t-16.5 38.5q0 23 16.5 39t38.5 16q23 0 39 -16t16 -39q0 -22 -16 -38.5t-39 -16.5zM340 805q-22 0 -38.5 16.5t-16.5 38.5q0 23 16.5 39t38.5 16q23 0 39 -16t16 -39q0 -22 -16 -38.5
t-39 -16.5z" />
    <glyph glyph-name="agrave.alt" unicode="&#xe02d;" horiz-adv-x="560" 
d="M230 -10q-56 0 -97 20t-62 55t-21 80q0 43 23 78.5t68 56t109 20.5h165v20q0 53 -33 84t-92 31q-56 0 -91.5 -24.5t-48.5 -60.5h-80q17 67 72 113.5t148 46.5q64 0 110 -23.5t70.5 -66.5t24.5 -100v-320h-80v80h-1q-25 -38 -72.5 -64t-111.5 -26zM245 65q51 0 89.5 21
t59.5 57.5t21 81.5v0h-170q-57 0 -86 -22t-29 -58t29 -58t86 -22zM256 605l-115 144v1h100l85 -145h-70z" />
    <glyph glyph-name="aacute.alt" unicode="&#xe02e;" horiz-adv-x="560" 
d="M230 -10q-56 0 -97 20t-62 55t-21 80q0 43 23 78.5t68 56t109 20.5h165v20q0 53 -33 84t-92 31q-56 0 -91.5 -24.5t-48.5 -60.5h-80q17 67 72 113.5t148 46.5q64 0 110 -23.5t70.5 -66.5t24.5 -100v-320h-80v80h-1q-25 -38 -72.5 -64t-111.5 -26zM245 65q51 0 89.5 21
t59.5 57.5t21 81.5v0h-170q-57 0 -86 -22t-29 -58t29 -58t86 -22zM255 605l85 145h100v-1l-115 -144h-70z" />
    <glyph glyph-name="acircumflex.alt" unicode="&#xe02f;" horiz-adv-x="560" 
d="M230 -10q-56 0 -97 20t-62 55t-21 80q0 43 23 78.5t68 56t109 20.5h165v20q0 53 -33 84t-92 31q-56 0 -91.5 -24.5t-48.5 -60.5h-80q17 67 72 113.5t148 46.5q64 0 110 -23.5t70.5 -66.5t24.5 -100v-320h-80v80h-1q-25 -38 -72.5 -64t-111.5 -26zM245 65q51 0 89.5 21
t59.5 57.5t21 81.5v0h-170q-57 0 -86 -22t-29 -58t29 -58t86 -22zM140 605v1l110 144h90l110 -144v-1h-85l-65 90h-10l-65 -90h-85z" />
    <glyph glyph-name="atilde.alt" unicode="&#xe030;" horiz-adv-x="560" 
d="M230 -10q-56 0 -97 20t-62 55t-21 80q0 43 23 78.5t68 56t109 20.5h165v20q0 53 -33 84t-92 31q-56 0 -91.5 -24.5t-48.5 -60.5h-80q17 67 72 113.5t148 46.5q64 0 110 -23.5t70.5 -66.5t24.5 -100v-320h-80v80h-1q-25 -38 -72.5 -64t-111.5 -26zM245 65q51 0 89.5 21
t59.5 57.5t21 81.5v0h-170q-57 0 -86 -22t-29 -58t29 -58t86 -22zM360 615q-27 0 -45.5 9.5t-38.5 26.5q-14 12 -24 18t-22 6q-15 0 -22.5 -7.5t-7.5 -22.5v-25h-65v28q0 39 27 65.5t68 26.5q27 0 45.5 -9.5t38.5 -26.5q14 -12 24 -18t22 -6q15 0 22.5 7.5t7.5 22.5v25h65
v-28q0 -39 -27 -65.5t-68 -26.5z" />
    <glyph glyph-name="adieresis.alt" unicode="&#xe031;" horiz-adv-x="560" 
d="M230 -10q-56 0 -97 20t-62 55t-21 80q0 43 23 78.5t68 56t109 20.5h165v20q0 53 -33 84t-92 31q-56 0 -91.5 -24.5t-48.5 -60.5h-80q17 67 72 113.5t148 46.5q64 0 110 -23.5t70.5 -66.5t24.5 -100v-320h-80v80h-1q-25 -38 -72.5 -64t-111.5 -26zM245 65q51 0 89.5 21
t59.5 57.5t21 81.5v0h-170q-57 0 -86 -22t-29 -58t29 -58t86 -22zM205 620q-22 0 -38.5 16.5t-16.5 38.5q0 23 16.5 39t38.5 16q23 0 39 -16t16 -39q0 -22 -16 -38.5t-39 -16.5zM385 620q-22 0 -38.5 16.5t-16.5 38.5q0 23 16.5 39t38.5 16q23 0 39 -16t16 -39
q0 -22 -16 -38.5t-39 -16.5z" />
    <glyph glyph-name="aring.alt" unicode="&#xe032;" horiz-adv-x="560" 
d="M230 -10q-56 0 -97 20t-62 55t-21 80q0 43 23 78.5t68 56t109 20.5h165v20q0 53 -33 84t-92 31q-56 0 -91.5 -24.5t-48.5 -60.5h-80q17 67 72 113.5t148 46.5q64 0 110 -23.5t70.5 -66.5t24.5 -100v-320h-80v80h-1q-25 -38 -72.5 -64t-111.5 -26zM245 65q51 0 89.5 21
t59.5 57.5t21 81.5v0h-170q-57 0 -86 -22t-29 -58t29 -58t86 -22zM300 570q-30 0 -54 13.5t-37.5 37.5t-13.5 54t13.5 54t37.5 37.5t54 13.5t54 -13.5t37.5 -37.5t13.5 -54t-13.5 -54t-37.5 -37.5t-54 -13.5zM300 620q25 0 40 16t15 39t-15 39t-40 16t-40 -16t-15 -39
t15 -39t40 -16z" />
    <glyph glyph-name="yacute.alt" unicode="&#xe033;" horiz-adv-x="505" 
d="M75 -190v75h75q47 0 70.5 19t39.5 66l10 30h-115l-135 500h85l110 -425h75l130 425h85l-160 -530q-15 -51 -41 -86.5t-64.5 -54.5t-89.5 -19h-75zM230 605l85 145h100v-1l-115 -144h-70z" />
    <glyph glyph-name="ydieresis.alt" unicode="&#xe034;" horiz-adv-x="505" 
d="M75 -190v75h75q47 0 70.5 19t39.5 66l10 30h-115l-135 500h85l110 -425h75l130 425h85l-160 -530q-15 -51 -41 -86.5t-64.5 -54.5t-89.5 -19h-75zM170 620q-22 0 -38.5 16.5t-16.5 38.5q0 23 16.5 39t38.5 16q23 0 39 -16t16 -39q0 -22 -16 -38.5t-39 -16.5zM350 620
q-22 0 -38.5 16.5t-16.5 38.5q0 23 16.5 39t38.5 16q23 0 39 -16t16 -39q0 -22 -16 -38.5t-39 -16.5z" />
    <glyph glyph-name="amacron.alt" unicode="&#xe035;" horiz-adv-x="560" 
d="M230 -10q-56 0 -97 20t-62 55t-21 80q0 43 23 78.5t68 56t109 20.5h165v20q0 53 -33 84t-92 31q-56 0 -91.5 -24.5t-48.5 -60.5h-80q17 67 72 113.5t148 46.5q64 0 110 -23.5t70.5 -66.5t24.5 -100v-320h-80v80h-1q-25 -38 -72.5 -64t-111.5 -26zM245 65q51 0 89.5 21
t59.5 57.5t21 81.5v0h-170q-57 0 -86 -22t-29 -58t29 -58t86 -22zM160 645v70h270v-70h-270z" />
    <glyph glyph-name="abreve.alt" unicode="&#xe036;" horiz-adv-x="560" 
d="M230 -10q-56 0 -97 20t-62 55t-21 80q0 43 23 78.5t68 56t109 20.5h165v20q0 53 -33 84t-92 31q-56 0 -91.5 -24.5t-48.5 -60.5h-80q17 67 72 113.5t148 46.5q64 0 110 -23.5t70.5 -66.5t24.5 -100v-320h-80v80h-1q-25 -38 -72.5 -64t-111.5 -26zM245 65q51 0 89.5 21
t59.5 57.5t21 81.5v0h-170q-57 0 -86 -22t-29 -58t29 -58t86 -22zM292 615q-66 0 -105.5 35.5t-39.5 89.5h70q0 -31 19 -48t56 -17t56 17t19 48h70q0 -54 -39.5 -89.5t-105.5 -35.5z" />
    <glyph glyph-name="aogonek.alt" unicode="&#xe037;" horiz-adv-x="560" 
d="M420 -230q-48 0 -76.5 26.5t-28.5 68.5q0 28 16.5 54t42.5 46.5t56 34.5h-15v80h-1q-25 -38 -72.5 -64t-111.5 -26q-56 0 -97 20t-62 55t-21 80q0 43 23 78.5t68 56t109 20.5h165v20q0 53 -33 84t-92 31q-56 0 -91.5 -24.5t-48.5 -60.5h-80q17 67 72 113.5t148 46.5
q64 0 110 -23.5t70.5 -66.5t24.5 -100v-320q-50 -25 -85 -59t-35 -71q0 -19 14 -32t36 -13q33 0 70 20v-55q-13 -8 -33 -14t-42 -6zM245 65q51 0 89.5 21t59.5 57.5t21 81.5v0h-170q-57 0 -86 -22t-29 -58t29 -58t86 -22z" />
    <glyph glyph-name="gcircumflex.alt" unicode="&#xe038;" horiz-adv-x="560" 
d="M265 -200q-83 0 -139.5 21t-83.5 54t-27 70q0 47 35 77.5t85 42.5v110q-38 21 -64 59.5t-26 90.5q0 50 27 92.5t77 67.5t116 25q43 0 75 -10h220v-70h-105l-10 1v-1q17 -18 28.5 -46t11.5 -60q0 -50 -27 -92t-77 -67t-116 -25q-16 0 -30 1.5t-25 3.5v-65q27 5 55 5
q83 0 139.5 -20.5t83.5 -52.5t27 -67q0 -37 -27 -70t-83.5 -54t-139.5 -21zM265 -130q61 0 99 11t54.5 28t16.5 36q0 17 -16.5 33t-54.5 26.5t-99 10.5t-99 -10.5t-54.5 -26.5t-16.5 -33q0 -19 16.5 -36t54.5 -28t99 -11zM265 215q44 0 75.5 14.5t48 40t16.5 55.5
t-16.5 55.5t-48 40t-75.5 14.5t-75.5 -14.5t-48 -40t-16.5 -55.5t16.5 -55.5t48 -40t75.5 -14.5zM110 605v1l110 144h90l110 -144v-1h-85l-65 90h-10l-65 -90h-85z" />
    <glyph glyph-name="gbreve.alt" unicode="&#xe039;" horiz-adv-x="560" 
d="M265 -200q-83 0 -139.5 21t-83.5 54t-27 70q0 47 35 77.5t85 42.5v110q-38 21 -64 59.5t-26 90.5q0 50 27 92.5t77 67.5t116 25q43 0 75 -10h220v-70h-105l-10 1v-1q17 -18 28.5 -46t11.5 -60q0 -50 -27 -92t-77 -67t-116 -25q-16 0 -30 1.5t-25 3.5v-65q27 5 55 5
q83 0 139.5 -20.5t83.5 -52.5t27 -67q0 -37 -27 -70t-83.5 -54t-139.5 -21zM265 -130q61 0 99 11t54.5 28t16.5 36q0 17 -16.5 33t-54.5 26.5t-99 10.5t-99 -10.5t-54.5 -26.5t-16.5 -33q0 -19 16.5 -36t54.5 -28t99 -11zM265 215q44 0 75.5 14.5t48 40t16.5 55.5
t-16.5 55.5t-48 40t-75.5 14.5t-75.5 -14.5t-48 -40t-16.5 -55.5t16.5 -55.5t48 -40t75.5 -14.5zM265 615q-66 0 -105.5 35.5t-39.5 89.5h70q0 -31 19 -48t56 -17t56 17t19 48h70q0 -54 -39.5 -89.5t-105.5 -35.5z" />
    <glyph glyph-name="gdotaccent.alt" unicode="&#xe03a;" horiz-adv-x="560" 
d="M265 -200q-83 0 -139.5 21t-83.5 54t-27 70q0 47 35 77.5t85 42.5v110q-38 21 -64 59.5t-26 90.5q0 50 27 92.5t77 67.5t116 25q43 0 75 -10h220v-70h-105l-10 1v-1q17 -18 28.5 -46t11.5 -60q0 -50 -27 -92t-77 -67t-116 -25q-16 0 -30 1.5t-25 3.5v-65q27 5 55 5
q83 0 139.5 -20.5t83.5 -52.5t27 -67q0 -37 -27 -70t-83.5 -54t-139.5 -21zM265 -130q61 0 99 11t54.5 28t16.5 36q0 17 -16.5 33t-54.5 26.5t-99 10.5t-99 -10.5t-54.5 -26.5t-16.5 -33q0 -19 16.5 -36t54.5 -28t99 -11zM265 215q44 0 75.5 14.5t48 40t16.5 55.5
t-16.5 55.5t-48 40t-75.5 14.5t-75.5 -14.5t-48 -40t-16.5 -55.5t16.5 -55.5t48 -40t75.5 -14.5zM265 620q-22 0 -38.5 16.5t-16.5 38.5q0 23 16.5 39t38.5 16q23 0 39 -16t16 -39q0 -22 -16 -38.5t-39 -16.5z" />
    <glyph glyph-name="uni0123.alt" unicode="&#xe03b;" horiz-adv-x="560" 
d="M265 590q-27 0 -43.5 20t-16.5 60q0 37 13 63t37.5 40t59.5 17v-40q-29 -4 -44.5 -17.5t-15.5 -32.5q0 -5 1.5 -9t3.5 -6q5 5 15 5q19 0 32 -14t13 -36q0 -20 -15 -35t-40 -15zM265 -200q-83 0 -139.5 21t-83.5 54t-27 70q0 47 35 77.5t85 42.5v110q-38 21 -64 59.5
t-26 90.5q0 50 27 92.5t77 67.5t116 25q43 0 75 -10h220v-70h-105l-10 1v-1q17 -18 28.5 -46t11.5 -60q0 -50 -27 -92t-77 -67t-116 -25q-16 0 -30 1.5t-25 3.5v-65q27 5 55 5q83 0 139.5 -20.5t83.5 -52.5t27 -67q0 -37 -27 -70t-83.5 -54t-139.5 -21zM265 -130q61 0 99 11
t54.5 28t16.5 36q0 17 -16.5 33t-54.5 26.5t-99 10.5t-99 -10.5t-54.5 -26.5t-16.5 -33q0 -19 16.5 -36t54.5 -28t99 -11zM265 215q44 0 75.5 14.5t48 40t16.5 55.5t-16.5 55.5t-48 40t-75.5 14.5t-75.5 -14.5t-48 -40t-16.5 -55.5t16.5 -55.5t48 -40t75.5 -14.5z" />
    <glyph glyph-name="Imacron.alt" unicode="&#xe03c;" horiz-adv-x="500" 
d="M45 0v85h160v530h-160v85h410v-85h-160v-530h160v-85h-410zM115 830v70h270v-70h-270z" />
    <glyph glyph-name="Ibreve.alt" unicode="&#xe03d;" horiz-adv-x="500" 
d="M45 0v85h160v530h-160v85h410v-85h-160v-530h160v-85h-410zM250 800q-66 0 -105.5 35.5t-39.5 89.5h70q0 -31 19 -48t56 -17t56 17t19 48h70q0 -54 -39.5 -89.5t-105.5 -35.5z" />
    <glyph glyph-name="Iogonek.alt" unicode="&#xe03e;" horiz-adv-x="500" 
d="M380 -230q-48 0 -76.5 26.5t-28.5 68.5q0 28 16.5 54t42.5 46.5t56 34.5h-345v85h160v530h-160v85h410v-85h-160v-530h160v-85q-50 -25 -85 -59t-35 -71q0 -19 14 -32t36 -13q33 0 70 20v-55q-13 -8 -33 -14t-42 -6z" />
    <glyph glyph-name="Idotaccent.alt" unicode="&#xe03f;" horiz-adv-x="500" 
d="M45 0v85h160v530h-160v85h410v-85h-160v-530h160v-85h-410zM250 805q-22 0 -38.5 16.5t-16.5 38.5q0 23 16.5 39t38.5 16q23 0 39 -16t16 -39q0 -22 -16 -38.5t-39 -16.5z" />
    <glyph glyph-name="ij.alt" unicode="&#xe040;" horiz-adv-x="440" 
d="M70 0v500h80v-500h-80zM145 -190v75h75q35 0 52.5 20.5t17.5 64.5v530h80v-530q0 -52 -17.5 -88t-51 -54t-81.5 -18h-75zM110 595q-22 0 -38.5 16.5t-16.5 38.5q0 23 16.5 39t38.5 16q23 0 39 -16t16 -39q0 -22 -16 -38.5t-39 -16.5zM330 595q-22 0 -38.5 16.5
t-16.5 38.5q0 23 16.5 39t38.5 16q23 0 39 -16t16 -39q0 -22 -16 -38.5t-39 -16.5z" />
    <glyph glyph-name="jcircumflex.alt" unicode="&#xe041;" horiz-adv-x="220" 
d="M-75 -190v75h75q35 0 52.5 20.5t17.5 64.5v530h80v-530q0 -52 -17.5 -88t-51 -54t-81.5 -18h-75zM-45 605v1l110 144h90l110 -144v-1h-85l-65 90h-10l-65 -90h-85z" />
    <glyph glyph-name="lacute.alt" unicode="&#xe042;" horiz-adv-x="220" 
d="M70 0v700h80v-700h-80zM75 790l85 145h100v-1l-115 -144h-70z" />
    <glyph glyph-name="uni013C.alt" unicode="&#xe043;" horiz-adv-x="220" 
d="M70 0v700h80v-700h-80zM60 -260q29 4 44.5 17.5t15.5 32.5q0 5 -1.5 9t-3.5 6q-6 -5 -15 -5q-19 0 -32 14t-13 36q0 20 15 35t40 15q27 0 43.5 -20t16.5 -60q0 -37 -13 -63t-37.5 -40t-59.5 -17v40z" />
    <glyph glyph-name="lcaron.alt" unicode="&#xe044;" horiz-adv-x="280" 
d="M70 0v700h80v-700h-80zM205 547q29 4 44.5 17.5t15.5 32.5q0 5 -1.5 9t-3.5 6q-5 -5 -15 -5q-19 0 -32 14t-13 36q0 20 15 35t40 15q27 0 43.5 -20t16.5 -60q0 -37 -13 -63t-37.5 -40t-59.5 -17v40z" />
    <glyph glyph-name="ldot.alt" unicode="&#xe045;" horiz-adv-x="360" 
d="M70 0v700h80v-700h-80zM290 305q-22 0 -38.5 16.5t-16.5 38.5q0 23 16.5 39t38.5 16q23 0 39 -16t16 -39q0 -22 -16 -38.5t-39 -16.5z" />
    <glyph glyph-name="lslash.alt" unicode="&#xe046;" horiz-adv-x="265" 
d="M85 0v275l-80 -40v85l80 40v340h80v-305l95 50v-85l-95 -50v-310h-80z" />
    <glyph glyph-name="uni0163.alt" unicode="&#xe047;" horiz-adv-x="365" 
d="M195 -240q-17 0 -31.5 3t-25.5 7.5t-18 9.5v55q12 -8 31 -14t44 -6t37.5 11.5t12.5 28.5q0 20 -13 30t-42 10h-40l47 109q-53 12 -80 50.5t-27 100.5v270h-65v75h65v110h80v-110h160v-75h-160v-270q0 -41 18.5 -60.5t56.5 -19.5h90v-75h-85l-25 -55q33 -6 56.5 -28.5
t23.5 -61.5t-31 -67t-79 -28z" />
    <glyph glyph-name="tcaron.alt" unicode="&#xe048;" horiz-adv-x="365" 
d="M245 0q-75 0 -115 40t-40 115v270h-65v75h65v110h80v-455q0 -41 18.5 -60.5t56.5 -19.5h90v-75h-90zM230 460q29 4 44.5 17.5t15.5 32.5q0 5 -1.5 9t-3.5 6q-5 -5 -15 -5q-19 0 -32 14t-13 36q0 20 15 35t40 15q27 0 43.5 -20t16.5 -60q0 -37 -13 -63t-37.5 -40
t-59.5 -17v40z" />
    <glyph glyph-name="tbar.alt" unicode="&#xe049;" horiz-adv-x="365" 
d="M245 0q-75 0 -115 40t-40 115v115h-65v70h65v85h-65v75h65v110h80v-110h160v-75h-160v-85h160v-70h-160v-115q0 -41 18.5 -60.5t56.5 -19.5h90v-75h-90z" />
    <glyph glyph-name="ycircumflex.alt" unicode="&#xe04a;" horiz-adv-x="505" 
d="M75 -190v75h75q47 0 70.5 19t39.5 66l10 30h-115l-135 500h85l110 -425h75l130 425h85l-160 -530q-15 -51 -41 -86.5t-64.5 -54.5t-89.5 -19h-75zM105 605v1l110 144h90l110 -144v-1h-85l-65 90h-10l-65 -90h-85z" />
    <glyph glyph-name="florin.alt" unicode="&#xe04b;" horiz-adv-x="390" 
d="M-85 -190v75h75q41 0 64.5 23t30.5 72l65 445h-55v75h70l10 70q9 58 48.5 94t102.5 36h89v-75h-90q-34 0 -49 -14t-21 -51l-10 -60h120v-75h-135l-65 -445q-12 -83 -56.5 -126.5t-118.5 -43.5h-75z" />
    <glyph glyph-name="uni01F5.alt" unicode="&#xe04c;" horiz-adv-x="560" 
d="M265 -200q-83 0 -139.5 21t-83.5 54t-27 70q0 47 35 77.5t85 42.5v110q-38 21 -64 59.5t-26 90.5q0 50 27 92.5t77 67.5t116 25q43 0 75 -10h220v-70h-105l-10 1v-1q17 -18 28.5 -46t11.5 -60q0 -50 -27 -92t-77 -67t-116 -25q-16 0 -30 1.5t-25 3.5v-65q27 5 55 5
q83 0 139.5 -20.5t83.5 -52.5t27 -67q0 -37 -27 -70t-83.5 -54t-139.5 -21zM265 -130q61 0 99 11t54.5 28t16.5 36q0 17 -16.5 33t-54.5 26.5t-99 10.5t-99 -10.5t-54.5 -26.5t-16.5 -33q0 -19 16.5 -36t54.5 -28t99 -11zM265 215q44 0 75.5 14.5t48 40t16.5 55.5
t-16.5 55.5t-48 40t-75.5 14.5t-75.5 -14.5t-48 -40t-16.5 -55.5t16.5 -55.5t48 -40t75.5 -14.5zM230 605l85 145h100v-1l-115 -144h-70z" />
    <glyph glyph-name="aringacute.alt" unicode="&#xe04d;" horiz-adv-x="560" 
d="M300 580q-30 0 -54 13.5t-37.5 37.5t-13.5 54q0 41 26 70t66 34l38 66h80v-1l-59 -74q27 -12 43 -37.5t16 -57.5q0 -30 -13.5 -54t-37.5 -37.5t-54 -13.5zM300 630q25 0 40 16t15 39t-15 39t-40 16t-40 -16t-15 -39t15 -39t40 -16zM230 -10q-56 0 -97 20t-62 55t-21 80
q0 43 23 78.5t68 56t109 20.5h165v20q0 53 -33 84t-92 31q-56 0 -91.5 -24.5t-48.5 -60.5h-80q17 67 72 113.5t148 46.5q64 0 110 -23.5t70.5 -66.5t24.5 -100v-320h-80v80h-1q-25 -38 -72.5 -64t-111.5 -26zM245 65q51 0 89.5 21t59.5 57.5t21 81.5v0h-170q-57 0 -86 -22
t-29 -58t29 -58t86 -22z" />
    <glyph glyph-name="uni021B.alt" unicode="&#xe04e;" horiz-adv-x="365" 
d="M245 0q-75 0 -115 40t-40 115v270h-65v75h65v110h80v-110h160v-75h-160v-270q0 -41 18.5 -60.5t56.5 -19.5h90v-75h-90zM165 -260q29 4 44.5 17.5t15.5 32.5q0 5 -1.5 9t-3.5 6q-6 -5 -15 -5q-19 0 -32 14t-13 36q0 20 15 35t40 15q27 0 43.5 -20t16.5 -60q0 -37 -13 -63
t-37.5 -40t-59.5 -17v40z" />
    <glyph glyph-name="uni0233.alt" unicode="&#xe04f;" horiz-adv-x="505" 
d="M75 -190v75h75q47 0 70.5 19t39.5 66l10 30h-115l-135 500h85l110 -425h75l130 425h85l-160 -530q-15 -51 -41 -86.5t-64.5 -54.5t-89.5 -19h-75zM120 645v70h270v-70h-270z" />
    <glyph glyph-name="uni0402.alt" unicode="&#xe050;" horiz-adv-x="775" 
d="M474 -120v85h1q82 0 123.5 40t41.5 117v63q0 72 -43.5 113.5t-121.5 41.5h-175v-340h-90v615h-210v85h525v-85h-225v-190h175q76 0 134 -30.5t89.5 -85t31.5 -124.5v-65q0 -72 -30.5 -126.5t-88 -84t-136.5 -29.5h-1z" />
    <glyph glyph-name="uni0406.alt" unicode="&#xe051;" horiz-adv-x="500" 
d="M45 0v85h160v530h-160v85h410v-85h-160v-530h160v-85h-410z" />
    <glyph glyph-name="uni0407.alt" unicode="&#xe052;" horiz-adv-x="500" 
d="M45 0v85h160v530h-160v85h410v-85h-160v-530h160v-85h-410zM160 805q-22 0 -38.5 16.5t-16.5 38.5q0 23 16.5 39t38.5 16q23 0 39 -16t16 -39q0 -22 -16 -38.5t-39 -16.5zM340 805q-22 0 -38.5 16.5t-16.5 38.5q0 23 16.5 39t38.5 16q23 0 39 -16t16 -39q0 -22 -16 -38.5
t-39 -16.5z" />
    <glyph glyph-name="uni0409.alt" unicode="&#xe053;" horiz-adv-x="1110" 
d="M60 -10q-33 0 -60 10v85q21 -10 45 -10q35 0 59 20.5t37.5 73t13.5 146.5v385h470v-240h195q78 0 137 -30t91 -82.5t32 -117.5t-32 -117.5t-91 -82.5t-137 -30h-285v615h-290v-300q0 -177 -48 -251t-137 -74zM820 85q81 0 125.5 40t44.5 105t-44.5 105t-125.5 40h-195
v-290h195z" />
    <glyph glyph-name="uni040C.alt" unicode="&#xe054;" horiz-adv-x="685" 
d="M630 -5q-71 0 -113 40.5t-42 104.5v85q0 41 -22 63t-63 22h-220v-310h-90v700h90v-305h210q41 0 63 22t22 63v80q0 64 42 104.5t113 40.5h30v-80h-30q-30 0 -47.5 -17.5t-17.5 -47.5v-85q0 -49 -22 -78t-53 -37v-5v0q55 -28 51.5 -26t15 -25.5t18.5 -73.5v-90
q0 -30 17.5 -47.5t47.5 -17.5h30v-80h-30zM296 827l85 145h100v-1l-115 -144h-70z" />
    <glyph glyph-name="uni0414.alt" unicode="&#xe055;" horiz-adv-x="745" 
d="M0 -135v220h70q33 19 56.5 80.5t23.5 164.5v370h480v-615h95v-220h-90v135h-545v-135h-90zM175 85h365v530h-300v-285q0 -96 -19 -158t-46 -87z" />
    <glyph glyph-name="uni0416.alt" unicode="&#xe056;" horiz-adv-x="1000" 
d="M25 -5v80h30q30 0 47.5 17.5t17.5 47.5v90q0 52 24.5 83t60.5 42v5q-31 8 -53 37t-22 78v85q0 30 -17.5 47.5t-47.5 17.5h-30v80h30q71 0 113 -40.5t42 -104.5v-80q0 -41 22 -63t63 -22h150v305h90v-305h150q41 0 63 22t22 63v80q0 64 42 104.5t113 40.5h30v-80h-30
q-30 0 -47.5 -17.5t-17.5 -47.5v-85q0 -49 -22 -78t-53 -37v-5v0q11 -3 30 -13.5t37 -38.5t18 -73v-90q0 -30 17.5 -47.5t47.5 -17.5h30v-80h-30q-71 0 -113 40.5t-42 104.5v85q0 41 -22 63t-63 22h-160v-310h-90v310h-160q-41 0 -63 -22t-22 -63v-85q0 -64 -42 -104.5
t-113 -40.5h-30z" />
    <glyph glyph-name="uni041A.alt" unicode="&#xe057;" horiz-adv-x="685" 
d="M630 -5q-71 0 -113 40.5t-42 104.5v85q0 41 -22 63t-63 22h-220v-310h-90v700h90v-305h210q41 0 63 22t22 63v80q0 64 42 104.5t113 40.5h30v-80h-30q-30 0 -47.5 -17.5t-17.5 -47.5v-85q0 -49 -22 -78t-53 -37v-5v0q55 -28 51.5 -26t15 -25.5t18.5 -73.5v-90
q0 -30 17.5 -47.5t47.5 -17.5h30v-80h-30z" />
    <glyph glyph-name="uni041B.alt" unicode="&#xe058;" horiz-adv-x="725" 
d="M60 -10q-33 0 -60 10v85q21 -10 45 -10q35 0 59 20.5t37.5 73t13.5 146.5v385h490v-700h-90v615h-310v-300q0 -177 -48 -251t-137 -74z" />
    <glyph glyph-name="uni0430.alt" unicode="&#xe059;" horiz-adv-x="560" 
d="M230 -10q-56 0 -97 20t-62 55t-21 80q0 43 23 78.5t68 56t109 20.5h165v20q0 53 -33 84t-92 31q-56 0 -91.5 -24.5t-48.5 -60.5h-80q17 67 72 113.5t148 46.5q64 0 110 -23.5t70.5 -66.5t24.5 -100v-320h-80v80h-1q-25 -38 -72.5 -64t-111.5 -26zM245 65q51 0 89.5 21
t59.5 57.5t21 81.5v0h-170q-57 0 -86 -22t-29 -58t29 -58t86 -22z" />
    <glyph glyph-name="uni0434.alt" unicode="&#xe05a;" horiz-adv-x="575" 
d="M5 -115v190h55q21 11 35.5 45t14.5 91v289h375v-425h75v-190h-80v115h-395v-115h-80zM405 75v350h-215v-214q0 -50 -11.5 -84.5t-28.5 -50.5v-1h255z" />
    <glyph glyph-name="uni0436.alt" unicode="&#xe05b;" horiz-adv-x="780" 
d="M25 -5v75h20q23 0 34 11.5t11 33.5v60q0 32 17.5 52t42.5 27v5q-13 4 -24.5 12.5t-18.5 23.5t-7 35v55q0 23 -11 34t-34 11h-20v75h20q62 0 93.5 -26.5t31.5 -73.5v-60q0 -26 14.5 -40.5t40.5 -14.5h115v210h80v-210h115q26 0 40.5 14.5t14.5 40.5v60q0 47 31.5 73.5
t93.5 26.5h20v-75h-20q-22 0 -33.5 -11t-11.5 -34v-55q0 -29 -14.5 -47t-35.5 -24v-5h1q19 -6 39 -23t20 -56v-60q0 -22 11.5 -33.5t33.5 -11.5h20v-75h-20q-62 0 -93.5 26.5t-31.5 73.5v65q0 26 -14.5 40.5t-40.5 14.5h-125v-215h-80v215h-125q-26 0 -40.5 -14.5
t-14.5 -40.5v-65q0 -47 -31.5 -73.5t-93.5 -26.5h-20z" />
    <glyph glyph-name="uni043A.alt" unicode="&#xe05c;" horiz-adv-x="530" 
d="M485 -5q-62 0 -93.5 26.5t-31.5 73.5v65q0 26 -14.5 40.5t-40.5 14.5h-155v-215h-80v500h80v-210h145q26 0 40.5 14.5t14.5 40.5v60q0 47 31.5 73.5t93.5 26.5h20v-75h-20q-22 0 -33.5 -11t-11.5 -34v-55q0 -20 -7 -35t-18.5 -23.5t-24.5 -12.5v0v-5q25 -7 42.5 -27
t17.5 -52v-60q0 -22 11.5 -33.5t33.5 -11.5h20v-75h-20z" />
    <glyph glyph-name="uni043B.alt" unicode="&#xe05d;" horiz-adv-x="580" 
d="M55 -5q-33 0 -55 10v74q16 -9 40 -9q43 0 61.5 26t18.5 94v310h390v-500h-80v425h-230v-235q0 -102 -37.5 -148.5t-107.5 -46.5z" />
    <glyph glyph-name="uni0443.alt" unicode="&#xe05e;" horiz-adv-x="505" 
d="M75 -190v75h75q47 0 70.5 19t39.5 66l10 30h-115l-135 500h85l110 -425h75l130 425h85l-160 -530q-15 -51 -41 -86.5t-64.5 -54.5t-89.5 -19h-75z" />
    <glyph glyph-name="uni0452.alt" unicode="&#xe05f;" horiz-adv-x="585" 
d="M300 -190v75h70q38 0 59 22t21 64v239q0 73 -36 109t-99 36q-45 0 -80 -20.5t-55 -58t-20 -86.5v-190h-80v520h-65v75h65v105h80v-105h125v-75h-125v-175h1q23 36 66.5 60.5t102.5 24.5q91 0 145.5 -57.5t54.5 -157.5v-244q0 -72 -43.5 -116.5t-112.5 -44.5h-74z" />
    <glyph glyph-name="uni0458.alt" unicode="&#xe060;" horiz-adv-x="220" 
d="M-75 -190v75h75q35 0 52.5 20.5t17.5 64.5v530h80v-530q0 -52 -17.5 -88t-51 -54t-81.5 -18h-75zM110 595q-22 0 -38.5 16.5t-16.5 38.5q0 23 16.5 39t38.5 16q23 0 39 -16t16 -39q0 -22 -16 -38.5t-39 -16.5z" />
    <glyph glyph-name="uni0459.alt" unicode="&#xe061;" horiz-adv-x="835" 
d="M55 -5q-33 0 -55 10v74q16 -9 40 -9q43 0 61.5 26t18.5 94v310h370v-170h130q56 0 99.5 -22t67 -60t23.5 -83t-23.5 -83t-67 -60t-99.5 -22h-210v425h-210v-235q0 -102 -37.5 -148.5t-107.5 -46.5zM620 75q51 0 80.5 25.5t29.5 64.5t-29.5 64.5t-80.5 25.5h-130v-180h130
z" />
    <glyph glyph-name="uni045C.alt" unicode="&#xe062;" horiz-adv-x="530" 
d="M485 -5q-62 0 -93.5 26.5t-31.5 73.5v65q0 26 -14.5 40.5t-40.5 14.5h-155v-215h-80v500h80v-210h145q26 0 40.5 14.5t14.5 40.5v60q0 47 31.5 73.5t93.5 26.5h20v-75h-20q-22 0 -33.5 -11t-11.5 -34v-55q0 -20 -7 -35t-18.5 -23.5t-24.5 -12.5v0v-5q25 -7 42.5 -27
t17.5 -52v-60q0 -22 11.5 -33.5t33.5 -11.5h20v-75h-20zM225 605l85 145h100v-1l-115 -144h-70z" />
    <glyph glyph-name="uni045E.alt" unicode="&#xe063;" horiz-adv-x="505" 
d="M75 -190v75h75q47 0 70.5 19t39.5 66l10 30h-115l-135 500h85l110 -425h75l130 425h85l-160 -530q-15 -51 -41 -86.5t-64.5 -54.5t-89.5 -19h-75zM275 615q-69 0 -109.5 35.5t-40.5 89.5h75q0 -27 19.5 -43.5t55.5 -16.5t55.5 16.5t19.5 43.5h75q0 -54 -40.5 -89.5
t-109.5 -35.5z" />
    <glyph glyph-name="ygrave.alt" unicode="&#xe064;" horiz-adv-x="505" 
d="M75 -190v75h75q47 0 70.5 19t39.5 66l10 30h-115l-135 500h85l110 -425h75l130 425h85l-160 -530q-15 -51 -41 -86.5t-64.5 -54.5t-89.5 -19h-75zM225 605l-115 144v1h100l85 -145h-70z" />
    <glyph glyph-name="ampersand.alt2" unicode="&#xe06a;" horiz-adv-x="855" 
d="M385 -10q-98 0 -171.5 38t-113.5 105t-40 152q0 73 33 132.5t89 93.5t123 34q77 0 130.5 -33.5t82.5 -86.5t37 -115l-410 -80q13 -49 44 -86t80.5 -58t115.5 -21q97 0 166 47.5t105.5 119.5t40.5 144h80q-8 -89 -53 -178t-131 -148.5t-208 -59.5zM455 365q-19 45 -56 75
t-94 30q-42 0 -78 -21.5t-59 -59t-28 -84.5zM605 305v71h245v-71h-245z" />
    <glyph glyph-name="Aacute.alt2" unicode="&#xe06b;" horiz-adv-x="675" 
d="M20 0l180 700h100v125h110v-1l-35 -124h100l180 -700h-90l-55 205h-345l-55 -205h-90zM185 290h305l-85 325h-135z" />
    <glyph glyph-name="Adieresis.alt2" unicode="&#xe06c;" horiz-adv-x="675" 
d="M173 595q9 10 13 23t4 26v7t-1 6l11 43h275l11 -43q-1 -3 -1 -13q0 -13 4 -26t13 -23l153 -595h-90l-55 205h-345l-55 -205h-90zM185 290h305l-85 325h-135zM111 600q-22 0 -38.5 16.5t-16.5 38.5q0 23 16.5 39t38.5 16q23 0 39 -16t16 -39q0 -22 -16 -38.5t-39 -16.5z
M565 600q-22 0 -38.5 16.5t-16.5 38.5q0 23 16.5 39t38.5 16q23 0 39 -16t16 -39q0 -22 -16 -38.5t-39 -16.5zM189 657h23l-17 -62h-22zM486 657l16 -62h-22l-17 62h23z" />
    <glyph glyph-name="Aring.alt2" unicode="&#xe06d;" horiz-adv-x="675" 
d="M20 0l180 700h53q-6 9 -10.5 21t-4.5 24q0 35 28 60t72 25t72 -25t28 -60q0 -12 -4.5 -24t-10.5 -21h52l180 -700h-90l-55 205h-345l-55 -205h-90zM185 290h305l-85 325h-135zM338 700q25 0 37.5 12t12.5 28q0 17 -12.5 28.5t-37.5 11.5t-37.5 -11.5t-12.5 -28.5
q0 -16 13 -28t37 -12z" />
    <glyph glyph-name="Eacute.alt2" unicode="&#xe06e;" 
d="M80 0v700h210v125h110v-1l-35 -124h205v-85h-400v-220h325v-85h-325v-225h400v-85h-490z" />
    <glyph glyph-name="Iacute.alt2" unicode="&#xe06f;" horiz-adv-x="250" 
d="M80 0v640h90v-640h-90zM85 700v125h110v-1l-35 -124h-75z" />
    <glyph glyph-name="Oacute.alt2" unicode="&#xe070;" horiz-adv-x="820" 
d="M410 -20q-104 0 -187 47.5t-130.5 132t-47.5 190.5q0 99 41.5 179.5t115.5 130t168 58.5v107h110v-1l-30 -106q94 -9 168 -58.5t115.5 -130t41.5 -179.5q0 -106 -47.5 -190.5t-130.5 -132t-187 -47.5zM410 65q79 0 142 36t98 100.5t35 148.5t-35 148.5t-98 100.5t-142 36
t-142 -36t-98 -100.5t-35 -148.5t35 -148.5t98 -100.5t142 -36z" />
    <glyph glyph-name="Otilde.alt2" unicode="&#xe071;" horiz-adv-x="820" 
d="M410 -20q-104 0 -187 44.5t-130.5 123t-47.5 177.5t47.5 177.5t130.5 123t187 44.5t187 -44.5t130.5 -123t47.5 -177.5t-47.5 -177.5t-130.5 -123t-187 -44.5zM410 65q79 0 142 32.5t98 92t35 135.5t-35 135.5t-98 92t-142 32.5t-142 -32.5t-98 -92t-35 -135.5t35 -135.5
t98 -92t142 -32.5zM475 695q-27 0 -45.5 9.5t-38.5 26.5q-14 12 -24 18t-22 6q-15 0 -22.5 -7.5t-7.5 -22.5v-25h-65v28q0 39 27 65.5t68 26.5q27 0 45.5 -9.5t38.5 -26.5q14 -12 24 -18t22 -6q15 0 22.5 7.5t7.5 22.5v25h65v-28q0 -39 -27 -65.5t-68 -26.5z" />
    <glyph glyph-name="Odieresis.alt2" unicode="&#xe072;" horiz-adv-x="820" 
d="M410 -20q-104 0 -187 47.5t-130.5 132t-47.5 190.5q0 63 17 118.5t49 101.5q2 0 7 1t11 3q18 6 32 20.5t21 33.5q4 11 4 20q46 35 103 53.5t121 18.5t121 -18.5t103 -53.5q0 -9 4 -20q7 -19 21 -33.5t32 -20.5q6 -2 11 -3t7 -1q32 -46 49 -101.5t17 -118.5
q0 -106 -47.5 -190.5t-130.5 -132t-187 -47.5zM100 600q-22 0 -38.5 16.5t-16.5 38.5q0 23 16.5 39t38.5 16q23 0 39 -16t16 -39q0 -22 -16 -38.5t-39 -16.5zM410 65q79 0 142 36t98 100.5t35 148.5t-35 148.5t-98 100.5t-142 36t-142 -36t-98 -100.5t-35 -148.5t35 -148.5
t98 -100.5t142 -36zM720 600q-22 0 -38.5 16.5t-16.5 38.5q0 23 16.5 39t38.5 16q23 0 39 -16t16 -39q0 -22 -16 -38.5t-39 -16.5zM186 648l21 -22l-72 -76l-24 20q31 45 75 78zM634 648q44 -33 75 -78l-24 -20l-72 76z" />
    <glyph glyph-name="Uacute.alt2" unicode="&#xe073;" horiz-adv-x="700" 
d="M350 -20q-82 0 -144.5 35t-96.5 99.5t-34 150.5v435h90v-435q0 -93 50.5 -146.5t134.5 -53.5t134.5 53.5t50.5 146.5v435h90v-435q0 -86 -34 -150.5t-96.5 -99.5t-144.5 -35zM315 700v125h110v-1l-35 -124h-75z" />
    <glyph glyph-name="Udieresis.alt2" unicode="&#xe074;" horiz-adv-x="705" 
d="M350 -20q-82 0 -144.5 35t-96.5 99.5t-34 150.5v310h10q9 -5 17.5 -7t17.5 -2t17.5 2t17.5 7h10v-310q0 -93 50.5 -146.5t134.5 -53.5t134.5 53.5t50.5 146.5v310h10q9 -5 17.5 -7t17.5 -2t17.5 2t17.5 7h10v-310q0 -86 -34 -150.5t-96.5 -99.5t-144.5 -35zM120 600
q-22 0 -38.5 16.5t-16.5 38.5q0 23 16.5 39t38.5 16q23 0 39 -16t16 -39q0 -22 -16 -38.5t-39 -16.5zM580 600q-22 0 -38.5 16.5t-16.5 38.5q0 23 16.5 39t38.5 16q23 0 39 -16t16 -39q0 -22 -16 -38.5t-39 -16.5z" />
    <glyph glyph-name="Yacute.alt2" unicode="&#xe075;" horiz-adv-x="640" 
d="M275 0v255l-270 445h105l205 -340h10l205 340h105l-270 -445v-255h-90zM285 700v125h110v-1l-35 -124h-75z" />
    <glyph glyph-name="Scaron.alt2" unicode="&#xe076;" horiz-adv-x="640" 
d="M330 -20q-85 0 -146 31t-96 81t-48 108h90q16 -56 66.5 -95.5t133.5 -39.5q58 0 97.5 16t58.5 43t19 61q0 36 -24.5 59.5t-61 37.5t-100.5 32q-81 23 -130 43t-84 59.5t-35 103.5q0 67 48 120.5t130 71.5l-78 102v1h85l65 -95h10l65 95h85v-1l-79 -103q80 -19 127.5 -71
t61.5 -115h-90q-14 46 -59 78t-121 32q-50 0 -86.5 -16t-55 -42t-18.5 -57q0 -35 24 -58t60.5 -37t99.5 -31q81 -23 131 -44t85 -61t35 -104q0 -56 -31.5 -102.5t-91.5 -74.5t-142 -28z" />
    <glyph glyph-name="Zcaron.alt2" unicode="&#xe077;" horiz-adv-x="605" 
d="M30 0v85l425 525v5h-410v85h175l-75 114v1h85l65 -115h10l65 115h85v-1l-75 -114h190v-85l-425 -525v-5h430v-85h-545z" />
    <glyph glyph-name="Aringacute.alt2" unicode="&#xe078;" horiz-adv-x="675" 
d="M20 0l180 700h53q-6 9 -10.5 21t-4.5 24q0 32 24 56t62 28l36 61h80v-1l-57 -68q25 -10 40 -31t15 -45q0 -12 -4.5 -24t-10.5 -21h52l180 -700h-90l-55 205h-345l-55 -205h-90zM185 290h305l-85 325h-135zM338 700q25 0 37.5 12t12.5 28q0 17 -12.5 28.5t-37.5 11.5
t-37.5 -11.5t-12.5 -28.5q0 -16 13 -28t37 -12z" />
    <glyph glyph-name="AEacute.alt2" unicode="&#xe079;" horiz-adv-x="980" 
d="M20 0l180 700h275v125h110v-1l-35 -124h390v-85h-385v-220h310v-85h-310v-225h385v-85h-475v205h-300l-55 -205h-90zM185 290h280v325h-195z" />
    <glyph glyph-name="Oslashacute.alt2" unicode="&#xe07a;" horiz-adv-x="820" 
d="M410 -20q-82 0 -151.5 29.5t-118.5 83.5l-125 -98v90l83 65q-26 43 -39.5 93.5t-13.5 106.5q0 99 41.5 179.5t115.5 130t168 58.5v107h110v-1l-30 -106q64 -6 123.5 -33.5t106.5 -78.5l125 99v-90l-83 -65q26 -43 39.5 -93.5t13.5 -106.5q0 -106 -47.5 -190.5
t-130.5 -132t-187 -47.5zM410 65q79 0 142 36t98 100.5t35 148.5q0 40 -8.5 76.5t-24.5 68.5l-443 -348q37 -39 88.5 -60.5t112.5 -21.5zM611 552q-37 40 -88.5 61.5t-112.5 21.5q-79 0 -142 -36t-98 -100.5t-35 -148.5q0 -41 8.5 -77.5t24.5 -67.5z" />
    <glyph glyph-name="aacute.alt2_sc" unicode="&#xe07b;" horiz-adv-x="625" 
d="M20 0l165 600h90v125h110v-1l-35 -124h90l165 -600h-90l-45 165h-315l-45 -165h-90zM180 250h265l-70 265h-125z" />
    <glyph glyph-name="adieresis.alt2_sc" unicode="&#xe07c;" horiz-adv-x="625" 
d="M158 502q9 10 14 24.5t5 28.5v6t-1 6l9 33h255l9 -33q-1 -3 -1 -6v-6q0 -14 5 -28.5t14 -24.5l138 -502h-90l-45 165h-315l-45 -165h-90zM95 500q-22 0 -38.5 16.5t-16.5 38.5q0 23 16.5 39t38.5 16q23 0 39 -16t16 -39q0 -22 -16 -38.5t-39 -16.5zM180 250h265l-70 265
h-125zM530 500q-22 0 -38.5 16.5t-16.5 38.5q0 23 16.5 39t38.5 16q23 0 39 -16t16 -39q0 -22 -16 -38.5t-39 -16.5zM176 567h23l-19 -65h-22zM449 567l18 -65h-22l-19 65h23z" />
    <glyph glyph-name="aring.alt2_sc" unicode="&#xe07d;" horiz-adv-x="625" 
d="M20 0l165 600h45q-8 7 -14 19t-6 28q0 22 13 41t36 30.5t53 11.5t53.5 -11.5t36.5 -30.5t13 -41q0 -16 -6 -28t-15 -19h46l165 -600h-90l-45 165h-315l-45 -165h-90zM180 250h265l-70 265h-125zM312 600q23 0 38 12.5t15 29.5q0 19 -14.5 31t-38.5 12t-38 -12t-14 -31
q0 -18 14 -30t38 -12z" />
    <glyph glyph-name="eacute.alt2_sc" unicode="&#xe07e;" horiz-adv-x="555" 
d="M80 0v600h186v125h110v-1l-35 -124h174v-85h-345v-165h285v-85h-285v-180h345v-85h-435z" />
    <glyph glyph-name="iacute.alt2_sc" unicode="&#xe07f;" horiz-adv-x="250" 
d="M80 0v550h90v-550h-90zM85 600v125h110v-1l-35 -124h-75z" />
    <glyph glyph-name="oacute.alt2_sc" unicode="&#xe080;" horiz-adv-x="750" 
d="M375 -20q-93 0 -168.5 42.5t-118.5 115.5t-43 162q0 83 37 152t103 112.5t150 52.5v108h110v-1l-30 -107q83 -9 149.5 -52.5t103.5 -113t37 -151.5q0 -89 -43 -162t-118.5 -115.5t-168.5 -42.5zM375 65q69 0 123.5 30.5t85.5 84t31 120.5t-31 120.5t-85.5 84t-123.5 30.5
t-123.5 -30.5t-85.5 -84t-31 -120.5t31 -120.5t85.5 -84t123.5 -30.5z" />
    <glyph glyph-name="otilde.alt2_sc" unicode="&#xe081;" horiz-adv-x="750" 
d="M375 -20q-93 0 -168.5 39.5t-118.5 108t-43 152.5t43 152.5t118.5 108t168.5 39.5t168.5 -39.5t118.5 -108t43 -152.5t-43 -152.5t-118.5 -108t-168.5 -39.5zM375 65q68 0 123 29.5t86 79t31 106.5t-31 105t-86 76.5t-123 28.5t-123 -28.5t-86 -76.5t-31 -105t31 -106.5
t86 -79t123 -29.5zM440 605q-27 0 -45.5 9.5t-38.5 26.5q-14 12 -24 18t-22 6q-15 0 -22.5 -7.5t-7.5 -22.5v-25h-65v28q0 39 27 65.5t68 26.5q27 0 45.5 -9.5t38.5 -26.5q14 -12 24 -18t22 -6q15 0 22.5 7.5t7.5 22.5v25h65v-28q0 -39 -27 -65.5t-68 -26.5z" />
    <glyph glyph-name="odieresis.alt2_sc" unicode="&#xe082;" horiz-adv-x="750" 
d="M375 -20q-93 0 -168.5 42.5t-118.5 115.5t-43 162q0 50 14 95.5t40 84.5q3 0 8 0.5t10 2.5q16 5 27.5 15.5t19.5 26.5q3 7 4.5 14.5t1.5 14.5q42 32 94 49t111 17t111 -17t94 -49q0 -7 1.5 -14.5t4.5 -14.5q7 -15 19 -26t28 -16q5 -2 10 -2.5t8 -0.5q26 -39 40 -84.5
t14 -95.5q0 -89 -43 -162t-118.5 -115.5t-168.5 -42.5zM95 500q-22 0 -38.5 16.5t-16.5 38.5q0 23 16.5 39t38.5 16q23 0 39 -16t16 -39q0 -22 -16 -38.5t-39 -16.5zM375 65q69 0 123.5 30.5t85.5 84t31 120.5t-31 120.5t-85.5 84t-123.5 30.5t-123.5 -30.5t-85.5 -84
t-31 -120.5t31 -120.5t85.5 -84t123.5 -30.5zM655 500q-22 0 -38.5 16.5t-16.5 38.5q0 23 16.5 39t38.5 16q23 0 39 -16t16 -39q0 -22 -16 -38.5t-39 -16.5zM189 528l17 -19l-50 -54l-21 17q21 26 54 56zM561 528q34 -32 54 -56l-21 -17l-50 54z" />
    <glyph glyph-name="uacute.alt2_sc" unicode="&#xe083;" horiz-adv-x="670" 
d="M335 -20q-79 0 -138 31.5t-90.5 90.5t-31.5 138v360h90v-360q0 -82 45.5 -128.5t124.5 -46.5t124.5 46.5t45.5 128.5v360h90v-360q0 -79 -31.5 -138t-90.5 -90.5t-138 -31.5zM290 600v125h110v-1l-35 -124h-75z" />
    <glyph glyph-name="udieresis.alt2_sc" unicode="&#xe084;" horiz-adv-x="670" 
d="M335 -20q-79 0 -138 31.5t-90.5 90.5t-31.5 138v260h10q9 -5 17.5 -7t17.5 -2t17.5 2t17.5 7h10v-260q0 -82 45.5 -128.5t124.5 -46.5t124.5 46.5t45.5 128.5v260h10q9 -5 17.5 -7t17.5 -2t17.5 2t17.5 7h10v-260q0 -79 -31.5 -138t-90.5 -90.5t-138 -31.5zM120 515
q-22 0 -38.5 16.5t-16.5 38.5q0 23 16.5 39t38.5 16q23 0 39 -16t16 -39q0 -22 -16 -38.5t-39 -16.5zM550 515q-22 0 -38.5 16.5t-16.5 38.5q0 23 16.5 39t38.5 16q23 0 39 -16t16 -39q0 -22 -16 -38.5t-39 -16.5z" />
    <glyph glyph-name="yacute.alt2_sc" unicode="&#xe085;" horiz-adv-x="590" 
d="M250 0v225l-245 375h105l180 -275h10l180 275h105l-245 -375v-225h-90zM250 600v125h110v-1l-35 -124h-75z" />
    <glyph glyph-name="scaron.alt2_sc" unicode="&#xe086;" horiz-adv-x="605" 
d="M310 -20q-80 0 -137 27t-89.5 70t-43.5 93h95q14 -44 57.5 -74.5t117.5 -30.5q52 0 88.5 14t54 37t17.5 49q0 30 -22 49.5t-55 30t-90 22.5q-75 17 -121 33.5t-79 51.5t-33 93q0 61 41 106t117 61l-78 102v1h85l65 -95h10l65 95h85v-1l-79 -102q74 -17 117.5 -62.5
t56.5 -99.5h-90q-13 36 -53.5 60.5t-106.5 24.5q-70 0 -107.5 -26.5t-37.5 -63.5q0 -29 21.5 -47t54 -28.5t87.5 -22.5q76 -17 123 -34t80.5 -52.5t33.5 -95.5q0 -51 -28.5 -93t-85 -67t-136.5 -25z" />
    <glyph glyph-name="zcaron.alt2_sc" unicode="&#xe087;" horiz-adv-x="560" 
d="M30 0v85l375 429v1h-360v85h164l-74 114v1h85l65 -115h10l65 115h85v-1l-75 -114h155v-85l-375 -429v-1h380v-85h-500z" />
    <glyph glyph-name="uni01FB.alt2_sc" unicode="&#xe088;" horiz-adv-x="625" 
d="M20 0l165 600h45q-8 7 -14 19t-6 28q0 30 24 54t63 28l37 61h80l1 -1l-59 -67q27 -10 43 -30.5t16 -44.5q0 -16 -6 -28t-15 -19h46l165 -600h-90l-45 165h-315l-45 -165h-90zM180 250h265l-70 265h-125zM312 600q23 0 38 12.5t15 29.5q0 19 -14.5 31t-38.5 12t-38 -12
t-14 -31q0 -18 14 -30t38 -12z" />
    <glyph glyph-name="uni01FD.alt2_sc" unicode="&#xe089;" horiz-adv-x="870" 
d="M20 0l165 600h235v125h110v-1l-35 -124h335v-85h-330v-165h270v-85h-270v-180h330v-85h-420v165h-255l-45 -165h-90zM180 250h230v265h-160z" />
    <glyph glyph-name="uni01FF.alt2_sc" unicode="&#xe08a;" horiz-adv-x="750" 
d="M375 -20q-72 0 -134 25.5t-107 71.5l-114 -82v95l67 49q-20 36 -31 76.5t-11 84.5q0 83 37 152t103 112.5t150 52.5v108h110v-1l-30 -106q61 -6 112.5 -32t88.5 -64l114 83v-95l-68 -49q21 -36 32 -77t11 -84q0 -89 -43 -162t-118.5 -115.5t-168.5 -42.5zM375 65
q69 0 123.5 30.5t85.5 84t31 120.5q0 40 -12 76l-6 16t-7 16l-385 -279q33 -31 76 -47.5t94 -16.5zM545 470q-33 31 -76.5 48t-93.5 17q-69 0 -123.5 -30.5t-85.5 -84t-31 -120.5q0 -61 24 -109z" />
    <glyph glyph-name="iacute_j.alt_loclNLD" unicode="&#xe08b;" horiz-adv-x="440" 
d="M70 0v500h80v-500h-80zM145 -190v75h75q35 0 52.5 20.5t17.5 64.5v530h80v-530q0 -52 -17.5 -88t-51 -54t-81.5 -18h-75zM75 605l85 145h100v-1l-115 -144h-70zM295 605l85 145h100v-1l-115 -144h-70z" />
    <glyph glyph-name="i.alt_sc" unicode="&#xe08c;" horiz-adv-x="470" 
d="M50 0v85h140v430h-140v85h370v-85h-140v-430h140v-85h-370z" />
    <glyph glyph-name="igrave.alt_sc" unicode="&#xe08d;" horiz-adv-x="470" 
d="M50 0v85h140v430h-140v85h370v-85h-140v-430h140v-85h-370zM205 690l-115 144v1h100l85 -145h-70z" />
    <glyph glyph-name="iacute.alt_sc" unicode="&#xe08e;" horiz-adv-x="470" 
d="M50 0v85h140v430h-140v85h370v-85h-140v-430h140v-85h-370zM190 690l85 145h100v-1l-115 -144h-70z" />
    <glyph glyph-name="icircumflex.alt_sc" unicode="&#xe08f;" horiz-adv-x="470" 
d="M50 0v85h140v430h-140v85h370v-85h-140v-430h140v-85h-370zM80 690v1l110 144h90l110 -144v-1h-85l-65 90h-10l-65 -90h-85z" />
    <glyph glyph-name="idieresis.alt_sc" unicode="&#xe090;" horiz-adv-x="470" 
d="M50 0v85h140v430h-140v85h370v-85h-140v-430h140v-85h-370zM145 705q-22 0 -38.5 16.5t-16.5 38.5q0 23 16.5 39t38.5 16q23 0 39 -16t16 -39q0 -22 -16 -38.5t-39 -16.5zM325 705q-22 0 -38.5 16.5t-16.5 38.5q0 23 16.5 39t38.5 16q23 0 39 -16t16 -39q0 -22 -16 -38.5
t-39 -16.5z" />
    <glyph glyph-name="imacron.alt_sc" unicode="&#xe091;" horiz-adv-x="470" 
d="M50 0v85h140v430h-140v85h370v-85h-140v-430h140v-85h-370zM100 730v70h270v-70h-270z" />
    <glyph glyph-name="ibreve.alt_sc" unicode="&#xe092;" horiz-adv-x="470" 
d="M50 0v85h140v430h-140v85h370v-85h-140v-430h140v-85h-370zM235 700q-66 0 -105.5 35.5t-39.5 89.5h70q0 -31 19 -48t56 -17t56 17t19 48h70q0 -54 -39.5 -89.5t-105.5 -35.5z" />
    <glyph glyph-name="iogonek.alt_sc" unicode="&#xe093;" horiz-adv-x="470" 
d="M345 -230q-48 0 -76.5 26.5t-28.5 68.5q0 28 16.5 54t42.5 46.5t56 34.5h-305v85h140v430h-140v85h370v-85h-140v-430h140v-85q-50 -25 -85 -59t-35 -71q0 -19 14 -32t36 -13q33 0 70 20v-55q-13 -8 -33 -14t-42 -6z" />
    <glyph glyph-name="afii10069.alt_sc" unicode="&#xe094;" horiz-adv-x="685" 
d="M0 -125v210h65q29 18 49.5 68.5t20.5 131.5v315h450v-515h80v-210h-90v125h-485v-125h-90zM495 85v430h-270v-230q0 -81 -16 -131.5t-39 -68.5v0h325z" />
    </font>
</defs>
</svg>
