<svg xmlns="http://www.w3.org/2000/svg" height="18" width="18" viewBox="0 0 18 18"><title>child head</title><g stroke-linecap="round" stroke-width="1.5" fill="none" stroke="#828282" stroke-linejoin="round" class="nc-icon-wrapper"><path d="M10.416,5.662c-.362,.363-.863,.588-1.416,.588-1.105,0-2-.895-2-2s.895-2,2-2" data-color="color-2"></path><path d="M17.25,9c0-.962-.777-1.741-1.737-1.749-.771-2.879-3.391-5.001-6.513-5.001S3.258,4.373,2.487,7.251c-.96,.007-1.737,.787-1.737,1.749s.777,1.741,1.737,1.749c.771,2.879,3.391,5.001,6.513,5.001s5.742-2.123,6.513-5.001c.96-.007,1.737-.787,1.737-1.749Z"></path><circle cx="6" cy="9" r="1" fill="#828282" data-color="color-2" data-stroke="none" stroke="none"></circle><circle cx="12" cy="9" r="1" fill="#828282" data-color="color-2" data-stroke="none" stroke="none"></circle><path d="M7.667,11h2.667c.368,0,.667,.299,.667,.667h0c0,1.104-.896,2-2,2h0c-1.104,0-2-.896-2-2h0c0-.368,.299-.667,.667-.667Z" fill="#828282" data-color="color-2" data-stroke="none" stroke="none"></path></g></svg>